M48
; DRILL file {KiCad (6.0.7)} date Tue Oct 25 15:05:11 2022
; FORMAT={-:-/ absolute / inch / decimal}
; #@! TF.CreationDate,2022-10-25T15:05:11-05:00
; #@! TF.GenerationSoftware,Kicad,Pcbnew,(6.0.7)
; #@! TF.FileFunction,Plated,1,2,PTH
FMAT,2
INCH
; #@! TA.AperFunction,Plated,PTH,ViaDrill
T1C0.0118
; #@! TA.AperFunction,Plated,PTH,ViaDrill
T2C0.0276
; #@! TA.AperFunction,Plated,PTH,ComponentDrill
T3C0.0315
; #@! TA.AperFunction,Plated,PTH,ComponentDrill
T4C0.0394
; #@! TA.AperFunction,Plated,PTH,ComponentDrill
T5C0.0433
; #@! TA.AperFunction,Plated,PTH,ComponentDrill
T6C0.0598
; #@! TA.AperFunction,Plated,PTH,ComponentDrill
T7C0.0630
%
G90
G05
T1
X2.3399Y-4.1172
X2.5475Y-1.308
X2.6046Y-4.2219
X3.3306Y-1.4457
X3.3403Y-1.7152
X3.3504Y-2.2529
X3.4055Y-2.3604
X3.4647Y-1.6992
X3.466Y-1.5573
X3.4758Y-1.891
X3.478Y-1.8271
X3.4847Y-1.6336
X3.5244Y-1.7833
X3.5254Y-1.6007
X3.5365Y-1.8337
X3.5491Y-3.3132
X3.5827Y-4.1305
X3.6101Y-2.2293
X3.6505Y-2.1759
X3.7098Y-2.0895
X3.7152Y-2.0531
X3.8652Y-2.1223
X3.9209Y-1.7913
X3.9455Y-2.4975
X4.0063Y-1.68
X4.0125Y-1.8704
X4.1418Y-1.6675
X4.1477Y-1.8773
X4.7682Y-2.3604
X4.9003Y-2.3659
X4.9321Y-2.7487
X4.9602Y-1.7799
X4.9959Y-2.157
T2
X2.5268Y-3.5674
X3.3297Y-1.3421
X3.5152Y-2.0673
X3.6865Y-1.8675
T3
X3.9528Y-3.9459
X3.9528Y-4.0459
X4.3528Y-3.9459
X4.3528Y-4.0459
T4
X1.5748Y-1.6152
X1.5748Y-1.7152
X1.5748Y-1.8152
X1.5748Y-1.9152
X1.5748Y-2.0152
X1.5748Y-2.1152
X1.5748Y-2.2152
X1.5748Y-2.3152
X1.5748Y-2.4152
X1.5748Y-2.5152
X1.5748Y-2.6152
X1.5748Y-2.7152
X2.1841Y-4.6063
X2.2841Y-4.6063
X2.3841Y-4.6063
X2.6709Y-4.6063
X2.7709Y-4.6063
X2.8709Y-4.6063
X2.9709Y-4.6063
X3.0709Y-4.6063
X3.364Y-4.6063
X3.464Y-4.6063
X3.564Y-4.6063
X5.0787Y-1.3457
X5.0787Y-1.4457
X5.0787Y-1.5457
X5.0787Y-1.6457
X5.0787Y-1.9232
X5.0787Y-2.0232
X5.0787Y-2.1232
X5.0787Y-2.2232
X5.0787Y-2.3232
X5.0787Y-2.4232
X5.0787Y-2.5232
X5.0787Y-2.6232
X5.0787Y-2.7232
T5
X5.0787Y-3.189
X5.0787Y-3.289
X5.0787Y-3.389
X5.1181Y-3.937
X5.1181Y-4.037
X5.1181Y-4.137
T6
X3.9945Y-4.5276
X4.1945Y-4.5276
X4.5457Y-4.5276
X4.7457Y-4.5276
T7
X1.7323Y-4.0748
X1.8504Y-4.2598
X1.9685Y-4.0748
T0
M30
