%TF.GenerationSoftware,KiCad,Pcbnew,(6.0.7)*%
%TF.CreationDate,2022-10-25T15:01:53-05:00*%
%TF.ProjectId,Embebidos1,456d6265-6269-4646-9f73-312e6b696361,rev?*%
%TF.SameCoordinates,Original*%
%TF.FileFunction,Paste,Top*%
%TF.FilePolarity,Positive*%
%FSLAX46Y46*%
G04 Gerber Fmt 4.6, Leading zero omitted, Abs format (unit mm)*
G04 Created by KiCad (PCBNEW (6.0.7)) date 2022-10-25 15:01:53*
%MOMM*%
%LPD*%
G01*
G04 APERTURE LIST*
G04 Aperture macros list*
%AMRoundRect*
0 Rectangle with rounded corners*
0 $1 Rounding radius*
0 $2 $3 $4 $5 $6 $7 $8 $9 X,Y pos of 4 corners*
0 Add a 4 corners polygon primitive as box body*
4,1,4,$2,$3,$4,$5,$6,$7,$8,$9,$2,$3,0*
0 Add four circle primitives for the rounded corners*
1,1,$1+$1,$2,$3*
1,1,$1+$1,$4,$5*
1,1,$1+$1,$6,$7*
1,1,$1+$1,$8,$9*
0 Add four rect primitives between the rounded corners*
20,1,$1+$1,$2,$3,$4,$5,0*
20,1,$1+$1,$4,$5,$6,$7,0*
20,1,$1+$1,$6,$7,$8,$9,0*
20,1,$1+$1,$8,$9,$2,$3,0*%
G04 Aperture macros list end*
%ADD10RoundRect,0.250000X-0.650000X0.412500X-0.650000X-0.412500X0.650000X-0.412500X0.650000X0.412500X0*%
%ADD11R,2.000000X0.900000*%
%ADD12R,0.900000X2.000000*%
%ADD13R,5.000000X5.000000*%
%ADD14RoundRect,0.250000X0.550000X-1.050000X0.550000X1.050000X-0.550000X1.050000X-0.550000X-1.050000X0*%
%ADD15RoundRect,0.249999X1.075001X-0.450001X1.075001X0.450001X-1.075001X0.450001X-1.075001X-0.450001X0*%
%ADD16RoundRect,0.249999X-0.450001X-1.075001X0.450001X-1.075001X0.450001X1.075001X-0.450001X1.075001X0*%
%ADD17R,2.750000X1.000000*%
%ADD18RoundRect,0.249999X0.450001X1.075001X-0.450001X1.075001X-0.450001X-1.075001X0.450001X-1.075001X0*%
%ADD19RoundRect,0.250000X-1.050000X-0.550000X1.050000X-0.550000X1.050000X0.550000X-1.050000X0.550000X0*%
%ADD20RoundRect,0.250000X-0.550000X1.500000X-0.550000X-1.500000X0.550000X-1.500000X0.550000X1.500000X0*%
%ADD21R,2.000000X1.500000*%
%ADD22R,2.000000X3.800000*%
%ADD23R,1.000000X1.200000*%
%ADD24RoundRect,0.250000X0.650000X-0.412500X0.650000X0.412500X-0.650000X0.412500X-0.650000X-0.412500X0*%
G04 APERTURE END LIST*
D10*
%TO.C,C10*%
X41457600Y-89343900D03*
X41457600Y-92468900D03*
%TD*%
D11*
%TO.C,U4*%
X86500000Y-32995000D03*
X86500000Y-34265000D03*
X86500000Y-35535000D03*
X86500000Y-36805000D03*
X86500000Y-38075000D03*
X86500000Y-39345000D03*
X86500000Y-40615000D03*
X86500000Y-41885000D03*
X86500000Y-43155000D03*
X86500000Y-44425000D03*
X86500000Y-45695000D03*
X86500000Y-46965000D03*
X86500000Y-48235000D03*
X86500000Y-49505000D03*
D12*
X89285000Y-50505000D03*
X90555000Y-50505000D03*
X91825000Y-50505000D03*
X93095000Y-50505000D03*
X94365000Y-50505000D03*
X95635000Y-50505000D03*
X96905000Y-50505000D03*
X98175000Y-50505000D03*
X99445000Y-50505000D03*
X100715000Y-50505000D03*
D11*
X103500000Y-49505000D03*
X103500000Y-48235000D03*
X103500000Y-46965000D03*
X103500000Y-45695000D03*
X103500000Y-44425000D03*
X103500000Y-43155000D03*
X103500000Y-41885000D03*
X103500000Y-40615000D03*
X103500000Y-39345000D03*
X103500000Y-38075000D03*
X103500000Y-36805000D03*
X103500000Y-35535000D03*
X103500000Y-34265000D03*
X103500000Y-32995000D03*
D13*
X94000000Y-40495000D03*
%TD*%
D14*
%TO.C,C2*%
X63000000Y-85800000D03*
X63000000Y-82200000D03*
%TD*%
D15*
%TO.C,R11*%
X91000000Y-108400000D03*
X91000000Y-103600000D03*
%TD*%
D16*
%TO.C,R5*%
X118600000Y-80000000D03*
X123400000Y-80000000D03*
%TD*%
D15*
%TO.C,R2*%
X110500000Y-82900000D03*
X110500000Y-78100000D03*
%TD*%
%TO.C,R3*%
X100500000Y-70900000D03*
X100500000Y-66100000D03*
%TD*%
D17*
%TO.C,SW1*%
X69120000Y-90500000D03*
X74880000Y-90500000D03*
X74880000Y-94500000D03*
X69120000Y-94500000D03*
%TD*%
D18*
%TO.C,R7*%
X102400000Y-82500000D03*
X97600000Y-82500000D03*
%TD*%
D19*
%TO.C,C4*%
X60700000Y-73500000D03*
X64300000Y-73500000D03*
%TD*%
D20*
%TO.C,C3*%
X52500000Y-88300000D03*
X52500000Y-93700000D03*
%TD*%
D16*
%TO.C,R4*%
X118600000Y-99000000D03*
X123400000Y-99000000D03*
%TD*%
D21*
%TO.C,U1*%
X50650000Y-81800000D03*
X50650000Y-79500000D03*
D22*
X44350000Y-79500000D03*
D21*
X50650000Y-77200000D03*
%TD*%
D23*
%TO.C,USERLED1*%
X110000000Y-71000000D03*
X110000000Y-73000000D03*
%TD*%
D17*
%TO.C,SW2*%
X62880000Y-28000000D03*
X57120000Y-28000000D03*
X62880000Y-32000000D03*
X57120000Y-32000000D03*
%TD*%
D23*
%TO.C,LEDON1*%
X58000000Y-103000000D03*
X58000000Y-105000000D03*
%TD*%
D24*
%TO.C,C1*%
X51000000Y-32562500D03*
X51000000Y-29437500D03*
%TD*%
D18*
%TO.C,R1*%
X90900000Y-68000000D03*
X86100000Y-68000000D03*
%TD*%
%TO.C,R6*%
X123400000Y-42000000D03*
X118600000Y-42000000D03*
%TD*%
M02*
