%TF.GenerationSoftware,KiCad,Pcbnew,(6.0.7)*%
%TF.CreationDate,2022-10-25T10:47:54-05:00*%
%TF.ProjectId,Embebidos1,456d6265-6269-4646-9f73-312e6b696361,rev?*%
%TF.SameCoordinates,Original*%
%TF.FileFunction,Copper,L2,Bot*%
%TF.FilePolarity,Positive*%
%FSLAX46Y46*%
G04 Gerber Fmt 4.6, Leading zero omitted, Abs format (unit mm)*
G04 Created by KiCad (PCBNEW (6.0.7)) date 2022-10-25 10:47:54*
%MOMM*%
%LPD*%
G01*
G04 APERTURE LIST*
%TA.AperFunction,ComponentPad*%
%ADD10C,2.600000*%
%TD*%
%TA.AperFunction,ComponentPad*%
%ADD11R,2.600000X2.600000*%
%TD*%
%TA.AperFunction,ComponentPad*%
%ADD12R,1.700000X1.700000*%
%TD*%
%TA.AperFunction,ComponentPad*%
%ADD13O,1.700000X1.700000*%
%TD*%
%TA.AperFunction,ComponentPad*%
%ADD14R,2.000000X1.905000*%
%TD*%
%TA.AperFunction,ComponentPad*%
%ADD15O,2.000000X1.905000*%
%TD*%
%TA.AperFunction,ComponentPad*%
%ADD16R,3.000000X3.000000*%
%TD*%
%TA.AperFunction,ComponentPad*%
%ADD17C,3.000000*%
%TD*%
%TA.AperFunction,ComponentPad*%
%ADD18R,1.600000X1.600000*%
%TD*%
%TA.AperFunction,ComponentPad*%
%ADD19O,1.600000X1.600000*%
%TD*%
%TA.AperFunction,ViaPad*%
%ADD20C,0.600000*%
%TD*%
%TA.AperFunction,ViaPad*%
%ADD21C,1.000000*%
%TD*%
%TA.AperFunction,Conductor*%
%ADD22C,0.700000*%
%TD*%
%TA.AperFunction,Conductor*%
%ADD23C,0.400000*%
%TD*%
%TA.AperFunction,Conductor*%
%ADD24C,0.300000*%
%TD*%
G04 APERTURE END LIST*
D10*
%TO.P,J6,3*%
%TO.N,N/C*%
X47000000Y-108200000D03*
%TO.P,J6,2*%
%TO.N,GND*%
X44000000Y-103500000D03*
D11*
%TO.P,J6,1*%
%TO.N,+5V*%
X50000000Y-103500000D03*
%TD*%
D12*
%TO.P,J9,1,Pin_1*%
%TO.N,/SHD*%
X129000000Y-48850000D03*
D13*
%TO.P,J9,2,Pin_2*%
%TO.N,/SWP*%
X129000000Y-51390000D03*
%TO.P,J9,3,Pin_3*%
%TO.N,/SCS*%
X129000000Y-53930000D03*
%TO.P,J9,4,Pin_4*%
%TO.N,Net-(U4-Pad37)*%
X129000000Y-56470000D03*
%TO.P,J9,5,Pin_5*%
%TO.N,Net-(U4-Pad36)*%
X129000000Y-59010000D03*
%TO.P,J9,6,Pin_6*%
%TO.N,Net-(U4-Pad33)*%
X129000000Y-61550000D03*
%TO.P,J9,7,Pin_7*%
%TO.N,Net-(U4-Pad31)*%
X129000000Y-64090000D03*
%TO.P,J9,8,Pin_8*%
%TO.N,Net-(U4-Pad30)*%
X129000000Y-66630000D03*
%TO.P,J9,9,Pin_9*%
%TO.N,Net-(U4-Pad29)*%
X129000000Y-69170000D03*
%TD*%
D12*
%TO.P,J8,1,Pin_1*%
%TO.N,/Sen_VP*%
X40000000Y-41025000D03*
D13*
%TO.P,J8,2,Pin_2*%
%TO.N,/Sen_VN*%
X40000000Y-43565000D03*
%TO.P,J8,3,Pin_3*%
%TO.N,Net-(U4-Pad6)*%
X40000000Y-46105000D03*
%TO.P,J8,4,Pin_4*%
%TO.N,Net-(U4-Pad7)*%
X40000000Y-48645000D03*
%TO.P,J8,5,Pin_5*%
%TO.N,Net-(U4-Pad8)*%
X40000000Y-51185000D03*
%TO.P,J8,6,Pin_6*%
%TO.N,Net-(U4-Pad9)*%
X40000000Y-53725000D03*
%TO.P,J8,7,Pin_7*%
%TO.N,Net-(U4-Pad10)*%
X40000000Y-56265000D03*
%TO.P,J8,8,Pin_8*%
%TO.N,Net-(U4-Pad11)*%
X40000000Y-58805000D03*
%TO.P,J8,9,Pin_9*%
%TO.N,Net-(U4-Pad12)*%
X40000000Y-61345000D03*
%TO.P,J8,10,Pin_10*%
%TO.N,Net-(U4-Pad13)*%
X40000000Y-63885000D03*
%TO.P,J8,11,Pin_11*%
%TO.N,Net-(U4-Pad14)*%
X40000000Y-66425000D03*
%TO.P,J8,12,Pin_12*%
%TO.N,Net-(U4-Pad16)*%
X40000000Y-68965000D03*
%TD*%
D14*
%TO.P,Q2,1,G*%
%TO.N,Net-(Q2-Pad1)*%
X129000000Y-81000000D03*
D15*
%TO.P,Q2,2,D*%
%TO.N,+5V*%
X129000000Y-83540000D03*
%TO.P,Q2,3,S*%
%TO.N,/LUZOUT*%
X129000000Y-86080000D03*
%TD*%
D13*
%TO.P,J2,5,Pin_5*%
%TO.N,/ACK_LUZ*%
X67840000Y-117000000D03*
%TO.P,J2,4,Pin_4*%
%TO.N,/SDA_LUZ*%
X70380000Y-117000000D03*
%TO.P,J2,3,Pin_3*%
%TO.N,/SCL_LUZ*%
X72920000Y-117000000D03*
%TO.P,J2,2,Pin_2*%
%TO.N,GND*%
X75460000Y-117000000D03*
D12*
%TO.P,J2,1,Pin_1*%
%TO.N,+3V3*%
X78000000Y-117000000D03*
%TD*%
D16*
%TO.P,J4,1,Pin_1*%
%TO.N,/MOTOROUT*%
X115460000Y-115000000D03*
D17*
%TO.P,J4,2,Pin_2*%
%TO.N,GND*%
X120540000Y-115000000D03*
%TD*%
D13*
%TO.P,J1,3,Pin_3*%
%TO.N,GND*%
X85445000Y-117000000D03*
%TO.P,J1,2,Pin_2*%
%TO.N,/STemperatura*%
X87985000Y-117000000D03*
D12*
%TO.P,J1,1,Pin_1*%
%TO.N,+3V3*%
X90525000Y-117000000D03*
%TD*%
D13*
%TO.P,J5,4,Pin_4*%
%TO.N,GND*%
X129000000Y-34180000D03*
%TO.P,J5,3,Pin_3*%
%TO.N,/TX*%
X129000000Y-36720000D03*
%TO.P,J5,2,Pin_2*%
%TO.N,/RX*%
X129000000Y-39260000D03*
D12*
%TO.P,J5,1,Pin_1*%
%TO.N,+3V3*%
X129000000Y-41800000D03*
%TD*%
D14*
%TO.P,Q1,1,G*%
%TO.N,Net-(Q1-Pad1)*%
X130000000Y-100000000D03*
D15*
%TO.P,Q1,2,D*%
%TO.N,+5V*%
X130000000Y-102540000D03*
%TO.P,Q1,3,S*%
%TO.N,/MOTOROUT*%
X130000000Y-105080000D03*
%TD*%
D18*
%TO.P,U5,1*%
%TO.N,Net-(R3-Pad1)*%
X100400000Y-100225000D03*
D19*
%TO.P,U5,2*%
%TO.N,GND*%
X100400000Y-102765000D03*
%TO.P,U5,3*%
%TO.N,Net-(R4-Pad1)*%
X110560000Y-102765000D03*
%TO.P,U5,4*%
%TO.N,+5V*%
X110560000Y-100225000D03*
%TD*%
D16*
%TO.P,J7,1,Pin_1*%
%TO.N,/LUZOUT*%
X101460000Y-115000000D03*
D17*
%TO.P,J7,2,Pin_2*%
%TO.N,GND*%
X106540000Y-115000000D03*
%TD*%
D13*
%TO.P,J3,3,Pin_3*%
%TO.N,GND*%
X60555000Y-117000000D03*
%TO.P,J3,2,Pin_2*%
%TO.N,/SNivelAgua*%
X58015000Y-117000000D03*
D12*
%TO.P,J3,1,Pin_1*%
%TO.N,+3V3*%
X55475000Y-117000000D03*
%TD*%
D20*
%TO.N,Net-(U4-Pad29)*%
X101917900Y-47508800D03*
%TO.N,Net-(U4-Pad30)*%
X121113200Y-59955200D03*
%TO.N,Net-(U4-Pad31)*%
X105201100Y-42353300D03*
X125988700Y-45209300D03*
%TO.N,Net-(U4-Pad33)*%
X101761000Y-42673000D03*
%TO.N,Net-(U4-Pad36)*%
X99589800Y-45498600D03*
%TO.N,Net-(U4-Pad16)*%
X91695800Y-56624300D03*
%TO.N,Net-(U4-Pad14)*%
X86500000Y-59955200D03*
%TO.N,Net-(U4-Pad13)*%
X85099700Y-57224800D03*
%TO.N,Net-(U4-Pad12)*%
X88341700Y-46409400D03*
%TO.N,Net-(U4-Pad11)*%
X89826600Y-46575500D03*
%TO.N,Net-(U4-Pad10)*%
X89520900Y-45294700D03*
%TO.N,Net-(U4-Pad9)*%
X88002800Y-43160100D03*
%TO.N,Net-(U4-Pad8)*%
X88285800Y-48030200D03*
%TO.N,Net-(U4-Pad7)*%
X88511800Y-41494000D03*
%TO.N,/LUZPWR*%
X124466400Y-60093300D03*
X105352700Y-47683100D03*
%TO.N,/SHD*%
X92721600Y-55266900D03*
X125276200Y-69817300D03*
%TO.N,/SWP*%
X94228300Y-53074200D03*
X126897000Y-54786600D03*
%TO.N,/SCS*%
X94365000Y-52148000D03*
%TO.N,/Sen_VP*%
X89546300Y-40657100D03*
%TO.N,/Sen_VN*%
X84842400Y-43565000D03*
%TO.N,/SCL_LUZ*%
X98175000Y-53905400D03*
X100216400Y-63437200D03*
%TO.N,Net-(LEDON1-Pad2)*%
X59433500Y-104575700D03*
X91000000Y-104914100D03*
%TO.N,/ACK_LUZ*%
X66155800Y-107236400D03*
%TO.N,/STemperatura*%
X90147700Y-84155900D03*
D21*
%TO.N,+3V3*%
X84574800Y-34090100D03*
%TO.N,GND*%
X93637800Y-47435400D03*
X89285000Y-52508500D03*
%TO.N,+5V*%
X64179700Y-90613200D03*
D20*
%TO.N,Net-(U4-Pad6)*%
X88037100Y-39556600D03*
%TO.N,/E32_RST*%
X64705300Y-33223600D03*
X84598100Y-36720700D03*
%TD*%
D22*
%TO.N,+3V3*%
X55475000Y-117000000D02*
X58202500Y-119727500D01*
X58202500Y-119727500D02*
X75272500Y-119727500D01*
X75272500Y-119727500D02*
X78000000Y-117000000D01*
D23*
%TO.N,Net-(U4-Pad29)*%
X129000000Y-69170000D02*
X127749700Y-69170000D01*
X123426100Y-69017000D02*
X101917900Y-47508800D01*
X127596700Y-69017000D02*
X123426100Y-69017000D01*
X127749700Y-69170000D02*
X127596700Y-69017000D01*
%TO.N,Net-(U4-Pad30)*%
X127749700Y-66591700D02*
X127749700Y-66630000D01*
X121113200Y-59955200D02*
X127749700Y-66591700D01*
X129000000Y-66630000D02*
X127749700Y-66630000D01*
%TO.N,Net-(U4-Pad31)*%
X111968000Y-42353300D02*
X105201100Y-42353300D01*
X114824000Y-45209300D02*
X111968000Y-42353300D01*
X125988700Y-45209300D02*
X114824000Y-45209300D01*
%TO.N,Net-(U4-Pad33)*%
X129000000Y-61550000D02*
X129000000Y-60299700D01*
X129518100Y-60299700D02*
X129000000Y-60299700D01*
X130981800Y-58836000D02*
X129518100Y-60299700D01*
X130981800Y-47509400D02*
X130981800Y-58836000D01*
X129382000Y-45909600D02*
X130981800Y-47509400D01*
X114572400Y-45909600D02*
X129382000Y-45909600D01*
X113561100Y-44898300D02*
X114572400Y-45909600D01*
X103986300Y-44898300D02*
X113561100Y-44898300D01*
X101761000Y-42673000D02*
X103986300Y-44898300D01*
%TO.N,Net-(U4-Pad36)*%
X129000000Y-59010000D02*
X129000000Y-57759700D01*
X129518100Y-57759700D02*
X129000000Y-57759700D01*
X130377700Y-56900100D02*
X129518100Y-57759700D01*
X130377700Y-47790300D02*
X130377700Y-56900100D01*
X129646100Y-47058700D02*
X130377700Y-47790300D01*
X114250900Y-47058700D02*
X129646100Y-47058700D01*
X112690800Y-45498600D02*
X114250900Y-47058700D01*
X99589800Y-45498600D02*
X112690800Y-45498600D01*
%TO.N,Net-(U4-Pad16)*%
X79355100Y-68965000D02*
X91695800Y-56624300D01*
X40000000Y-68965000D02*
X79355100Y-68965000D01*
%TO.N,Net-(U4-Pad14)*%
X80030200Y-66425000D02*
X40000000Y-66425000D01*
X86500000Y-59955200D02*
X80030200Y-66425000D01*
%TO.N,Net-(U4-Pad13)*%
X78439500Y-63885000D02*
X85099700Y-57224800D01*
X40000000Y-63885000D02*
X78439500Y-63885000D01*
%TO.N,Net-(U4-Pad12)*%
X88341700Y-45423600D02*
X88341700Y-46409400D01*
X89200800Y-44564500D02*
X88341700Y-45423600D01*
X89794600Y-44564500D02*
X89200800Y-44564500D01*
X90535400Y-45305300D02*
X89794600Y-44564500D01*
X90535400Y-48646700D02*
X90535400Y-45305300D01*
X77837100Y-61345000D02*
X90535400Y-48646700D01*
X40000000Y-61345000D02*
X77837100Y-61345000D01*
%TO.N,Net-(U4-Pad11)*%
X89826600Y-48492700D02*
X89826600Y-46575500D01*
X79514300Y-58805000D02*
X89826600Y-48492700D01*
X40000000Y-58805000D02*
X79514300Y-58805000D01*
%TO.N,Net-(U4-Pad10)*%
X40000000Y-56265000D02*
X41250300Y-56265000D01*
X81114200Y-56265000D02*
X41250300Y-56265000D01*
X89112600Y-48266600D02*
X81114200Y-56265000D01*
X89112600Y-45703000D02*
X89112600Y-48266600D01*
X89520900Y-45294700D02*
X89112600Y-45703000D01*
%TO.N,Net-(U4-Pad9)*%
X40000000Y-53725000D02*
X40000000Y-52474700D01*
X81247800Y-49915100D02*
X88002800Y-43160100D01*
X39495400Y-49915100D02*
X81247800Y-49915100D01*
X38710400Y-50700100D02*
X39495400Y-49915100D01*
X38710400Y-51732100D02*
X38710400Y-50700100D01*
X39453000Y-52474700D02*
X38710400Y-51732100D01*
X40000000Y-52474700D02*
X39453000Y-52474700D01*
%TO.N,Net-(U4-Pad8)*%
X40000000Y-51185000D02*
X41250300Y-51185000D01*
X85131000Y-51185000D02*
X41250300Y-51185000D01*
X88285800Y-48030200D02*
X85131000Y-51185000D01*
%TO.N,Net-(U4-Pad7)*%
X81360800Y-48645000D02*
X88511800Y-41494000D01*
X40000000Y-48645000D02*
X81360800Y-48645000D01*
%TO.N,/LUZPWR*%
X112056200Y-47683100D02*
X124466400Y-60093300D01*
X105352700Y-47683100D02*
X112056200Y-47683100D01*
D24*
%TO.N,/SHD*%
X105514700Y-69817300D02*
X125276200Y-69817300D01*
X92721600Y-57024200D02*
X105514700Y-69817300D01*
X92721600Y-55266900D02*
X92721600Y-57024200D01*
%TO.N,/SWP*%
X95226200Y-53074200D02*
X94228300Y-53074200D01*
X101551100Y-46749300D02*
X95226200Y-53074200D01*
X112042200Y-46749300D02*
X101551100Y-46749300D01*
X120079500Y-54786600D02*
X112042200Y-46749300D01*
X126897000Y-54786600D02*
X120079500Y-54786600D01*
%TO.N,/SCS*%
X129000000Y-53930000D02*
X127699700Y-53930000D01*
X120202600Y-53930000D02*
X127699700Y-53930000D01*
X112421500Y-46148900D02*
X120202600Y-53930000D01*
X100364100Y-46148900D02*
X112421500Y-46148900D01*
X94365000Y-52148000D02*
X100364100Y-46148900D01*
%TO.N,/Sen_VP*%
X41668200Y-40657100D02*
X89546300Y-40657100D01*
X41300300Y-41025000D02*
X41668200Y-40657100D01*
X40000000Y-41025000D02*
X41300300Y-41025000D01*
%TO.N,/Sen_VN*%
X40000000Y-43565000D02*
X84842400Y-43565000D01*
D22*
%TO.N,/LUZOUT*%
X122489400Y-86080000D02*
X129000000Y-86080000D01*
X101460000Y-107109400D02*
X122489400Y-86080000D01*
X101460000Y-115000000D02*
X101460000Y-107109400D01*
D24*
%TO.N,/SCL_LUZ*%
X100216400Y-55946800D02*
X98175000Y-53905400D01*
X100216400Y-63437200D02*
X100216400Y-55946800D01*
%TO.N,Net-(LEDON1-Pad2)*%
X90661600Y-104575700D02*
X59433500Y-104575700D01*
X91000000Y-104914100D02*
X90661600Y-104575700D01*
D22*
%TO.N,/MOTOROUT*%
X117710300Y-114578100D02*
X117710300Y-115000000D01*
X127208400Y-105080000D02*
X117710300Y-114578100D01*
X130000000Y-105080000D02*
X127208400Y-105080000D01*
X115460000Y-115000000D02*
X117710300Y-115000000D01*
D24*
%TO.N,/ACK_LUZ*%
X67840000Y-108920600D02*
X67840000Y-117000000D01*
X66155800Y-107236400D02*
X67840000Y-108920600D01*
%TO.N,/STemperatura*%
X91767800Y-85776000D02*
X90147700Y-84155900D01*
X91767800Y-111916900D02*
X91767800Y-85776000D01*
X87985000Y-115699700D02*
X91767800Y-111916900D01*
X87985000Y-117000000D02*
X87985000Y-115699700D01*
D22*
%TO.N,+3V3*%
X81200600Y-118600300D02*
X79600300Y-117000000D01*
X88924700Y-118600300D02*
X81200600Y-118600300D01*
X90525000Y-117000000D02*
X88924700Y-118600300D01*
X78000000Y-117000000D02*
X79600300Y-117000000D01*
X129000000Y-41800000D02*
X127399700Y-41800000D01*
X119689800Y-34090100D02*
X84574800Y-34090100D01*
X127399700Y-41800000D02*
X119689800Y-34090100D01*
%TO.N,GND*%
X130613800Y-42996600D02*
X130210000Y-43400400D01*
X130613800Y-35793800D02*
X130613800Y-42996600D01*
X129000000Y-34180000D02*
X130613800Y-35793800D01*
%TO.N,+5V*%
X50000000Y-103500000D02*
X52050300Y-103500000D01*
X64179700Y-91370600D02*
X64179700Y-90613200D01*
X52050300Y-103500000D02*
X64179700Y-91370600D01*
X129000000Y-83540000D02*
X127249700Y-83540000D01*
X71687300Y-83105600D02*
X64179700Y-90613200D01*
X126815300Y-83105600D02*
X71687300Y-83105600D01*
X127249700Y-83540000D02*
X126815300Y-83105600D01*
X114425300Y-102540000D02*
X130000000Y-102540000D01*
X112110300Y-100225000D02*
X114425300Y-102540000D01*
X110560000Y-100225000D02*
X112110300Y-100225000D01*
D23*
%TO.N,Net-(U4-Pad6)*%
X39020800Y-39556600D02*
X88037100Y-39556600D01*
X38649600Y-39927800D02*
X39020800Y-39556600D01*
X38649600Y-44754600D02*
X38649600Y-39927800D01*
X40000000Y-46105000D02*
X38649600Y-44754600D01*
D24*
%TO.N,/E32_RST*%
X81101000Y-33223600D02*
X64705300Y-33223600D01*
X84598100Y-36720700D02*
X81101000Y-33223600D01*
%TD*%
%TA.AperFunction,Conductor*%
%TO.N,GND*%
G36*
X80042891Y-22740002D02*
G01*
X80089384Y-22793658D01*
X80100768Y-22845227D01*
X80123964Y-26626148D01*
X80159453Y-32410740D01*
X80159622Y-32438327D01*
X80140038Y-32506569D01*
X80086668Y-32553390D01*
X80033624Y-32565100D01*
X65213244Y-32565100D01*
X65145730Y-32545485D01*
X65117508Y-32527575D01*
X65061966Y-32492327D01*
X65032763Y-32481928D01*
X64897725Y-32433843D01*
X64897720Y-32433842D01*
X64891090Y-32431481D01*
X64884102Y-32430648D01*
X64884099Y-32430647D01*
X64760998Y-32415968D01*
X64710980Y-32410004D01*
X64703977Y-32410740D01*
X64703976Y-32410740D01*
X64537588Y-32428228D01*
X64537586Y-32428229D01*
X64530588Y-32428964D01*
X64358879Y-32487418D01*
X64337340Y-32500669D01*
X64210395Y-32578766D01*
X64210392Y-32578768D01*
X64204388Y-32582462D01*
X64199353Y-32587393D01*
X64199350Y-32587395D01*
X64154220Y-32631590D01*
X64074793Y-32709371D01*
X63976535Y-32861838D01*
X63974126Y-32868458D01*
X63974124Y-32868461D01*
X63948232Y-32939599D01*
X63914497Y-33032285D01*
X63891763Y-33212240D01*
X63909463Y-33392760D01*
X63966718Y-33564873D01*
X63970365Y-33570895D01*
X63970366Y-33570897D01*
X64051450Y-33704783D01*
X64060680Y-33720024D01*
X64065569Y-33725087D01*
X64065570Y-33725088D01*
X64085644Y-33745875D01*
X64186682Y-33850502D01*
X64192578Y-33854360D01*
X64299502Y-33924329D01*
X64338459Y-33949822D01*
X64345063Y-33952278D01*
X64345065Y-33952279D01*
X64501858Y-34010590D01*
X64501860Y-34010590D01*
X64508468Y-34013048D01*
X64592295Y-34024233D01*
X64681280Y-34036107D01*
X64681284Y-34036107D01*
X64688261Y-34037038D01*
X64695272Y-34036400D01*
X64695276Y-34036400D01*
X64837759Y-34023432D01*
X64868900Y-34020598D01*
X64875602Y-34018420D01*
X64875604Y-34018420D01*
X65034709Y-33966724D01*
X65034712Y-33966723D01*
X65041408Y-33964547D01*
X65149903Y-33899871D01*
X65214420Y-33882100D01*
X80776050Y-33882100D01*
X80844171Y-33902102D01*
X80865145Y-33919005D01*
X83767783Y-36821642D01*
X83801698Y-36884101D01*
X83802263Y-36889860D01*
X83804488Y-36896548D01*
X83804488Y-36896549D01*
X83830559Y-36974919D01*
X83859518Y-37061973D01*
X83863165Y-37067995D01*
X83863166Y-37067997D01*
X83874078Y-37086014D01*
X83953480Y-37217124D01*
X84079482Y-37347602D01*
X84231259Y-37446922D01*
X84237863Y-37449378D01*
X84237865Y-37449379D01*
X84394658Y-37507690D01*
X84394660Y-37507690D01*
X84401268Y-37510148D01*
X84480268Y-37520689D01*
X84574080Y-37533207D01*
X84574084Y-37533207D01*
X84581061Y-37534138D01*
X84588072Y-37533500D01*
X84588076Y-37533500D01*
X84730559Y-37520532D01*
X84761700Y-37517698D01*
X84768402Y-37515520D01*
X84768404Y-37515520D01*
X84927509Y-37463824D01*
X84927512Y-37463823D01*
X84934208Y-37461647D01*
X85090012Y-37368769D01*
X85221366Y-37243682D01*
X85321743Y-37092602D01*
X85386155Y-36923038D01*
X85387135Y-36916066D01*
X85410848Y-36747339D01*
X85410848Y-36747336D01*
X85411399Y-36743417D01*
X85411716Y-36720700D01*
X85391497Y-36540445D01*
X85374746Y-36492342D01*
X85334164Y-36375806D01*
X85334162Y-36375803D01*
X85331845Y-36369148D01*
X85276578Y-36280702D01*
X85239459Y-36221298D01*
X85235726Y-36215324D01*
X85230764Y-36210327D01*
X85112878Y-36091615D01*
X85112874Y-36091612D01*
X85107915Y-36086618D01*
X85098417Y-36080590D01*
X85038240Y-36042401D01*
X84954766Y-35989427D01*
X84925563Y-35979028D01*
X84790525Y-35930943D01*
X84790520Y-35930942D01*
X84783890Y-35928581D01*
X84776896Y-35927747D01*
X84776892Y-35927746D01*
X84774245Y-35927430D01*
X84772666Y-35926754D01*
X84770034Y-35926137D01*
X84770142Y-35925675D01*
X84708972Y-35899502D01*
X84700071Y-35891412D01*
X84032625Y-35223966D01*
X83998599Y-35161654D01*
X84003664Y-35090839D01*
X84046211Y-35034003D01*
X84112731Y-35009192D01*
X84169046Y-35018872D01*
X84169094Y-35018724D01*
X84170114Y-35019056D01*
X84170118Y-35019057D01*
X84357192Y-35079840D01*
X84553577Y-35103258D01*
X84559712Y-35102786D01*
X84559714Y-35102786D01*
X84744630Y-35088557D01*
X84744634Y-35088556D01*
X84750772Y-35088084D01*
X84941263Y-35034898D01*
X85085311Y-34962134D01*
X85142122Y-34948600D01*
X119282008Y-34948600D01*
X119350129Y-34968602D01*
X119371103Y-34985505D01*
X126763374Y-42377776D01*
X126770516Y-42385542D01*
X126804171Y-42425367D01*
X126809590Y-42429511D01*
X126809592Y-42429512D01*
X126819573Y-42437143D01*
X126868717Y-42474717D01*
X126871119Y-42476601D01*
X126929111Y-42523228D01*
X126929117Y-42523232D01*
X126934438Y-42527510D01*
X126940557Y-42530547D01*
X126943352Y-42532335D01*
X126943713Y-42532588D01*
X126944080Y-42532790D01*
X126946938Y-42534521D01*
X126952352Y-42538660D01*
X127015381Y-42568051D01*
X127025962Y-42572985D01*
X127028733Y-42574319D01*
X127101514Y-42610447D01*
X127108135Y-42612098D01*
X127111263Y-42613249D01*
X127111656Y-42613413D01*
X127112061Y-42613532D01*
X127115225Y-42614609D01*
X127121404Y-42617490D01*
X127195198Y-42633985D01*
X127200702Y-42635215D01*
X127203700Y-42635924D01*
X127282501Y-42655572D01*
X127289322Y-42655763D01*
X127292625Y-42656215D01*
X127293509Y-42656374D01*
X127298392Y-42657052D01*
X127303440Y-42658180D01*
X127309163Y-42658500D01*
X127385544Y-42658500D01*
X127389063Y-42658549D01*
X127468957Y-42660781D01*
X127475661Y-42659502D01*
X127482462Y-42658955D01*
X127482504Y-42659475D01*
X127492825Y-42658500D01*
X127525507Y-42658500D01*
X127593628Y-42678502D01*
X127640121Y-42732158D01*
X127647543Y-42753763D01*
X127648255Y-42760316D01*
X127651027Y-42767711D01*
X127651028Y-42767714D01*
X127683671Y-42854788D01*
X127699385Y-42896705D01*
X127786739Y-43013261D01*
X127903295Y-43100615D01*
X128039684Y-43151745D01*
X128101866Y-43158500D01*
X129898134Y-43158500D01*
X129960316Y-43151745D01*
X130096705Y-43100615D01*
X130213261Y-43013261D01*
X130300615Y-42896705D01*
X130351745Y-42760316D01*
X130358500Y-42698134D01*
X130358500Y-40901866D01*
X130351745Y-40839684D01*
X130300615Y-40703295D01*
X130213261Y-40586739D01*
X130096705Y-40499385D01*
X130084132Y-40494672D01*
X129978203Y-40454960D01*
X129921439Y-40412318D01*
X129896739Y-40345756D01*
X129911947Y-40276408D01*
X129933493Y-40247727D01*
X130034435Y-40147137D01*
X130038096Y-40143489D01*
X130097594Y-40060689D01*
X130165435Y-39966277D01*
X130168453Y-39962077D01*
X130189918Y-39918647D01*
X130265136Y-39766453D01*
X130265137Y-39766451D01*
X130267430Y-39761811D01*
X130332370Y-39548069D01*
X130361529Y-39326590D01*
X130363156Y-39260000D01*
X130344852Y-39037361D01*
X130290431Y-38820702D01*
X130201354Y-38615840D01*
X130080014Y-38428277D01*
X129929670Y-38263051D01*
X129925619Y-38259852D01*
X129925615Y-38259848D01*
X129758414Y-38127800D01*
X129758410Y-38127798D01*
X129754359Y-38124598D01*
X129713053Y-38101796D01*
X129663084Y-38051364D01*
X129648312Y-37981921D01*
X129673428Y-37915516D01*
X129700780Y-37888909D01*
X129744603Y-37857650D01*
X129879860Y-37761173D01*
X130038096Y-37603489D01*
X130087930Y-37534138D01*
X130165435Y-37426277D01*
X130168453Y-37422077D01*
X130194800Y-37368769D01*
X130265136Y-37226453D01*
X130265137Y-37226451D01*
X130267430Y-37221811D01*
X130332370Y-37008069D01*
X130361529Y-36786590D01*
X130363156Y-36720000D01*
X130344852Y-36497361D01*
X130290431Y-36280702D01*
X130201354Y-36075840D01*
X130080014Y-35888277D01*
X129929670Y-35723051D01*
X129925619Y-35719852D01*
X129925615Y-35719848D01*
X129758414Y-35587800D01*
X129758410Y-35587798D01*
X129754359Y-35584598D01*
X129712569Y-35561529D01*
X129662598Y-35511097D01*
X129647826Y-35441654D01*
X129672942Y-35375248D01*
X129700294Y-35348641D01*
X129875328Y-35223792D01*
X129883200Y-35217139D01*
X130034052Y-35066812D01*
X130040730Y-35058965D01*
X130165003Y-34886020D01*
X130170313Y-34877183D01*
X130264670Y-34686267D01*
X130268469Y-34676672D01*
X130330377Y-34472910D01*
X130332555Y-34462837D01*
X130333986Y-34451962D01*
X130331775Y-34437778D01*
X130318617Y-34434000D01*
X127683225Y-34434000D01*
X127669694Y-34437973D01*
X127668257Y-34447966D01*
X127698565Y-34582446D01*
X127701645Y-34592275D01*
X127781770Y-34789603D01*
X127786413Y-34798794D01*
X127897694Y-34980388D01*
X127903777Y-34988699D01*
X128043213Y-35149667D01*
X128050580Y-35156883D01*
X128214434Y-35292916D01*
X128222881Y-35298831D01*
X128291969Y-35339203D01*
X128340693Y-35390842D01*
X128353764Y-35460625D01*
X128327033Y-35526396D01*
X128286584Y-35559752D01*
X128273607Y-35566507D01*
X128269474Y-35569610D01*
X128269471Y-35569612D01*
X128245247Y-35587800D01*
X128094965Y-35700635D01*
X127940629Y-35862138D01*
X127814743Y-36046680D01*
X127720688Y-36249305D01*
X127660989Y-36464570D01*
X127637251Y-36686695D01*
X127637548Y-36691848D01*
X127637548Y-36691851D01*
X127643011Y-36786590D01*
X127650110Y-36909715D01*
X127651247Y-36914761D01*
X127651248Y-36914767D01*
X127671119Y-37002939D01*
X127699222Y-37127639D01*
X127783266Y-37334616D01*
X127785965Y-37339020D01*
X127894124Y-37515520D01*
X127899987Y-37525088D01*
X128046250Y-37693938D01*
X128218126Y-37836632D01*
X128288595Y-37877811D01*
X128291445Y-37879476D01*
X128340169Y-37931114D01*
X128353240Y-38000897D01*
X128326509Y-38066669D01*
X128286055Y-38100027D01*
X128273607Y-38106507D01*
X128269474Y-38109610D01*
X128269471Y-38109612D01*
X128245247Y-38127800D01*
X128094965Y-38240635D01*
X127940629Y-38402138D01*
X127814743Y-38586680D01*
X127720688Y-38789305D01*
X127660989Y-39004570D01*
X127637251Y-39226695D01*
X127637548Y-39231848D01*
X127637548Y-39231851D01*
X127646283Y-39383344D01*
X127650110Y-39449715D01*
X127651247Y-39454761D01*
X127651248Y-39454767D01*
X127663203Y-39507814D01*
X127699222Y-39667639D01*
X127737461Y-39761811D01*
X127779354Y-39864981D01*
X127783266Y-39874616D01*
X127785965Y-39879020D01*
X127874207Y-40023018D01*
X127899987Y-40065088D01*
X128046250Y-40233938D01*
X128050230Y-40237242D01*
X128054981Y-40241187D01*
X128094616Y-40300090D01*
X128096113Y-40371071D01*
X128058997Y-40431593D01*
X128018725Y-40456112D01*
X127922751Y-40492091D01*
X127903295Y-40499385D01*
X127786739Y-40586739D01*
X127781358Y-40593919D01*
X127781357Y-40593920D01*
X127708451Y-40691198D01*
X127651592Y-40733713D01*
X127580773Y-40738739D01*
X127518530Y-40704728D01*
X123946228Y-37132425D01*
X120727986Y-33914183D01*
X127664389Y-33914183D01*
X127665912Y-33922607D01*
X127678292Y-33926000D01*
X128727885Y-33926000D01*
X128743124Y-33921525D01*
X128744329Y-33920135D01*
X128746000Y-33912452D01*
X128746000Y-33907885D01*
X129254000Y-33907885D01*
X129258475Y-33923124D01*
X129259865Y-33924329D01*
X129267548Y-33926000D01*
X130318344Y-33926000D01*
X130331875Y-33922027D01*
X130333180Y-33912947D01*
X130291214Y-33745875D01*
X130287894Y-33736124D01*
X130202972Y-33540814D01*
X130198105Y-33531739D01*
X130082426Y-33352926D01*
X130076136Y-33344757D01*
X129932806Y-33187240D01*
X129925273Y-33180215D01*
X129758139Y-33048222D01*
X129749552Y-33042517D01*
X129563117Y-32939599D01*
X129553705Y-32935369D01*
X129352959Y-32864280D01*
X129342988Y-32861646D01*
X129271837Y-32848972D01*
X129258540Y-32850432D01*
X129254000Y-32864989D01*
X129254000Y-33907885D01*
X128746000Y-33907885D01*
X128746000Y-32863102D01*
X128742082Y-32849758D01*
X128727806Y-32847771D01*
X128689324Y-32853660D01*
X128679288Y-32856051D01*
X128476868Y-32922212D01*
X128467359Y-32926209D01*
X128278463Y-33024542D01*
X128269738Y-33030036D01*
X128099433Y-33157905D01*
X128091726Y-33164748D01*
X127944590Y-33318717D01*
X127938104Y-33326727D01*
X127818098Y-33502649D01*
X127813000Y-33511623D01*
X127723338Y-33704783D01*
X127719775Y-33714470D01*
X127664389Y-33914183D01*
X120727986Y-33914183D01*
X120326120Y-33512317D01*
X120318977Y-33504550D01*
X120289735Y-33469947D01*
X120285329Y-33464733D01*
X120220831Y-33415421D01*
X120218415Y-33413527D01*
X120160383Y-33366868D01*
X120160382Y-33366867D01*
X120155062Y-33362590D01*
X120148943Y-33359553D01*
X120146148Y-33357765D01*
X120145787Y-33357512D01*
X120145420Y-33357310D01*
X120142562Y-33355579D01*
X120137148Y-33351440D01*
X120063536Y-33317114D01*
X120060764Y-33315780D01*
X119994096Y-33282686D01*
X119987986Y-33279653D01*
X119981365Y-33278002D01*
X119978237Y-33276851D01*
X119977844Y-33276687D01*
X119977439Y-33276568D01*
X119974275Y-33275491D01*
X119968096Y-33272610D01*
X119888800Y-33254885D01*
X119885802Y-33254176D01*
X119813621Y-33236179D01*
X119813620Y-33236179D01*
X119806999Y-33234528D01*
X119800178Y-33234337D01*
X119796875Y-33233885D01*
X119795991Y-33233726D01*
X119791108Y-33233048D01*
X119786060Y-33231920D01*
X119780337Y-33231600D01*
X119703956Y-33231600D01*
X119700437Y-33231551D01*
X119620543Y-33229319D01*
X119613839Y-33230598D01*
X119607038Y-33231145D01*
X119606996Y-33230625D01*
X119596675Y-33231600D01*
X85139385Y-33231600D01*
X85079456Y-33216436D01*
X85025459Y-33187240D01*
X84967501Y-33155902D01*
X84778568Y-33097418D01*
X84772443Y-33096774D01*
X84772442Y-33096774D01*
X84588004Y-33077389D01*
X84588002Y-33077389D01*
X84581875Y-33076745D01*
X84499376Y-33084253D01*
X84391051Y-33094111D01*
X84391048Y-33094112D01*
X84384912Y-33094670D01*
X84379006Y-33096408D01*
X84379002Y-33096409D01*
X84273876Y-33127349D01*
X84195181Y-33150510D01*
X84189723Y-33153363D01*
X84189719Y-33153365D01*
X84167946Y-33164748D01*
X84019910Y-33242140D01*
X83865775Y-33366068D01*
X83738646Y-33517574D01*
X83735679Y-33522972D01*
X83735675Y-33522977D01*
X83656895Y-33666280D01*
X83643367Y-33690887D01*
X83641506Y-33696754D01*
X83641505Y-33696756D01*
X83592734Y-33850502D01*
X83583565Y-33879406D01*
X83561519Y-34075951D01*
X83578068Y-34273034D01*
X83579767Y-34278958D01*
X83629375Y-34451962D01*
X83632583Y-34463150D01*
X83635401Y-34468632D01*
X83635402Y-34468636D01*
X83646247Y-34489738D01*
X83659594Y-34559469D01*
X83633123Y-34625346D01*
X83575238Y-34666454D01*
X83504318Y-34669741D01*
X83445085Y-34636426D01*
X83087618Y-34278958D01*
X81624655Y-32815995D01*
X81616665Y-32807215D01*
X81616663Y-32807213D01*
X81612416Y-32800520D01*
X81560742Y-32751995D01*
X81557901Y-32749241D01*
X81537333Y-32728673D01*
X81533826Y-32725953D01*
X81524830Y-32718271D01*
X81524407Y-32717874D01*
X81488424Y-32656672D01*
X81491242Y-32585731D01*
X81531966Y-32527575D01*
X81597667Y-32500669D01*
X81610634Y-32500000D01*
X111110000Y-32500000D01*
X111110000Y-26487655D01*
X128679858Y-26487655D01*
X128715104Y-26746638D01*
X128716412Y-26751124D01*
X128716412Y-26751126D01*
X128736098Y-26818664D01*
X128788243Y-26997567D01*
X128897668Y-27234928D01*
X128900231Y-27238837D01*
X129038410Y-27449596D01*
X129038414Y-27449601D01*
X129040976Y-27453509D01*
X129215018Y-27648506D01*
X129415970Y-27815637D01*
X129419973Y-27818066D01*
X129635422Y-27948804D01*
X129635426Y-27948806D01*
X129639419Y-27951229D01*
X129880455Y-28052303D01*
X130133783Y-28116641D01*
X130138434Y-28117109D01*
X130138438Y-28117110D01*
X130331308Y-28136531D01*
X130350867Y-28138500D01*
X130506354Y-28138500D01*
X130508679Y-28138327D01*
X130508685Y-28138327D01*
X130696000Y-28124407D01*
X130696004Y-28124406D01*
X130700652Y-28124061D01*
X130705200Y-28123032D01*
X130705206Y-28123031D01*
X130891601Y-28080853D01*
X130955577Y-28066377D01*
X130991769Y-28052303D01*
X131194824Y-27973340D01*
X131194827Y-27973339D01*
X131199177Y-27971647D01*
X131426098Y-27841951D01*
X131631357Y-27680138D01*
X131810443Y-27489763D01*
X131959424Y-27275009D01*
X131977262Y-27238837D01*
X132072960Y-27044781D01*
X132072961Y-27044778D01*
X132075025Y-27040593D01*
X132144060Y-26824928D01*
X132153280Y-26796123D01*
X132154707Y-26791665D01*
X132196721Y-26533693D01*
X132199242Y-26341126D01*
X132200081Y-26277022D01*
X132200081Y-26277019D01*
X132200142Y-26272345D01*
X132164896Y-26013362D01*
X132150473Y-25963877D01*
X132122242Y-25867022D01*
X132091757Y-25762433D01*
X131982332Y-25525072D01*
X131866356Y-25348179D01*
X131841590Y-25310404D01*
X131841586Y-25310399D01*
X131839024Y-25306491D01*
X131671965Y-25119318D01*
X131668097Y-25114984D01*
X131664982Y-25111494D01*
X131464030Y-24944363D01*
X131379385Y-24892999D01*
X131244578Y-24811196D01*
X131244574Y-24811194D01*
X131240581Y-24808771D01*
X130999545Y-24707697D01*
X130746217Y-24643359D01*
X130741566Y-24642891D01*
X130741562Y-24642890D01*
X130532271Y-24621816D01*
X130529133Y-24621500D01*
X130373646Y-24621500D01*
X130371321Y-24621673D01*
X130371315Y-24621673D01*
X130184000Y-24635593D01*
X130183996Y-24635594D01*
X130179348Y-24635939D01*
X130174800Y-24636968D01*
X130174794Y-24636969D01*
X130014396Y-24673264D01*
X129924423Y-24693623D01*
X129920071Y-24695315D01*
X129920069Y-24695316D01*
X129685176Y-24786660D01*
X129685173Y-24786661D01*
X129680823Y-24788353D01*
X129453902Y-24918049D01*
X129248643Y-25079862D01*
X129069557Y-25270237D01*
X128920576Y-25484991D01*
X128804975Y-25719407D01*
X128803553Y-25723850D01*
X128803552Y-25723852D01*
X128773957Y-25816307D01*
X128725293Y-25968335D01*
X128683279Y-26226307D01*
X128679858Y-26487655D01*
X111110000Y-26487655D01*
X111110000Y-22846382D01*
X111130002Y-22778261D01*
X111183658Y-22731768D01*
X111236382Y-22720383D01*
X120658568Y-22748923D01*
X134094306Y-22789619D01*
X134162364Y-22809827D01*
X134208695Y-22863623D01*
X134219923Y-22915695D01*
X134213722Y-33048222D01*
X134160227Y-120460449D01*
X134160078Y-120703274D01*
X134140034Y-120771383D01*
X134086350Y-120817843D01*
X134033277Y-120829194D01*
X124943895Y-120771383D01*
X76057039Y-120460449D01*
X75989046Y-120440015D01*
X75942896Y-120386064D01*
X75933239Y-120315727D01*
X75963142Y-120251336D01*
X75968745Y-120245357D01*
X77818697Y-118395405D01*
X77881009Y-118361379D01*
X77907792Y-118358500D01*
X78898134Y-118358500D01*
X78960316Y-118351745D01*
X79096705Y-118300615D01*
X79213261Y-118213261D01*
X79247584Y-118167464D01*
X79291549Y-118108802D01*
X79348408Y-118066287D01*
X79419227Y-118061261D01*
X79481470Y-118095272D01*
X80564280Y-119178083D01*
X80571422Y-119185849D01*
X80605071Y-119225667D01*
X80610495Y-119229814D01*
X80610496Y-119229815D01*
X80669562Y-119274974D01*
X80671979Y-119276868D01*
X80735338Y-119327810D01*
X80741457Y-119330847D01*
X80744252Y-119332635D01*
X80744613Y-119332888D01*
X80744980Y-119333090D01*
X80747838Y-119334821D01*
X80753252Y-119338960D01*
X80822991Y-119371480D01*
X80826862Y-119373285D01*
X80829633Y-119374619D01*
X80902414Y-119410747D01*
X80909035Y-119412398D01*
X80912163Y-119413549D01*
X80912556Y-119413713D01*
X80912961Y-119413832D01*
X80916125Y-119414909D01*
X80922304Y-119417790D01*
X80996098Y-119434285D01*
X81001602Y-119435515D01*
X81004598Y-119436224D01*
X81071333Y-119452863D01*
X81083401Y-119455872D01*
X81090222Y-119456063D01*
X81093525Y-119456515D01*
X81094409Y-119456674D01*
X81099292Y-119457352D01*
X81104340Y-119458480D01*
X81110063Y-119458800D01*
X81186444Y-119458800D01*
X81189963Y-119458849D01*
X81269857Y-119461081D01*
X81276561Y-119459802D01*
X81283362Y-119459255D01*
X81283404Y-119459775D01*
X81293725Y-119458800D01*
X88883310Y-119458800D01*
X88893852Y-119459242D01*
X88945799Y-119463604D01*
X88952559Y-119462702D01*
X88952561Y-119462702D01*
X89026302Y-119452863D01*
X89029357Y-119452493D01*
X89061589Y-119448991D01*
X89110137Y-119443717D01*
X89116601Y-119441542D01*
X89119876Y-119440822D01*
X89120272Y-119440752D01*
X89120696Y-119440629D01*
X89123916Y-119439838D01*
X89130689Y-119438934D01*
X89207023Y-119411151D01*
X89209898Y-119410144D01*
X89228473Y-119403893D01*
X89286923Y-119384222D01*
X89292777Y-119380704D01*
X89295784Y-119379315D01*
X89296189Y-119379148D01*
X89296565Y-119378943D01*
X89299552Y-119377473D01*
X89305968Y-119375138D01*
X89374620Y-119331570D01*
X89377089Y-119330045D01*
X89446809Y-119288153D01*
X89451766Y-119283466D01*
X89454423Y-119281449D01*
X89455169Y-119280931D01*
X89459102Y-119277956D01*
X89463459Y-119275191D01*
X89467732Y-119271370D01*
X89521710Y-119217392D01*
X89524232Y-119214938D01*
X89563205Y-119178083D01*
X89582336Y-119159992D01*
X89586174Y-119154344D01*
X89590593Y-119149152D01*
X89590992Y-119149492D01*
X89597600Y-119141502D01*
X90343699Y-118395404D01*
X90406011Y-118361379D01*
X90432794Y-118358500D01*
X91423134Y-118358500D01*
X91485316Y-118351745D01*
X91621705Y-118300615D01*
X91738261Y-118213261D01*
X91825615Y-118096705D01*
X91876745Y-117960316D01*
X91883500Y-117898134D01*
X91883500Y-116101866D01*
X91876745Y-116039684D01*
X91825615Y-115903295D01*
X91738261Y-115786739D01*
X91621705Y-115699385D01*
X91485316Y-115648255D01*
X91423134Y-115641500D01*
X89626866Y-115641500D01*
X89564684Y-115648255D01*
X89428295Y-115699385D01*
X89311739Y-115786739D01*
X89224385Y-115903295D01*
X89221233Y-115911703D01*
X89179919Y-116021907D01*
X89137277Y-116078671D01*
X89070716Y-116103371D01*
X89001367Y-116088163D01*
X88968743Y-116062476D01*
X88918151Y-116006875D01*
X88918142Y-116006866D01*
X88914670Y-116003051D01*
X88857241Y-115957697D01*
X88816180Y-115899782D01*
X88812947Y-115828859D01*
X88846239Y-115769721D01*
X92175405Y-112440555D01*
X92184185Y-112432565D01*
X92184187Y-112432563D01*
X92190880Y-112428316D01*
X92239405Y-112376642D01*
X92242159Y-112373801D01*
X92262727Y-112353233D01*
X92265447Y-112349726D01*
X92273153Y-112340704D01*
X92299344Y-112312813D01*
X92304772Y-112307033D01*
X92308594Y-112300081D01*
X92315103Y-112288242D01*
X92325957Y-112271718D01*
X92334245Y-112261032D01*
X92339104Y-112254768D01*
X92342252Y-112247494D01*
X92357454Y-112212365D01*
X92362676Y-112201705D01*
X92381105Y-112168184D01*
X92381106Y-112168182D01*
X92384924Y-112161237D01*
X92390259Y-112140459D01*
X92396658Y-112121769D01*
X92405180Y-112102076D01*
X92412406Y-112056452D01*
X92414813Y-112044829D01*
X92424328Y-112007768D01*
X92426300Y-112000088D01*
X92426300Y-111978641D01*
X92427851Y-111958931D01*
X92429966Y-111945577D01*
X92431206Y-111937748D01*
X92426859Y-111891759D01*
X92426300Y-111879904D01*
X92426300Y-103031522D01*
X99117273Y-103031522D01*
X99164764Y-103208761D01*
X99168510Y-103219053D01*
X99260586Y-103416511D01*
X99266069Y-103426007D01*
X99391028Y-103604467D01*
X99398084Y-103612875D01*
X99552125Y-103766916D01*
X99560533Y-103773972D01*
X99738993Y-103898931D01*
X99748489Y-103904414D01*
X99945947Y-103996490D01*
X99956239Y-104000236D01*
X100128503Y-104046394D01*
X100142599Y-104046058D01*
X100146000Y-104038116D01*
X100146000Y-104032967D01*
X100654000Y-104032967D01*
X100657973Y-104046498D01*
X100666522Y-104047727D01*
X100843761Y-104000236D01*
X100854053Y-103996490D01*
X101051511Y-103904414D01*
X101061007Y-103898931D01*
X101239467Y-103773972D01*
X101247875Y-103766916D01*
X101401916Y-103612875D01*
X101408972Y-103604467D01*
X101533931Y-103426007D01*
X101539414Y-103416511D01*
X101631490Y-103219053D01*
X101635236Y-103208761D01*
X101681394Y-103036497D01*
X101681058Y-103022401D01*
X101673116Y-103019000D01*
X100672115Y-103019000D01*
X100656876Y-103023475D01*
X100655671Y-103024865D01*
X100654000Y-103032548D01*
X100654000Y-104032967D01*
X100146000Y-104032967D01*
X100146000Y-103037115D01*
X100141525Y-103021876D01*
X100140135Y-103020671D01*
X100132452Y-103019000D01*
X99132033Y-103019000D01*
X99118502Y-103022973D01*
X99117273Y-103031522D01*
X92426300Y-103031522D01*
X92426300Y-101073134D01*
X99091500Y-101073134D01*
X99098255Y-101135316D01*
X99149385Y-101271705D01*
X99236739Y-101388261D01*
X99353295Y-101475615D01*
X99489684Y-101526745D01*
X99501229Y-101527999D01*
X99503910Y-101529113D01*
X99505222Y-101529425D01*
X99505172Y-101529637D01*
X99566790Y-101555238D01*
X99607218Y-101613599D01*
X99609677Y-101684553D01*
X99573384Y-101745572D01*
X99562775Y-101754147D01*
X99552125Y-101763084D01*
X99398084Y-101917125D01*
X99391028Y-101925533D01*
X99266069Y-102103993D01*
X99260586Y-102113489D01*
X99168510Y-102310947D01*
X99164764Y-102321239D01*
X99118606Y-102493503D01*
X99118942Y-102507599D01*
X99126884Y-102511000D01*
X101667967Y-102511000D01*
X101681498Y-102507027D01*
X101682727Y-102498478D01*
X101635236Y-102321239D01*
X101631490Y-102310947D01*
X101539414Y-102113489D01*
X101533931Y-102103993D01*
X101408972Y-101925533D01*
X101401916Y-101917125D01*
X101247875Y-101763084D01*
X101235254Y-101752493D01*
X101236108Y-101751475D01*
X101195776Y-101701016D01*
X101188468Y-101630397D01*
X101220500Y-101567037D01*
X101281702Y-101531053D01*
X101298762Y-101528000D01*
X101310316Y-101526745D01*
X101446705Y-101475615D01*
X101563261Y-101388261D01*
X101650615Y-101271705D01*
X101701745Y-101135316D01*
X101708500Y-101073134D01*
X101708500Y-99376866D01*
X101701745Y-99314684D01*
X101650615Y-99178295D01*
X101563261Y-99061739D01*
X101446705Y-98974385D01*
X101310316Y-98923255D01*
X101248134Y-98916500D01*
X99551866Y-98916500D01*
X99489684Y-98923255D01*
X99353295Y-98974385D01*
X99236739Y-99061739D01*
X99149385Y-99178295D01*
X99098255Y-99314684D01*
X99091500Y-99376866D01*
X99091500Y-101073134D01*
X92426300Y-101073134D01*
X92426300Y-85858056D01*
X92426859Y-85846200D01*
X92426859Y-85846197D01*
X92428588Y-85838463D01*
X92426362Y-85767631D01*
X92426300Y-85763673D01*
X92426300Y-85734568D01*
X92425744Y-85730168D01*
X92424812Y-85718330D01*
X92423611Y-85680094D01*
X92423362Y-85672169D01*
X92417380Y-85651579D01*
X92413370Y-85632216D01*
X92411675Y-85618796D01*
X92411675Y-85618795D01*
X92410682Y-85610936D01*
X92407766Y-85603571D01*
X92407765Y-85603567D01*
X92393674Y-85567979D01*
X92389835Y-85556769D01*
X92376945Y-85512400D01*
X92366029Y-85493943D01*
X92357334Y-85476193D01*
X92349435Y-85456244D01*
X92322277Y-85418864D01*
X92315760Y-85408943D01*
X92310093Y-85399361D01*
X92292252Y-85369193D01*
X92277091Y-85354032D01*
X92264249Y-85338997D01*
X92251641Y-85321643D01*
X92245537Y-85316593D01*
X92245535Y-85316591D01*
X92216037Y-85292188D01*
X92207259Y-85284199D01*
X91102255Y-84179195D01*
X91068229Y-84116883D01*
X91073294Y-84046068D01*
X91115841Y-83989232D01*
X91182361Y-83964421D01*
X91191350Y-83964100D01*
X126407508Y-83964100D01*
X126475629Y-83984102D01*
X126496603Y-84001005D01*
X126613374Y-84117776D01*
X126620516Y-84125542D01*
X126654171Y-84165367D01*
X126659590Y-84169510D01*
X126659592Y-84169512D01*
X126718708Y-84214710D01*
X126721129Y-84216609D01*
X126779118Y-84263232D01*
X126784438Y-84267509D01*
X126790550Y-84270543D01*
X126793344Y-84272330D01*
X126793704Y-84272582D01*
X126794073Y-84272785D01*
X126796934Y-84274517D01*
X126802352Y-84278660D01*
X126875977Y-84312992D01*
X126878751Y-84314327D01*
X126944081Y-84346757D01*
X126951514Y-84350447D01*
X126958135Y-84352098D01*
X126961263Y-84353249D01*
X126961656Y-84353413D01*
X126962061Y-84353532D01*
X126965225Y-84354609D01*
X126971404Y-84357490D01*
X127045198Y-84373985D01*
X127050702Y-84375215D01*
X127053700Y-84375924D01*
X127132501Y-84395572D01*
X127139322Y-84395763D01*
X127142625Y-84396215D01*
X127143509Y-84396374D01*
X127148392Y-84397052D01*
X127153440Y-84398180D01*
X127159163Y-84398500D01*
X127235544Y-84398500D01*
X127239063Y-84398549D01*
X127318957Y-84400781D01*
X127325661Y-84399502D01*
X127332462Y-84398955D01*
X127332504Y-84399475D01*
X127342825Y-84398500D01*
X127707055Y-84398500D01*
X127775176Y-84418502D01*
X127807815Y-84448847D01*
X127848622Y-84503197D01*
X127856223Y-84513320D01*
X127859961Y-84516892D01*
X127995380Y-84646301D01*
X128029912Y-84679301D01*
X128066903Y-84704535D01*
X128111904Y-84759444D01*
X128120075Y-84829968D01*
X128088821Y-84893716D01*
X128064340Y-84914411D01*
X128062707Y-84915468D01*
X128058023Y-84918498D01*
X127880330Y-85080186D01*
X127877131Y-85084237D01*
X127877127Y-85084241D01*
X127806562Y-85173592D01*
X127748645Y-85214655D01*
X127707680Y-85221500D01*
X122530791Y-85221500D01*
X122520248Y-85221058D01*
X122468302Y-85216696D01*
X122461542Y-85217598D01*
X122461539Y-85217598D01*
X122387795Y-85227437D01*
X122384741Y-85227807D01*
X122345380Y-85232083D01*
X122303963Y-85236583D01*
X122297492Y-85238761D01*
X122294252Y-85239473D01*
X122293817Y-85239550D01*
X122293417Y-85239666D01*
X122290174Y-85240463D01*
X122283412Y-85241365D01*
X122207038Y-85269162D01*
X122204217Y-85270151D01*
X122175311Y-85279879D01*
X122133647Y-85293900D01*
X122133642Y-85293902D01*
X122127177Y-85296078D01*
X122121324Y-85299595D01*
X122118316Y-85300985D01*
X122117911Y-85301152D01*
X122117535Y-85301357D01*
X122114548Y-85302827D01*
X122108132Y-85305162D01*
X122039480Y-85348730D01*
X122037011Y-85350255D01*
X121967291Y-85392147D01*
X121962334Y-85396834D01*
X121959677Y-85398851D01*
X121958943Y-85399361D01*
X121955005Y-85402339D01*
X121950641Y-85405109D01*
X121946368Y-85408929D01*
X121892372Y-85462925D01*
X121889850Y-85465379D01*
X121831764Y-85520308D01*
X121827926Y-85525956D01*
X121823507Y-85531148D01*
X121823107Y-85530808D01*
X121816500Y-85538797D01*
X100882217Y-106473080D01*
X100874451Y-106480222D01*
X100834633Y-106513871D01*
X100830486Y-106519295D01*
X100830485Y-106519296D01*
X100785326Y-106578362D01*
X100783427Y-106580785D01*
X100754810Y-106616378D01*
X100732490Y-106644138D01*
X100729453Y-106650257D01*
X100727665Y-106653052D01*
X100727412Y-106653413D01*
X100727210Y-106653780D01*
X100725479Y-106656638D01*
X100721340Y-106662052D01*
X100689178Y-106731024D01*
X100687015Y-106735662D01*
X100685681Y-106738433D01*
X100649553Y-106811214D01*
X100647902Y-106817835D01*
X100646751Y-106820963D01*
X100646587Y-106821356D01*
X100646468Y-106821761D01*
X100645391Y-106824925D01*
X100642510Y-106831104D01*
X100631299Y-106881261D01*
X100624785Y-106910402D01*
X100624076Y-106913398D01*
X100604428Y-106992201D01*
X100604237Y-106999022D01*
X100603785Y-107002325D01*
X100603626Y-107003209D01*
X100602948Y-107008092D01*
X100601820Y-107013140D01*
X100601500Y-107018863D01*
X100601500Y-107095244D01*
X100601451Y-107098763D01*
X100599219Y-107178657D01*
X100600498Y-107185361D01*
X100601045Y-107192162D01*
X100600525Y-107192204D01*
X100601500Y-107202525D01*
X100601500Y-112865500D01*
X100581498Y-112933621D01*
X100527842Y-112980114D01*
X100475500Y-112991500D01*
X99911866Y-112991500D01*
X99849684Y-112998255D01*
X99713295Y-113049385D01*
X99596739Y-113136739D01*
X99509385Y-113253295D01*
X99458255Y-113389684D01*
X99451500Y-113451866D01*
X99451500Y-116548134D01*
X99458255Y-116610316D01*
X99509385Y-116746705D01*
X99596739Y-116863261D01*
X99713295Y-116950615D01*
X99849684Y-117001745D01*
X99911866Y-117008500D01*
X103008134Y-117008500D01*
X103070316Y-117001745D01*
X103206705Y-116950615D01*
X103323261Y-116863261D01*
X103410615Y-116746705D01*
X103461745Y-116610316D01*
X103463990Y-116589654D01*
X105315618Y-116589654D01*
X105322673Y-116599627D01*
X105353679Y-116625551D01*
X105360598Y-116630579D01*
X105585272Y-116771515D01*
X105592807Y-116775556D01*
X105834520Y-116884694D01*
X105842551Y-116887680D01*
X106096832Y-116963002D01*
X106105184Y-116964869D01*
X106367340Y-117004984D01*
X106375874Y-117005700D01*
X106641045Y-117009867D01*
X106649596Y-117009418D01*
X106912883Y-116977557D01*
X106921284Y-116975955D01*
X107177824Y-116908653D01*
X107185926Y-116905926D01*
X107430949Y-116804434D01*
X107438617Y-116800628D01*
X107667598Y-116666822D01*
X107674679Y-116662009D01*
X107754655Y-116599301D01*
X107763125Y-116587442D01*
X107756608Y-116575818D01*
X106552812Y-115372022D01*
X106538868Y-115364408D01*
X106537035Y-115364539D01*
X106530420Y-115368790D01*
X105322910Y-116576300D01*
X105315618Y-116589654D01*
X103463990Y-116589654D01*
X103468500Y-116548134D01*
X103468500Y-114983204D01*
X104527665Y-114983204D01*
X104542932Y-115247969D01*
X104544005Y-115256470D01*
X104595065Y-115516722D01*
X104597276Y-115524974D01*
X104683184Y-115775894D01*
X104686499Y-115783779D01*
X104805664Y-116020713D01*
X104810020Y-116028079D01*
X104939347Y-116216250D01*
X104949601Y-116224594D01*
X104963342Y-116217448D01*
X106167978Y-115012812D01*
X106174356Y-115001132D01*
X106904408Y-115001132D01*
X106904539Y-115002965D01*
X106908790Y-115009580D01*
X108115730Y-116216520D01*
X108127939Y-116223187D01*
X108139439Y-116214497D01*
X108236831Y-116081913D01*
X108241418Y-116074685D01*
X108367962Y-115841621D01*
X108371530Y-115833827D01*
X108465271Y-115585750D01*
X108467748Y-115577544D01*
X108526954Y-115319038D01*
X108528294Y-115310577D01*
X108552031Y-115044616D01*
X108552277Y-115039677D01*
X108552666Y-115002485D01*
X108552523Y-114997519D01*
X108534362Y-114731123D01*
X108533201Y-114722649D01*
X108479419Y-114462944D01*
X108477120Y-114454709D01*
X108388588Y-114204705D01*
X108385191Y-114196854D01*
X108263550Y-113961178D01*
X108259122Y-113953866D01*
X108140031Y-113784417D01*
X108129509Y-113776037D01*
X108116121Y-113783089D01*
X106912022Y-114987188D01*
X106904408Y-115001132D01*
X106174356Y-115001132D01*
X106175592Y-114998868D01*
X106175461Y-114997035D01*
X106171210Y-114990420D01*
X104963814Y-113783024D01*
X104951804Y-113776466D01*
X104940064Y-113785434D01*
X104831935Y-113935911D01*
X104827418Y-113943196D01*
X104703325Y-114177567D01*
X104699839Y-114185395D01*
X104608700Y-114434446D01*
X104606311Y-114442670D01*
X104549812Y-114701795D01*
X104548563Y-114710250D01*
X104527754Y-114974653D01*
X104527665Y-114983204D01*
X103468500Y-114983204D01*
X103468500Y-113451866D01*
X103464224Y-113412500D01*
X105316584Y-113412500D01*
X105322980Y-113423770D01*
X106527188Y-114627978D01*
X106541132Y-114635592D01*
X106542965Y-114635461D01*
X106549580Y-114631210D01*
X107756604Y-113424186D01*
X107763795Y-113411017D01*
X107756473Y-113400780D01*
X107709233Y-113362115D01*
X107702261Y-113357160D01*
X107476122Y-113218582D01*
X107468552Y-113214624D01*
X107225704Y-113108022D01*
X107217644Y-113105120D01*
X106962592Y-113032467D01*
X106954214Y-113030685D01*
X106691656Y-112993318D01*
X106683111Y-112992691D01*
X106417908Y-112991302D01*
X106409374Y-112991839D01*
X106146433Y-113026456D01*
X106138035Y-113028149D01*
X105882238Y-113098127D01*
X105874143Y-113100946D01*
X105630199Y-113204997D01*
X105622577Y-113208881D01*
X105395013Y-113345075D01*
X105387981Y-113349962D01*
X105325053Y-113400377D01*
X105316584Y-113412500D01*
X103464224Y-113412500D01*
X103461745Y-113389684D01*
X103410615Y-113253295D01*
X103323261Y-113136739D01*
X103206705Y-113049385D01*
X103070316Y-112998255D01*
X103008134Y-112991500D01*
X102444500Y-112991500D01*
X102376379Y-112971498D01*
X102329886Y-112917842D01*
X102318500Y-112865500D01*
X102318500Y-107517192D01*
X102338502Y-107449071D01*
X102355405Y-107428097D01*
X109129638Y-100653864D01*
X109191950Y-100619838D01*
X109262765Y-100624903D01*
X109319601Y-100667450D01*
X109332927Y-100689708D01*
X109422477Y-100881749D01*
X109425634Y-100886257D01*
X109549262Y-101062816D01*
X109553802Y-101069300D01*
X109715700Y-101231198D01*
X109720208Y-101234355D01*
X109720211Y-101234357D01*
X109761542Y-101263297D01*
X109903251Y-101362523D01*
X109908233Y-101364846D01*
X109908238Y-101364849D01*
X109942457Y-101380805D01*
X109995742Y-101427722D01*
X110015203Y-101495999D01*
X109994661Y-101563959D01*
X109942457Y-101609195D01*
X109908238Y-101625151D01*
X109908233Y-101625154D01*
X109903251Y-101627477D01*
X109811817Y-101691500D01*
X109720211Y-101755643D01*
X109720208Y-101755645D01*
X109715700Y-101758802D01*
X109553802Y-101920700D01*
X109550645Y-101925208D01*
X109550643Y-101925211D01*
X109525091Y-101961703D01*
X109422477Y-102108251D01*
X109420154Y-102113233D01*
X109420151Y-102113238D01*
X109364541Y-102232496D01*
X109325716Y-102315757D01*
X109324294Y-102321065D01*
X109324293Y-102321067D01*
X109293031Y-102437737D01*
X109266457Y-102536913D01*
X109246502Y-102765000D01*
X109266457Y-102993087D01*
X109267881Y-102998400D01*
X109267881Y-102998402D01*
X109312620Y-103165367D01*
X109325716Y-103214243D01*
X109328039Y-103219224D01*
X109328039Y-103219225D01*
X109420151Y-103416762D01*
X109420154Y-103416767D01*
X109422477Y-103421749D01*
X109553802Y-103609300D01*
X109715700Y-103771198D01*
X109720208Y-103774355D01*
X109720211Y-103774357D01*
X109798389Y-103829098D01*
X109903251Y-103902523D01*
X109908233Y-103904846D01*
X109908238Y-103904849D01*
X110104765Y-103996490D01*
X110110757Y-103999284D01*
X110116065Y-104000706D01*
X110116067Y-104000707D01*
X110326598Y-104057119D01*
X110326600Y-104057119D01*
X110331913Y-104058543D01*
X110560000Y-104078498D01*
X110788087Y-104058543D01*
X110793400Y-104057119D01*
X110793402Y-104057119D01*
X111003933Y-104000707D01*
X111003935Y-104000706D01*
X111009243Y-103999284D01*
X111015235Y-103996490D01*
X111211762Y-103904849D01*
X111211767Y-103904846D01*
X111216749Y-103902523D01*
X111321611Y-103829098D01*
X111399789Y-103774357D01*
X111399792Y-103774355D01*
X111404300Y-103771198D01*
X111566198Y-103609300D01*
X111697523Y-103421749D01*
X111699846Y-103416767D01*
X111699849Y-103416762D01*
X111791961Y-103219225D01*
X111791961Y-103219224D01*
X111794284Y-103214243D01*
X111807381Y-103165367D01*
X111852119Y-102998402D01*
X111852119Y-102998400D01*
X111853543Y-102993087D01*
X111873498Y-102765000D01*
X111853543Y-102536913D01*
X111826969Y-102437737D01*
X111795707Y-102321067D01*
X111795706Y-102321065D01*
X111794284Y-102315757D01*
X111755459Y-102232496D01*
X111699849Y-102113238D01*
X111699846Y-102113233D01*
X111697523Y-102108251D01*
X111594909Y-101961703D01*
X111569357Y-101925211D01*
X111569355Y-101925208D01*
X111566198Y-101920700D01*
X111404300Y-101758802D01*
X111399792Y-101755645D01*
X111399789Y-101755643D01*
X111308183Y-101691500D01*
X111216749Y-101627477D01*
X111211767Y-101625154D01*
X111211762Y-101625151D01*
X111177543Y-101609195D01*
X111124258Y-101562278D01*
X111104797Y-101494001D01*
X111125339Y-101426041D01*
X111177543Y-101380805D01*
X111211762Y-101364849D01*
X111211767Y-101364846D01*
X111216749Y-101362523D01*
X111358458Y-101263297D01*
X111399789Y-101234357D01*
X111399792Y-101234355D01*
X111404300Y-101231198D01*
X111515093Y-101120405D01*
X111577405Y-101086379D01*
X111604188Y-101083500D01*
X111702508Y-101083500D01*
X111770629Y-101103502D01*
X111791603Y-101120405D01*
X113788974Y-103117776D01*
X113796116Y-103125542D01*
X113829771Y-103165367D01*
X113835190Y-103169510D01*
X113835192Y-103169512D01*
X113894308Y-103214710D01*
X113896729Y-103216609D01*
X113954718Y-103263232D01*
X113960038Y-103267509D01*
X113966150Y-103270543D01*
X113968944Y-103272330D01*
X113969304Y-103272582D01*
X113969673Y-103272785D01*
X113972534Y-103274517D01*
X113977952Y-103278660D01*
X113984135Y-103281543D01*
X113984138Y-103281545D01*
X114051568Y-103312989D01*
X114054341Y-103314323D01*
X114121000Y-103347413D01*
X114121004Y-103347415D01*
X114127113Y-103350447D01*
X114133732Y-103352097D01*
X114136868Y-103353251D01*
X114137257Y-103353413D01*
X114137679Y-103353537D01*
X114140819Y-103354606D01*
X114147004Y-103357490D01*
X114222381Y-103374338D01*
X114226298Y-103375214D01*
X114229296Y-103375923D01*
X114308101Y-103395572D01*
X114314922Y-103395763D01*
X114318225Y-103396215D01*
X114319109Y-103396374D01*
X114323992Y-103397052D01*
X114329040Y-103398180D01*
X114334763Y-103398500D01*
X114411144Y-103398500D01*
X114414663Y-103398549D01*
X114494557Y-103400781D01*
X114501261Y-103399502D01*
X114508062Y-103398955D01*
X114508104Y-103399475D01*
X114518425Y-103398500D01*
X128707055Y-103398500D01*
X128775176Y-103418502D01*
X128807815Y-103448847D01*
X128853118Y-103509185D01*
X128856223Y-103513320D01*
X129029912Y-103679301D01*
X129066903Y-103704535D01*
X129111904Y-103759444D01*
X129120075Y-103829968D01*
X129088821Y-103893716D01*
X129064340Y-103914411D01*
X129062707Y-103915468D01*
X129058023Y-103918498D01*
X128880330Y-104080186D01*
X128877131Y-104084237D01*
X128877127Y-104084241D01*
X128806562Y-104173592D01*
X128748645Y-104214655D01*
X128707680Y-104221500D01*
X127249790Y-104221500D01*
X127239247Y-104221058D01*
X127187301Y-104216696D01*
X127180541Y-104217598D01*
X127180539Y-104217598D01*
X127106798Y-104227437D01*
X127103743Y-104227807D01*
X127071511Y-104231309D01*
X127022963Y-104236583D01*
X127016499Y-104238758D01*
X127013224Y-104239478D01*
X127012828Y-104239548D01*
X127012404Y-104239671D01*
X127009184Y-104240462D01*
X127002411Y-104241366D01*
X126926077Y-104269149D01*
X126923202Y-104270156D01*
X126909290Y-104274838D01*
X126846177Y-104296078D01*
X126840323Y-104299596D01*
X126837316Y-104300985D01*
X126836911Y-104301152D01*
X126836535Y-104301357D01*
X126833548Y-104302827D01*
X126827132Y-104305162D01*
X126758480Y-104348730D01*
X126756011Y-104350255D01*
X126686291Y-104392147D01*
X126681334Y-104396834D01*
X126678677Y-104398851D01*
X126677943Y-104399361D01*
X126674005Y-104402339D01*
X126669641Y-104405109D01*
X126665368Y-104408929D01*
X126611372Y-104462925D01*
X126608850Y-104465379D01*
X126550764Y-104520308D01*
X126546926Y-104525956D01*
X126542507Y-104531148D01*
X126542107Y-104530808D01*
X126535500Y-104538797D01*
X117660895Y-113413402D01*
X117598583Y-113447428D01*
X117527768Y-113442363D01*
X117470932Y-113399816D01*
X117453818Y-113368537D01*
X117413767Y-113261703D01*
X117410615Y-113253295D01*
X117323261Y-113136739D01*
X117206705Y-113049385D01*
X117070316Y-112998255D01*
X117008134Y-112991500D01*
X113911866Y-112991500D01*
X113849684Y-112998255D01*
X113713295Y-113049385D01*
X113596739Y-113136739D01*
X113509385Y-113253295D01*
X113458255Y-113389684D01*
X113451500Y-113451866D01*
X113451500Y-116548134D01*
X113458255Y-116610316D01*
X113509385Y-116746705D01*
X113596739Y-116863261D01*
X113713295Y-116950615D01*
X113849684Y-117001745D01*
X113911866Y-117008500D01*
X117008134Y-117008500D01*
X117070316Y-117001745D01*
X117206705Y-116950615D01*
X117323261Y-116863261D01*
X117410615Y-116746705D01*
X117461745Y-116610316D01*
X117463990Y-116589654D01*
X119315618Y-116589654D01*
X119322673Y-116599627D01*
X119353679Y-116625551D01*
X119360598Y-116630579D01*
X119585272Y-116771515D01*
X119592807Y-116775556D01*
X119834520Y-116884694D01*
X119842551Y-116887680D01*
X120096832Y-116963002D01*
X120105184Y-116964869D01*
X120367340Y-117004984D01*
X120375874Y-117005700D01*
X120641045Y-117009867D01*
X120649596Y-117009418D01*
X120912883Y-116977557D01*
X120921284Y-116975955D01*
X121177824Y-116908653D01*
X121185926Y-116905926D01*
X121430949Y-116804434D01*
X121438617Y-116800628D01*
X121667598Y-116666822D01*
X121674679Y-116662009D01*
X121754655Y-116599301D01*
X121763125Y-116587442D01*
X121756608Y-116575818D01*
X120552812Y-115372022D01*
X120538868Y-115364408D01*
X120537035Y-115364539D01*
X120530420Y-115368790D01*
X119322910Y-116576300D01*
X119315618Y-116589654D01*
X117463990Y-116589654D01*
X117468500Y-116548134D01*
X117468500Y-115984500D01*
X117488502Y-115916379D01*
X117542158Y-115869886D01*
X117594500Y-115858500D01*
X117629290Y-115858500D01*
X117649869Y-115860192D01*
X117655358Y-115861101D01*
X117655361Y-115861101D01*
X117662095Y-115862216D01*
X117668911Y-115861859D01*
X117668915Y-115861859D01*
X117729693Y-115858673D01*
X117736288Y-115858500D01*
X117756896Y-115858500D01*
X117775698Y-115856457D01*
X117782696Y-115855895D01*
X117848367Y-115852453D01*
X117854944Y-115850641D01*
X117854947Y-115850641D01*
X117861914Y-115848722D01*
X117881766Y-115844935D01*
X117888958Y-115844154D01*
X117888962Y-115844153D01*
X117895737Y-115843417D01*
X117958079Y-115822437D01*
X117964798Y-115820383D01*
X118021614Y-115804734D01*
X118021618Y-115804732D01*
X118028198Y-115802920D01*
X118040632Y-115796364D01*
X118059203Y-115788405D01*
X118072523Y-115783922D01*
X118128897Y-115750049D01*
X118135010Y-115746606D01*
X118187154Y-115719113D01*
X118187163Y-115719107D01*
X118193198Y-115715925D01*
X118198410Y-115711521D01*
X118198417Y-115711516D01*
X118203935Y-115706853D01*
X118220358Y-115695095D01*
X118226564Y-115691366D01*
X118226569Y-115691362D01*
X118232409Y-115687853D01*
X118274283Y-115648255D01*
X118280193Y-115642666D01*
X118285438Y-115637976D01*
X118330452Y-115599936D01*
X118335667Y-115595529D01*
X118344200Y-115584367D01*
X118357722Y-115569351D01*
X118362977Y-115564381D01*
X118367936Y-115559692D01*
X118386609Y-115532215D01*
X118441442Y-115487116D01*
X118511952Y-115478821D01*
X118575754Y-115509964D01*
X118610029Y-115562224D01*
X118683184Y-115775894D01*
X118686499Y-115783779D01*
X118805664Y-116020713D01*
X118810020Y-116028079D01*
X118939347Y-116216250D01*
X118949601Y-116224594D01*
X118963342Y-116217448D01*
X120179658Y-115001132D01*
X120904408Y-115001132D01*
X120904539Y-115002965D01*
X120908790Y-115009580D01*
X122115730Y-116216520D01*
X122127939Y-116223187D01*
X122139439Y-116214497D01*
X122236831Y-116081913D01*
X122241418Y-116074685D01*
X122367962Y-115841621D01*
X122371530Y-115833827D01*
X122465271Y-115585750D01*
X122467748Y-115577544D01*
X122526954Y-115319038D01*
X122528294Y-115310577D01*
X122552031Y-115044616D01*
X122552277Y-115039677D01*
X122552666Y-115002485D01*
X122552523Y-114997519D01*
X122534362Y-114731123D01*
X122533201Y-114722649D01*
X122509387Y-114607655D01*
X128739858Y-114607655D01*
X128775104Y-114866638D01*
X128776412Y-114871124D01*
X128776412Y-114871126D01*
X128794651Y-114933702D01*
X128848243Y-115117567D01*
X128850203Y-115121820D01*
X128850204Y-115121821D01*
X128866029Y-115156148D01*
X128957668Y-115354928D01*
X128981197Y-115390816D01*
X129098410Y-115569596D01*
X129098414Y-115569601D01*
X129100976Y-115573509D01*
X129275018Y-115768506D01*
X129475970Y-115935637D01*
X129479973Y-115938066D01*
X129695422Y-116068804D01*
X129695426Y-116068806D01*
X129699419Y-116071229D01*
X129940455Y-116172303D01*
X130193783Y-116236641D01*
X130198434Y-116237109D01*
X130198438Y-116237110D01*
X130391308Y-116256531D01*
X130410867Y-116258500D01*
X130566354Y-116258500D01*
X130568679Y-116258327D01*
X130568685Y-116258327D01*
X130756000Y-116244407D01*
X130756004Y-116244406D01*
X130760652Y-116244061D01*
X130765200Y-116243032D01*
X130765206Y-116243031D01*
X131001541Y-116189553D01*
X131015577Y-116186377D01*
X131050167Y-116172926D01*
X131254824Y-116093340D01*
X131254827Y-116093339D01*
X131259177Y-116091647D01*
X131280959Y-116079198D01*
X131383286Y-116020713D01*
X131486098Y-115961951D01*
X131691357Y-115800138D01*
X131870443Y-115609763D01*
X132019424Y-115395009D01*
X132045717Y-115341692D01*
X132132960Y-115164781D01*
X132132961Y-115164778D01*
X132135025Y-115160593D01*
X132171001Y-115048205D01*
X132213280Y-114916123D01*
X132214707Y-114911665D01*
X132256721Y-114653693D01*
X132260142Y-114392345D01*
X132224896Y-114133362D01*
X132210473Y-114083877D01*
X132164736Y-113926962D01*
X132151757Y-113882433D01*
X132042332Y-113645072D01*
X131915661Y-113451866D01*
X131901590Y-113430404D01*
X131901586Y-113430399D01*
X131899024Y-113426491D01*
X131724982Y-113231494D01*
X131524030Y-113064363D01*
X131461561Y-113026456D01*
X131304578Y-112931196D01*
X131304574Y-112931194D01*
X131300581Y-112928771D01*
X131059545Y-112827697D01*
X130806217Y-112763359D01*
X130801566Y-112762891D01*
X130801562Y-112762890D01*
X130592271Y-112741816D01*
X130589133Y-112741500D01*
X130433646Y-112741500D01*
X130431321Y-112741673D01*
X130431315Y-112741673D01*
X130244000Y-112755593D01*
X130243996Y-112755594D01*
X130239348Y-112755939D01*
X130234800Y-112756968D01*
X130234794Y-112756969D01*
X130048399Y-112799147D01*
X129984423Y-112813623D01*
X129980071Y-112815315D01*
X129980069Y-112815316D01*
X129745176Y-112906660D01*
X129745173Y-112906661D01*
X129740823Y-112908353D01*
X129736769Y-112910670D01*
X129736767Y-112910671D01*
X129708264Y-112926962D01*
X129513902Y-113038049D01*
X129308643Y-113199862D01*
X129129557Y-113390237D01*
X128980576Y-113604991D01*
X128978510Y-113609181D01*
X128978508Y-113609184D01*
X128869859Y-113829504D01*
X128864975Y-113839407D01*
X128863553Y-113843850D01*
X128863552Y-113843852D01*
X128835593Y-113931196D01*
X128785293Y-114088335D01*
X128743279Y-114346307D01*
X128739858Y-114607655D01*
X122509387Y-114607655D01*
X122479419Y-114462944D01*
X122477120Y-114454709D01*
X122388588Y-114204705D01*
X122385191Y-114196854D01*
X122263550Y-113961178D01*
X122259122Y-113953866D01*
X122140031Y-113784417D01*
X122129509Y-113776037D01*
X122116121Y-113783089D01*
X120912022Y-114987188D01*
X120904408Y-115001132D01*
X120179658Y-115001132D01*
X121756604Y-113424186D01*
X121763795Y-113411017D01*
X121756473Y-113400780D01*
X121709233Y-113362115D01*
X121702261Y-113357160D01*
X121476122Y-113218582D01*
X121468552Y-113214624D01*
X121225704Y-113108022D01*
X121217644Y-113105120D01*
X120962592Y-113032467D01*
X120954214Y-113030685D01*
X120781567Y-113006114D01*
X120716945Y-112976713D01*
X120678476Y-112917042D01*
X120678374Y-112846045D01*
X120710226Y-112792276D01*
X123490037Y-110012466D01*
X127527098Y-105975405D01*
X127589410Y-105941379D01*
X127616193Y-105938500D01*
X128707055Y-105938500D01*
X128775176Y-105958502D01*
X128807815Y-105988847D01*
X128856223Y-106053320D01*
X129029912Y-106219301D01*
X129228378Y-106354686D01*
X129233061Y-106356860D01*
X129233065Y-106356862D01*
X129441595Y-106453658D01*
X129441599Y-106453659D01*
X129446290Y-106455837D01*
X129677798Y-106520040D01*
X129682935Y-106520589D01*
X129870593Y-106540644D01*
X129870601Y-106540644D01*
X129873928Y-106541000D01*
X130108402Y-106541000D01*
X130110975Y-106540788D01*
X130110986Y-106540788D01*
X130211946Y-106532487D01*
X130286937Y-106526322D01*
X130519944Y-106467794D01*
X130689473Y-106394081D01*
X130735526Y-106374057D01*
X130735529Y-106374055D01*
X130740263Y-106371997D01*
X130941977Y-106241502D01*
X131119670Y-106079814D01*
X131231273Y-105938500D01*
X131265367Y-105895330D01*
X131265370Y-105895325D01*
X131268568Y-105891276D01*
X131359356Y-105726815D01*
X131382177Y-105685474D01*
X131382179Y-105685470D01*
X131384674Y-105680950D01*
X131398192Y-105642779D01*
X131463144Y-105459360D01*
X131463145Y-105459356D01*
X131464870Y-105454485D01*
X131479325Y-105373337D01*
X131506095Y-105223052D01*
X131506096Y-105223046D01*
X131507001Y-105217963D01*
X131509093Y-105046705D01*
X131509873Y-104982907D01*
X131509873Y-104982905D01*
X131509936Y-104977737D01*
X131473596Y-104740256D01*
X131418509Y-104571716D01*
X131400566Y-104516817D01*
X131400563Y-104516811D01*
X131398958Y-104511899D01*
X131381262Y-104477904D01*
X131290416Y-104303393D01*
X131288025Y-104298800D01*
X131241311Y-104236583D01*
X131146882Y-104110815D01*
X131146880Y-104110812D01*
X131143777Y-104106680D01*
X131020545Y-103988917D01*
X130973825Y-103944270D01*
X130973824Y-103944269D01*
X130970088Y-103940699D01*
X130933097Y-103915465D01*
X130888096Y-103860556D01*
X130879925Y-103790032D01*
X130911179Y-103726284D01*
X130935660Y-103705589D01*
X130937635Y-103704311D01*
X130941977Y-103701502D01*
X131119670Y-103539814D01*
X131215476Y-103418502D01*
X131265367Y-103355330D01*
X131265370Y-103355325D01*
X131268568Y-103351276D01*
X131288968Y-103314323D01*
X131382177Y-103145474D01*
X131382179Y-103145470D01*
X131384674Y-103140950D01*
X131386572Y-103135592D01*
X131463144Y-102919360D01*
X131463145Y-102919356D01*
X131464870Y-102914485D01*
X131490522Y-102770475D01*
X131506095Y-102683052D01*
X131506096Y-102683046D01*
X131507001Y-102677963D01*
X131509041Y-102511000D01*
X131509873Y-102442907D01*
X131509873Y-102442905D01*
X131509936Y-102437737D01*
X131473596Y-102200256D01*
X131421853Y-102041947D01*
X131400566Y-101976817D01*
X131400563Y-101976811D01*
X131398958Y-101971899D01*
X131393651Y-101961703D01*
X131290416Y-101763393D01*
X131288025Y-101758800D01*
X131171585Y-101603717D01*
X131146680Y-101537235D01*
X131161672Y-101467839D01*
X131211802Y-101417565D01*
X131228115Y-101410085D01*
X131238293Y-101406269D01*
X131238296Y-101406267D01*
X131246705Y-101403115D01*
X131363261Y-101315761D01*
X131450615Y-101199205D01*
X131501745Y-101062816D01*
X131508500Y-101000634D01*
X131508500Y-98999366D01*
X131501745Y-98937184D01*
X131450615Y-98800795D01*
X131363261Y-98684239D01*
X131246705Y-98596885D01*
X131110316Y-98545755D01*
X131048134Y-98539000D01*
X128951866Y-98539000D01*
X128889684Y-98545755D01*
X128753295Y-98596885D01*
X128636739Y-98684239D01*
X128549385Y-98800795D01*
X128498255Y-98937184D01*
X128491500Y-98999366D01*
X128491500Y-101000634D01*
X128498255Y-101062816D01*
X128549385Y-101199205D01*
X128636739Y-101315761D01*
X128753295Y-101403115D01*
X128773189Y-101410573D01*
X128829953Y-101453213D01*
X128854654Y-101519774D01*
X128839447Y-101589123D01*
X128827842Y-101606647D01*
X128806562Y-101633592D01*
X128748645Y-101674655D01*
X128707680Y-101681500D01*
X114833092Y-101681500D01*
X114764971Y-101661498D01*
X114743997Y-101644595D01*
X113753267Y-100653864D01*
X112746620Y-99647217D01*
X112739477Y-99639450D01*
X112710235Y-99604847D01*
X112705829Y-99599633D01*
X112641331Y-99550321D01*
X112638915Y-99548427D01*
X112580883Y-99501768D01*
X112580882Y-99501767D01*
X112575562Y-99497490D01*
X112569443Y-99494453D01*
X112566648Y-99492665D01*
X112566287Y-99492412D01*
X112565920Y-99492210D01*
X112563062Y-99490479D01*
X112557648Y-99486340D01*
X112484036Y-99452014D01*
X112481264Y-99450680D01*
X112414596Y-99417586D01*
X112408486Y-99414553D01*
X112401865Y-99412902D01*
X112398737Y-99411751D01*
X112398344Y-99411587D01*
X112397939Y-99411468D01*
X112394775Y-99410391D01*
X112388596Y-99407510D01*
X112309300Y-99389785D01*
X112306302Y-99389076D01*
X112234121Y-99371079D01*
X112234120Y-99371079D01*
X112227499Y-99369428D01*
X112220678Y-99369237D01*
X112217375Y-99368785D01*
X112216491Y-99368626D01*
X112211608Y-99367948D01*
X112206560Y-99366820D01*
X112200837Y-99366500D01*
X112124456Y-99366500D01*
X112120937Y-99366451D01*
X112041043Y-99364219D01*
X112034339Y-99365498D01*
X112027538Y-99366045D01*
X112027496Y-99365525D01*
X112017175Y-99366500D01*
X111604188Y-99366500D01*
X111536067Y-99346498D01*
X111515093Y-99329595D01*
X111404300Y-99218802D01*
X111399792Y-99215645D01*
X111399789Y-99215643D01*
X111321611Y-99160902D01*
X111216749Y-99087477D01*
X111024709Y-98997928D01*
X110971424Y-98951011D01*
X110951963Y-98882734D01*
X110972505Y-98814774D01*
X110988864Y-98794638D01*
X122808098Y-86975405D01*
X122870410Y-86941379D01*
X122897193Y-86938500D01*
X127707055Y-86938500D01*
X127775176Y-86958502D01*
X127807815Y-86988847D01*
X127856223Y-87053320D01*
X128029912Y-87219301D01*
X128228378Y-87354686D01*
X128233061Y-87356860D01*
X128233065Y-87356862D01*
X128441595Y-87453658D01*
X128441599Y-87453659D01*
X128446290Y-87455837D01*
X128677798Y-87520040D01*
X128682935Y-87520589D01*
X128870593Y-87540644D01*
X128870601Y-87540644D01*
X128873928Y-87541000D01*
X129108402Y-87541000D01*
X129110975Y-87540788D01*
X129110986Y-87540788D01*
X129211946Y-87532487D01*
X129286937Y-87526322D01*
X129519944Y-87467794D01*
X129648771Y-87411779D01*
X129735526Y-87374057D01*
X129735529Y-87374055D01*
X129740263Y-87371997D01*
X129941977Y-87241502D01*
X130119670Y-87079814D01*
X130231273Y-86938500D01*
X130265367Y-86895330D01*
X130265370Y-86895325D01*
X130268568Y-86891276D01*
X130384674Y-86680950D01*
X130464870Y-86454485D01*
X130507001Y-86217963D01*
X130509936Y-85977737D01*
X130473596Y-85740256D01*
X130431328Y-85610936D01*
X130400566Y-85516817D01*
X130400563Y-85516811D01*
X130398958Y-85511899D01*
X130389613Y-85493946D01*
X130290416Y-85303393D01*
X130288025Y-85298800D01*
X130234444Y-85227437D01*
X130146882Y-85110815D01*
X130146880Y-85110812D01*
X130143777Y-85106680D01*
X130015376Y-84983977D01*
X129973825Y-84944270D01*
X129973824Y-84944269D01*
X129970088Y-84940699D01*
X129933097Y-84915465D01*
X129888096Y-84860556D01*
X129879925Y-84790032D01*
X129911179Y-84726284D01*
X129935660Y-84705589D01*
X129937635Y-84704311D01*
X129941977Y-84701502D01*
X130119670Y-84539814D01*
X130215476Y-84418502D01*
X130265367Y-84355330D01*
X130265370Y-84355325D01*
X130268568Y-84351276D01*
X130279351Y-84331744D01*
X130382177Y-84145474D01*
X130382179Y-84145470D01*
X130384674Y-84140950D01*
X130391557Y-84121515D01*
X130463144Y-83919360D01*
X130463145Y-83919356D01*
X130464870Y-83914485D01*
X130507001Y-83677963D01*
X130509936Y-83437737D01*
X130473596Y-83200256D01*
X130436906Y-83088003D01*
X130400566Y-82976817D01*
X130400563Y-82976811D01*
X130398958Y-82971899D01*
X130288025Y-82758800D01*
X130171585Y-82603717D01*
X130146680Y-82537235D01*
X130161672Y-82467839D01*
X130211802Y-82417565D01*
X130228115Y-82410085D01*
X130238293Y-82406269D01*
X130238296Y-82406267D01*
X130246705Y-82403115D01*
X130363261Y-82315761D01*
X130450615Y-82199205D01*
X130501745Y-82062816D01*
X130508500Y-82000634D01*
X130508500Y-79999366D01*
X130501745Y-79937184D01*
X130450615Y-79800795D01*
X130363261Y-79684239D01*
X130246705Y-79596885D01*
X130110316Y-79545755D01*
X130048134Y-79539000D01*
X127951866Y-79539000D01*
X127889684Y-79545755D01*
X127753295Y-79596885D01*
X127636739Y-79684239D01*
X127549385Y-79800795D01*
X127498255Y-79937184D01*
X127491500Y-79999366D01*
X127491500Y-82000634D01*
X127498255Y-82062816D01*
X127549385Y-82199205D01*
X127636739Y-82315761D01*
X127753295Y-82403115D01*
X127773189Y-82410573D01*
X127829953Y-82453213D01*
X127854654Y-82519774D01*
X127839447Y-82589123D01*
X127827842Y-82606647D01*
X127806562Y-82633592D01*
X127748645Y-82674655D01*
X127707680Y-82681500D01*
X127657493Y-82681500D01*
X127589372Y-82661498D01*
X127568398Y-82644595D01*
X127451621Y-82527818D01*
X127444478Y-82520051D01*
X127415236Y-82485447D01*
X127415232Y-82485443D01*
X127410829Y-82480233D01*
X127394619Y-82467839D01*
X127351051Y-82434529D01*
X127346331Y-82430921D01*
X127343915Y-82429027D01*
X127285883Y-82382368D01*
X127285882Y-82382367D01*
X127280562Y-82378090D01*
X127274443Y-82375053D01*
X127271648Y-82373265D01*
X127271287Y-82373012D01*
X127270920Y-82372810D01*
X127268062Y-82371079D01*
X127262648Y-82366940D01*
X127189036Y-82332614D01*
X127186264Y-82331280D01*
X127185221Y-82330762D01*
X127113486Y-82295153D01*
X127106865Y-82293502D01*
X127103737Y-82292351D01*
X127103344Y-82292187D01*
X127102939Y-82292068D01*
X127099775Y-82290991D01*
X127093596Y-82288110D01*
X127014300Y-82270385D01*
X127011302Y-82269676D01*
X126939121Y-82251679D01*
X126939120Y-82251679D01*
X126932499Y-82250028D01*
X126925678Y-82249837D01*
X126922375Y-82249385D01*
X126921491Y-82249226D01*
X126916608Y-82248548D01*
X126911560Y-82247420D01*
X126905837Y-82247100D01*
X126829456Y-82247100D01*
X126825937Y-82247051D01*
X126746043Y-82244819D01*
X126739339Y-82246098D01*
X126732538Y-82246645D01*
X126732496Y-82246125D01*
X126722175Y-82247100D01*
X71728691Y-82247100D01*
X71718148Y-82246658D01*
X71717993Y-82246645D01*
X71666202Y-82242296D01*
X71659442Y-82243198D01*
X71659441Y-82243198D01*
X71585697Y-82253038D01*
X71582640Y-82253408D01*
X71508643Y-82261446D01*
X71508639Y-82261447D01*
X71501863Y-82262183D01*
X71495400Y-82264358D01*
X71492124Y-82265078D01*
X71491728Y-82265148D01*
X71491304Y-82265271D01*
X71488084Y-82266062D01*
X71481311Y-82266966D01*
X71404977Y-82294749D01*
X71402102Y-82295756D01*
X71394882Y-82298186D01*
X71325077Y-82321678D01*
X71319223Y-82325196D01*
X71316216Y-82326585D01*
X71315811Y-82326752D01*
X71315435Y-82326957D01*
X71312448Y-82328427D01*
X71306032Y-82330762D01*
X71237380Y-82374330D01*
X71234911Y-82375855D01*
X71165191Y-82417747D01*
X71160234Y-82422434D01*
X71157577Y-82424451D01*
X71156843Y-82424961D01*
X71152905Y-82427939D01*
X71148541Y-82430709D01*
X71144268Y-82434529D01*
X71090272Y-82488525D01*
X71087750Y-82490979D01*
X71029664Y-82545908D01*
X71025826Y-82551556D01*
X71021407Y-82556748D01*
X71021007Y-82556408D01*
X71014400Y-82564397D01*
X63971733Y-89607064D01*
X63918213Y-89638842D01*
X63854745Y-89657522D01*
X63805989Y-89671871D01*
X63805987Y-89671872D01*
X63800081Y-89673610D01*
X63794628Y-89676461D01*
X63794625Y-89676462D01*
X63717545Y-89716759D01*
X63624810Y-89765240D01*
X63470675Y-89889168D01*
X63343546Y-90040674D01*
X63340579Y-90046072D01*
X63340575Y-90046077D01*
X63261795Y-90189380D01*
X63248267Y-90213987D01*
X63188465Y-90402506D01*
X63166419Y-90599051D01*
X63182968Y-90796134D01*
X63237483Y-90986250D01*
X63239436Y-90990050D01*
X63245857Y-91060095D01*
X63211320Y-91124877D01*
X52023595Y-102312602D01*
X51961283Y-102346628D01*
X51890468Y-102341563D01*
X51833632Y-102299016D01*
X51808821Y-102232496D01*
X51808500Y-102223507D01*
X51808500Y-102151866D01*
X51801745Y-102089684D01*
X51750615Y-101953295D01*
X51663261Y-101836739D01*
X51546705Y-101749385D01*
X51410316Y-101698255D01*
X51348134Y-101691500D01*
X48651866Y-101691500D01*
X48589684Y-101698255D01*
X48453295Y-101749385D01*
X48336739Y-101836739D01*
X48249385Y-101953295D01*
X48198255Y-102089684D01*
X48191500Y-102151866D01*
X48191500Y-104848134D01*
X48198255Y-104910316D01*
X48249385Y-105046705D01*
X48336739Y-105163261D01*
X48453295Y-105250615D01*
X48589684Y-105301745D01*
X48651866Y-105308500D01*
X51348134Y-105308500D01*
X51410316Y-105301745D01*
X51546705Y-105250615D01*
X51663261Y-105163261D01*
X51750615Y-105046705D01*
X51801745Y-104910316D01*
X51808500Y-104848134D01*
X51808500Y-104484500D01*
X51828502Y-104416379D01*
X51882158Y-104369886D01*
X51934500Y-104358500D01*
X52008910Y-104358500D01*
X52019452Y-104358942D01*
X52071399Y-104363304D01*
X52078159Y-104362402D01*
X52078161Y-104362402D01*
X52151902Y-104352563D01*
X52154957Y-104352193D01*
X52187199Y-104348690D01*
X52235737Y-104343417D01*
X52242201Y-104341242D01*
X52245476Y-104340522D01*
X52245872Y-104340452D01*
X52246296Y-104340329D01*
X52249516Y-104339538D01*
X52256289Y-104338634D01*
X52332623Y-104310851D01*
X52335498Y-104309844D01*
X52361821Y-104300985D01*
X52412523Y-104283922D01*
X52418377Y-104280404D01*
X52421384Y-104279015D01*
X52421789Y-104278848D01*
X52422165Y-104278643D01*
X52425152Y-104277173D01*
X52431568Y-104274838D01*
X52500220Y-104231270D01*
X52502689Y-104229745D01*
X52572409Y-104187853D01*
X52577366Y-104183166D01*
X52580023Y-104181149D01*
X52580769Y-104180631D01*
X52584702Y-104177656D01*
X52589059Y-104174891D01*
X52593332Y-104171070D01*
X52647310Y-104117092D01*
X52649832Y-104114638D01*
X52702980Y-104064379D01*
X52702982Y-104064377D01*
X52707936Y-104059692D01*
X52711771Y-104054050D01*
X52716194Y-104048852D01*
X52716590Y-104049189D01*
X52723204Y-104041198D01*
X64757483Y-92006920D01*
X64765250Y-91999777D01*
X64799853Y-91970535D01*
X64805067Y-91966129D01*
X64854379Y-91901631D01*
X64856273Y-91899215D01*
X64902932Y-91841183D01*
X64902933Y-91841182D01*
X64907210Y-91835862D01*
X64910247Y-91829743D01*
X64912035Y-91826948D01*
X64912288Y-91826587D01*
X64912490Y-91826220D01*
X64914221Y-91823362D01*
X64918360Y-91817948D01*
X64952686Y-91744336D01*
X64954020Y-91741564D01*
X64987114Y-91674896D01*
X64990147Y-91668786D01*
X64991798Y-91662165D01*
X64992949Y-91659037D01*
X64993113Y-91658644D01*
X64993232Y-91658239D01*
X64994309Y-91655075D01*
X64997190Y-91648896D01*
X65014915Y-91569598D01*
X65015624Y-91566602D01*
X65033621Y-91494421D01*
X65033621Y-91494420D01*
X65035272Y-91487799D01*
X65035463Y-91480978D01*
X65035915Y-91477675D01*
X65036074Y-91476791D01*
X65036752Y-91471908D01*
X65037880Y-91466860D01*
X65038200Y-91461137D01*
X65038200Y-91384756D01*
X65038249Y-91381237D01*
X65040290Y-91308163D01*
X65040481Y-91301343D01*
X65039202Y-91294639D01*
X65038655Y-91287838D01*
X65039175Y-91287796D01*
X65038200Y-91277475D01*
X65038200Y-91177084D01*
X65054644Y-91114847D01*
X65102422Y-91030742D01*
X65105469Y-91025379D01*
X65157802Y-90868060D01*
X65188265Y-90818737D01*
X72005998Y-84001005D01*
X72068310Y-83966979D01*
X72095093Y-83964100D01*
X89214039Y-83964100D01*
X89282160Y-83984102D01*
X89328653Y-84037758D01*
X89339046Y-84105890D01*
X89334163Y-84144540D01*
X89351863Y-84325060D01*
X89409118Y-84497173D01*
X89412765Y-84503195D01*
X89412766Y-84503197D01*
X89437047Y-84543289D01*
X89503080Y-84652324D01*
X89507969Y-84657387D01*
X89507970Y-84657388D01*
X89553497Y-84704532D01*
X89629082Y-84782802D01*
X89634978Y-84786660D01*
X89747903Y-84860556D01*
X89780859Y-84882122D01*
X89787463Y-84884578D01*
X89787465Y-84884579D01*
X89944258Y-84942890D01*
X89944260Y-84942890D01*
X89950868Y-84945348D01*
X89957853Y-84946280D01*
X89957857Y-84946281D01*
X89970039Y-84947906D01*
X89972085Y-84948179D01*
X90036962Y-84977014D01*
X90044517Y-84983977D01*
X91072395Y-86011854D01*
X91106420Y-86074166D01*
X91109300Y-86100949D01*
X91109300Y-103857322D01*
X91089298Y-103925443D01*
X91035642Y-103971936D01*
X90965368Y-103982040D01*
X90922598Y-103967736D01*
X90905937Y-103958576D01*
X90885159Y-103953241D01*
X90866469Y-103946842D01*
X90846776Y-103938320D01*
X90801152Y-103931094D01*
X90789529Y-103928687D01*
X90761528Y-103921498D01*
X90744788Y-103917200D01*
X90723341Y-103917200D01*
X90703631Y-103915649D01*
X90702488Y-103915468D01*
X90682448Y-103912294D01*
X90636459Y-103916641D01*
X90624604Y-103917200D01*
X59941444Y-103917200D01*
X59873930Y-103897585D01*
X59828556Y-103868790D01*
X59790166Y-103844427D01*
X59697424Y-103811403D01*
X59625925Y-103785943D01*
X59625920Y-103785942D01*
X59619290Y-103783581D01*
X59612302Y-103782748D01*
X59612299Y-103782747D01*
X59479534Y-103766916D01*
X59439180Y-103762104D01*
X59432177Y-103762840D01*
X59432176Y-103762840D01*
X59265788Y-103780328D01*
X59265786Y-103780329D01*
X59258788Y-103781064D01*
X59087079Y-103839518D01*
X59046621Y-103864408D01*
X58938595Y-103930866D01*
X58938592Y-103930868D01*
X58932588Y-103934562D01*
X58927553Y-103939493D01*
X58927550Y-103939495D01*
X58808025Y-104056543D01*
X58802993Y-104061471D01*
X58704735Y-104213938D01*
X58702326Y-104220558D01*
X58702324Y-104220561D01*
X58651258Y-104360864D01*
X58642697Y-104384385D01*
X58619963Y-104564340D01*
X58637663Y-104744860D01*
X58694918Y-104916973D01*
X58698565Y-104922995D01*
X58698566Y-104922997D01*
X58777838Y-105053891D01*
X58788880Y-105072124D01*
X58793769Y-105077187D01*
X58793770Y-105077188D01*
X58869957Y-105156081D01*
X58914882Y-105202602D01*
X58920778Y-105206460D01*
X59055973Y-105294929D01*
X59066659Y-105301922D01*
X59073263Y-105304378D01*
X59073265Y-105304379D01*
X59230058Y-105362690D01*
X59230060Y-105362690D01*
X59236668Y-105365148D01*
X59320495Y-105376333D01*
X59409480Y-105388207D01*
X59409484Y-105388207D01*
X59416461Y-105389138D01*
X59423472Y-105388500D01*
X59423476Y-105388500D01*
X59565959Y-105375532D01*
X59597100Y-105372698D01*
X59603802Y-105370520D01*
X59603804Y-105370520D01*
X59762909Y-105318824D01*
X59762912Y-105318823D01*
X59769608Y-105316647D01*
X59878103Y-105251971D01*
X59942620Y-105234200D01*
X90177598Y-105234200D01*
X90245719Y-105254202D01*
X90285373Y-105294928D01*
X90295581Y-105311783D01*
X90327900Y-105365148D01*
X90355380Y-105410524D01*
X90481382Y-105541002D01*
X90633159Y-105640322D01*
X90639763Y-105642778D01*
X90639765Y-105642779D01*
X90796558Y-105701090D01*
X90796560Y-105701090D01*
X90803168Y-105703548D01*
X90886995Y-105714733D01*
X90975980Y-105726607D01*
X90975984Y-105726607D01*
X90982961Y-105727538D01*
X90987047Y-105727166D01*
X91053625Y-105748238D01*
X91098984Y-105802855D01*
X91109300Y-105852787D01*
X91109300Y-111591950D01*
X91089298Y-111660071D01*
X91072395Y-111681045D01*
X87577395Y-115176045D01*
X87568615Y-115184035D01*
X87568613Y-115184037D01*
X87561920Y-115188284D01*
X87556494Y-115194062D01*
X87556493Y-115194063D01*
X87513396Y-115239957D01*
X87510641Y-115242799D01*
X87490073Y-115263367D01*
X87487356Y-115266870D01*
X87479648Y-115275895D01*
X87448028Y-115309567D01*
X87444207Y-115316518D01*
X87444206Y-115316519D01*
X87437697Y-115328358D01*
X87426843Y-115344882D01*
X87419051Y-115354928D01*
X87413696Y-115361832D01*
X87410549Y-115369104D01*
X87410548Y-115369106D01*
X87395346Y-115404235D01*
X87390124Y-115414895D01*
X87367876Y-115455363D01*
X87362541Y-115476141D01*
X87356142Y-115494831D01*
X87347620Y-115514524D01*
X87346380Y-115522355D01*
X87340394Y-115560148D01*
X87337987Y-115571771D01*
X87331887Y-115595529D01*
X87326500Y-115616512D01*
X87326500Y-115637959D01*
X87324949Y-115657669D01*
X87321594Y-115678852D01*
X87325099Y-115715925D01*
X87325763Y-115722952D01*
X87312261Y-115792653D01*
X87267463Y-115841431D01*
X87263196Y-115844118D01*
X87258607Y-115846507D01*
X87254474Y-115849610D01*
X87254471Y-115849612D01*
X87101761Y-115964270D01*
X87079965Y-115980635D01*
X87054546Y-116007234D01*
X86949110Y-116117567D01*
X86925629Y-116142138D01*
X86922720Y-116146403D01*
X86922714Y-116146411D01*
X86916072Y-116156148D01*
X86818204Y-116299618D01*
X86817898Y-116300066D01*
X86762987Y-116345069D01*
X86692462Y-116353240D01*
X86628715Y-116321986D01*
X86608018Y-116297502D01*
X86527426Y-116172926D01*
X86521136Y-116164757D01*
X86377806Y-116007240D01*
X86370273Y-116000215D01*
X86203139Y-115868222D01*
X86194552Y-115862517D01*
X86008117Y-115759599D01*
X85998705Y-115755369D01*
X85797959Y-115684280D01*
X85787988Y-115681646D01*
X85716837Y-115668972D01*
X85703540Y-115670432D01*
X85699000Y-115684989D01*
X85699000Y-117128000D01*
X85678998Y-117196121D01*
X85625342Y-117242614D01*
X85573000Y-117254000D01*
X84128225Y-117254000D01*
X84114694Y-117257973D01*
X84113257Y-117267966D01*
X84143565Y-117402446D01*
X84146645Y-117412275D01*
X84210038Y-117568396D01*
X84217134Y-117639037D01*
X84184912Y-117702301D01*
X84123602Y-117738101D01*
X84093295Y-117741800D01*
X81608393Y-117741800D01*
X81540272Y-117721798D01*
X81519298Y-117704895D01*
X80548586Y-116734183D01*
X84109389Y-116734183D01*
X84110912Y-116742607D01*
X84123292Y-116746000D01*
X85172885Y-116746000D01*
X85188124Y-116741525D01*
X85189329Y-116740135D01*
X85191000Y-116732452D01*
X85191000Y-115683102D01*
X85187082Y-115669758D01*
X85172806Y-115667771D01*
X85134324Y-115673660D01*
X85124288Y-115676051D01*
X84921868Y-115742212D01*
X84912359Y-115746209D01*
X84723463Y-115844542D01*
X84714738Y-115850036D01*
X84544433Y-115977905D01*
X84536726Y-115984748D01*
X84389590Y-116138717D01*
X84383104Y-116146727D01*
X84263098Y-116322649D01*
X84258000Y-116331623D01*
X84168338Y-116524783D01*
X84164775Y-116534470D01*
X84109389Y-116734183D01*
X80548586Y-116734183D01*
X80236620Y-116422217D01*
X80229477Y-116414450D01*
X80200235Y-116379847D01*
X80195829Y-116374633D01*
X80164503Y-116350682D01*
X80131338Y-116325326D01*
X80128915Y-116323427D01*
X80127948Y-116322649D01*
X80065562Y-116272490D01*
X80059443Y-116269453D01*
X80056648Y-116267665D01*
X80056287Y-116267412D01*
X80055920Y-116267210D01*
X80053062Y-116265479D01*
X80047648Y-116261340D01*
X79974036Y-116227014D01*
X79971264Y-116225680D01*
X79904596Y-116192586D01*
X79898486Y-116189553D01*
X79891865Y-116187902D01*
X79888737Y-116186751D01*
X79888344Y-116186587D01*
X79887939Y-116186468D01*
X79884775Y-116185391D01*
X79878596Y-116182510D01*
X79799300Y-116164785D01*
X79796302Y-116164076D01*
X79724121Y-116146079D01*
X79724120Y-116146079D01*
X79717499Y-116144428D01*
X79710678Y-116144237D01*
X79707375Y-116143785D01*
X79706491Y-116143626D01*
X79701608Y-116142948D01*
X79696560Y-116141820D01*
X79690837Y-116141500D01*
X79614456Y-116141500D01*
X79610937Y-116141451D01*
X79531043Y-116139219D01*
X79524339Y-116140498D01*
X79517538Y-116141045D01*
X79517496Y-116140525D01*
X79507175Y-116141500D01*
X79474493Y-116141500D01*
X79406372Y-116121498D01*
X79359879Y-116067842D01*
X79352457Y-116046237D01*
X79351745Y-116039684D01*
X79348972Y-116032285D01*
X79303767Y-115911703D01*
X79300615Y-115903295D01*
X79213261Y-115786739D01*
X79096705Y-115699385D01*
X78960316Y-115648255D01*
X78898134Y-115641500D01*
X77101866Y-115641500D01*
X77039684Y-115648255D01*
X76903295Y-115699385D01*
X76786739Y-115786739D01*
X76699385Y-115903295D01*
X76696233Y-115911703D01*
X76696232Y-115911705D01*
X76654722Y-116022433D01*
X76612081Y-116079198D01*
X76545519Y-116103898D01*
X76476170Y-116088691D01*
X76443546Y-116063004D01*
X76392799Y-116007234D01*
X76385273Y-116000215D01*
X76218139Y-115868222D01*
X76209552Y-115862517D01*
X76023117Y-115759599D01*
X76013705Y-115755369D01*
X75812959Y-115684280D01*
X75802988Y-115681646D01*
X75731837Y-115668972D01*
X75718540Y-115670432D01*
X75714000Y-115684989D01*
X75714000Y-117128000D01*
X75693998Y-117196121D01*
X75640342Y-117242614D01*
X75588000Y-117254000D01*
X75332000Y-117254000D01*
X75263879Y-117233998D01*
X75217386Y-117180342D01*
X75206000Y-117128000D01*
X75206000Y-115683102D01*
X75202082Y-115669758D01*
X75187806Y-115667771D01*
X75149324Y-115673660D01*
X75139288Y-115676051D01*
X74936868Y-115742212D01*
X74927359Y-115746209D01*
X74738463Y-115844542D01*
X74729738Y-115850036D01*
X74559433Y-115977905D01*
X74551726Y-115984748D01*
X74404590Y-116138717D01*
X74398109Y-116146722D01*
X74293498Y-116300074D01*
X74238587Y-116345076D01*
X74168062Y-116353247D01*
X74104315Y-116321993D01*
X74083618Y-116297509D01*
X74002822Y-116172617D01*
X74002820Y-116172614D01*
X74000014Y-116168277D01*
X73849670Y-116003051D01*
X73845617Y-115999850D01*
X73845615Y-115999848D01*
X73678414Y-115867800D01*
X73678410Y-115867798D01*
X73674359Y-115864598D01*
X73669666Y-115862007D01*
X73609618Y-115828859D01*
X73478789Y-115756638D01*
X73473920Y-115754914D01*
X73473916Y-115754912D01*
X73273087Y-115683795D01*
X73273083Y-115683794D01*
X73268212Y-115682069D01*
X73263119Y-115681162D01*
X73263116Y-115681161D01*
X73053373Y-115643800D01*
X73053367Y-115643799D01*
X73048284Y-115642894D01*
X72974452Y-115641992D01*
X72830081Y-115640228D01*
X72830079Y-115640228D01*
X72824911Y-115640165D01*
X72604091Y-115673955D01*
X72391756Y-115743357D01*
X72350150Y-115765016D01*
X72203487Y-115841364D01*
X72193607Y-115846507D01*
X72189474Y-115849610D01*
X72189471Y-115849612D01*
X72036761Y-115964270D01*
X72014965Y-115980635D01*
X71989546Y-116007234D01*
X71884110Y-116117567D01*
X71860629Y-116142138D01*
X71753201Y-116299621D01*
X71698293Y-116344621D01*
X71627768Y-116352792D01*
X71564021Y-116321538D01*
X71543324Y-116297054D01*
X71462822Y-116172617D01*
X71462820Y-116172614D01*
X71460014Y-116168277D01*
X71309670Y-116003051D01*
X71305617Y-115999850D01*
X71305615Y-115999848D01*
X71138414Y-115867800D01*
X71138410Y-115867798D01*
X71134359Y-115864598D01*
X71129666Y-115862007D01*
X71069618Y-115828859D01*
X70938789Y-115756638D01*
X70933920Y-115754914D01*
X70933916Y-115754912D01*
X70733087Y-115683795D01*
X70733083Y-115683794D01*
X70728212Y-115682069D01*
X70723119Y-115681162D01*
X70723116Y-115681161D01*
X70513373Y-115643800D01*
X70513367Y-115643799D01*
X70508284Y-115642894D01*
X70434452Y-115641992D01*
X70290081Y-115640228D01*
X70290079Y-115640228D01*
X70284911Y-115640165D01*
X70064091Y-115673955D01*
X69851756Y-115743357D01*
X69810150Y-115765016D01*
X69663487Y-115841364D01*
X69653607Y-115846507D01*
X69649474Y-115849610D01*
X69649471Y-115849612D01*
X69496761Y-115964270D01*
X69474965Y-115980635D01*
X69449546Y-116007234D01*
X69344110Y-116117567D01*
X69320629Y-116142138D01*
X69213201Y-116299621D01*
X69158293Y-116344621D01*
X69087768Y-116352792D01*
X69024021Y-116321538D01*
X69003324Y-116297054D01*
X68922822Y-116172617D01*
X68922820Y-116172614D01*
X68920014Y-116168277D01*
X68769670Y-116003051D01*
X68765617Y-115999850D01*
X68765615Y-115999848D01*
X68598412Y-115867799D01*
X68594359Y-115864598D01*
X68589841Y-115862104D01*
X68589835Y-115862100D01*
X68563605Y-115847620D01*
X68513635Y-115797187D01*
X68498500Y-115737312D01*
X68498500Y-109002656D01*
X68499059Y-108990800D01*
X68499059Y-108990797D01*
X68500788Y-108983063D01*
X68498562Y-108912231D01*
X68498500Y-108908273D01*
X68498500Y-108879168D01*
X68497944Y-108874768D01*
X68497012Y-108862930D01*
X68495811Y-108824694D01*
X68495562Y-108816769D01*
X68489580Y-108796179D01*
X68485570Y-108776816D01*
X68483875Y-108763396D01*
X68483875Y-108763395D01*
X68482882Y-108755536D01*
X68479966Y-108748171D01*
X68479965Y-108748167D01*
X68465876Y-108712582D01*
X68462031Y-108701353D01*
X68451356Y-108664610D01*
X68449145Y-108656999D01*
X68438230Y-108638543D01*
X68429531Y-108620787D01*
X68429182Y-108619907D01*
X68421635Y-108600844D01*
X68394480Y-108563468D01*
X68387965Y-108553549D01*
X68368492Y-108520623D01*
X68368489Y-108520619D01*
X68364452Y-108513793D01*
X68349291Y-108498632D01*
X68336449Y-108483597D01*
X68323841Y-108466243D01*
X68317737Y-108461193D01*
X68317735Y-108461191D01*
X68288237Y-108436788D01*
X68279459Y-108428799D01*
X66985755Y-107135095D01*
X66951729Y-107072783D01*
X66950569Y-107065726D01*
X66949982Y-107063143D01*
X66949197Y-107056145D01*
X66910070Y-106943787D01*
X66891864Y-106891506D01*
X66891862Y-106891503D01*
X66889545Y-106884848D01*
X66810677Y-106758631D01*
X66797159Y-106736998D01*
X66793426Y-106731024D01*
X66724934Y-106662052D01*
X66670578Y-106607315D01*
X66670574Y-106607312D01*
X66665615Y-106602318D01*
X66654497Y-106595262D01*
X66535965Y-106520040D01*
X66512466Y-106505127D01*
X66483263Y-106494728D01*
X66348225Y-106446643D01*
X66348220Y-106446642D01*
X66341590Y-106444281D01*
X66334602Y-106443448D01*
X66334599Y-106443447D01*
X66211498Y-106428768D01*
X66161480Y-106422804D01*
X66154477Y-106423540D01*
X66154476Y-106423540D01*
X65988088Y-106441028D01*
X65988086Y-106441029D01*
X65981088Y-106441764D01*
X65809379Y-106500218D01*
X65766948Y-106526322D01*
X65660895Y-106591566D01*
X65660892Y-106591568D01*
X65654888Y-106595262D01*
X65649853Y-106600193D01*
X65649850Y-106600195D01*
X65530325Y-106717243D01*
X65525293Y-106722171D01*
X65427035Y-106874638D01*
X65424626Y-106881258D01*
X65424624Y-106881261D01*
X65374541Y-107018863D01*
X65364997Y-107045085D01*
X65342263Y-107225040D01*
X65359963Y-107405560D01*
X65417218Y-107577673D01*
X65420865Y-107583695D01*
X65420866Y-107583697D01*
X65475756Y-107674331D01*
X65511180Y-107732824D01*
X65637182Y-107863302D01*
X65788959Y-107962622D01*
X65795563Y-107965078D01*
X65795565Y-107965079D01*
X65952358Y-108023390D01*
X65952360Y-108023390D01*
X65958968Y-108025848D01*
X65965953Y-108026780D01*
X65965957Y-108026781D01*
X65978139Y-108028406D01*
X65980185Y-108028679D01*
X66045062Y-108057514D01*
X66052617Y-108064477D01*
X67144595Y-109156454D01*
X67178620Y-109218766D01*
X67181500Y-109245549D01*
X67181500Y-115734705D01*
X67161498Y-115802826D01*
X67121441Y-115839572D01*
X67122570Y-115841364D01*
X67118200Y-115844116D01*
X67113607Y-115846507D01*
X67098125Y-115858131D01*
X66959850Y-115961951D01*
X66934965Y-115980635D01*
X66909546Y-116007234D01*
X66804110Y-116117567D01*
X66780629Y-116142138D01*
X66777720Y-116146403D01*
X66777714Y-116146411D01*
X66711804Y-116243031D01*
X66654743Y-116326680D01*
X66560688Y-116529305D01*
X66500989Y-116744570D01*
X66477251Y-116966695D01*
X66477548Y-116971848D01*
X66477548Y-116971851D01*
X66484553Y-117093340D01*
X66490110Y-117189715D01*
X66491247Y-117194761D01*
X66491248Y-117194767D01*
X66505919Y-117259865D01*
X66539222Y-117407639D01*
X66623266Y-117614616D01*
X66673863Y-117697183D01*
X66737291Y-117800688D01*
X66739987Y-117805088D01*
X66886250Y-117973938D01*
X67058126Y-118116632D01*
X67251000Y-118229338D01*
X67459692Y-118309030D01*
X67464760Y-118310061D01*
X67464763Y-118310062D01*
X67557852Y-118329001D01*
X67678597Y-118353567D01*
X67683772Y-118353757D01*
X67683774Y-118353757D01*
X67896673Y-118361564D01*
X67896677Y-118361564D01*
X67901837Y-118361753D01*
X67906957Y-118361097D01*
X67906959Y-118361097D01*
X68118288Y-118334025D01*
X68118289Y-118334025D01*
X68123416Y-118333368D01*
X68128366Y-118331883D01*
X68332429Y-118270661D01*
X68332434Y-118270659D01*
X68337384Y-118269174D01*
X68537994Y-118170896D01*
X68719860Y-118041173D01*
X68878096Y-117883489D01*
X68937594Y-117800689D01*
X69008453Y-117702077D01*
X69009776Y-117703028D01*
X69056645Y-117659857D01*
X69126580Y-117647625D01*
X69192026Y-117675144D01*
X69219875Y-117706994D01*
X69279987Y-117805088D01*
X69426250Y-117973938D01*
X69598126Y-118116632D01*
X69791000Y-118229338D01*
X69999692Y-118309030D01*
X70004760Y-118310061D01*
X70004763Y-118310062D01*
X70097852Y-118329001D01*
X70218597Y-118353567D01*
X70223772Y-118353757D01*
X70223774Y-118353757D01*
X70436673Y-118361564D01*
X70436677Y-118361564D01*
X70441837Y-118361753D01*
X70446957Y-118361097D01*
X70446959Y-118361097D01*
X70658288Y-118334025D01*
X70658289Y-118334025D01*
X70663416Y-118333368D01*
X70668366Y-118331883D01*
X70872429Y-118270661D01*
X70872434Y-118270659D01*
X70877384Y-118269174D01*
X71077994Y-118170896D01*
X71259860Y-118041173D01*
X71418096Y-117883489D01*
X71477594Y-117800689D01*
X71548453Y-117702077D01*
X71549776Y-117703028D01*
X71596645Y-117659857D01*
X71666580Y-117647625D01*
X71732026Y-117675144D01*
X71759875Y-117706994D01*
X71819987Y-117805088D01*
X71966250Y-117973938D01*
X72138126Y-118116632D01*
X72331000Y-118229338D01*
X72539692Y-118309030D01*
X72544760Y-118310061D01*
X72544763Y-118310062D01*
X72637852Y-118329001D01*
X72758597Y-118353567D01*
X72763772Y-118353757D01*
X72763774Y-118353757D01*
X72976673Y-118361564D01*
X72976677Y-118361564D01*
X72981837Y-118361753D01*
X72986957Y-118361097D01*
X72986959Y-118361097D01*
X73198288Y-118334025D01*
X73198289Y-118334025D01*
X73203416Y-118333368D01*
X73208366Y-118331883D01*
X73412429Y-118270661D01*
X73412434Y-118270659D01*
X73417384Y-118269174D01*
X73617994Y-118170896D01*
X73799860Y-118041173D01*
X73958096Y-117883489D01*
X74017594Y-117800689D01*
X74088453Y-117702077D01*
X74089640Y-117702930D01*
X74136960Y-117659362D01*
X74206897Y-117647145D01*
X74272338Y-117674678D01*
X74300166Y-117706511D01*
X74357694Y-117800388D01*
X74363777Y-117808699D01*
X74503213Y-117969667D01*
X74510580Y-117976883D01*
X74674434Y-118112916D01*
X74682881Y-118118831D01*
X74866756Y-118226279D01*
X74876042Y-118230729D01*
X75075001Y-118306703D01*
X75084908Y-118309582D01*
X75180357Y-118329001D01*
X75243122Y-118362182D01*
X75277984Y-118424030D01*
X75273875Y-118494908D01*
X75244331Y-118541566D01*
X74953802Y-118832095D01*
X74891490Y-118866121D01*
X74864707Y-118869000D01*
X58610292Y-118869000D01*
X58542171Y-118848998D01*
X58521197Y-118832095D01*
X58234578Y-118545476D01*
X58200552Y-118483164D01*
X58205617Y-118412349D01*
X58248164Y-118355513D01*
X58296396Y-118333627D01*
X58298416Y-118333368D01*
X58303358Y-118331885D01*
X58303364Y-118331884D01*
X58507429Y-118270661D01*
X58507434Y-118270659D01*
X58512384Y-118269174D01*
X58712994Y-118170896D01*
X58894860Y-118041173D01*
X59053096Y-117883489D01*
X59112594Y-117800689D01*
X59183453Y-117702077D01*
X59184640Y-117702930D01*
X59231960Y-117659362D01*
X59301897Y-117647145D01*
X59367338Y-117674678D01*
X59395166Y-117706511D01*
X59452694Y-117800388D01*
X59458777Y-117808699D01*
X59598213Y-117969667D01*
X59605580Y-117976883D01*
X59769434Y-118112916D01*
X59777881Y-118118831D01*
X59961756Y-118226279D01*
X59971042Y-118230729D01*
X60170001Y-118306703D01*
X60179899Y-118309579D01*
X60283250Y-118330606D01*
X60297299Y-118329410D01*
X60301000Y-118319065D01*
X60301000Y-118318517D01*
X60809000Y-118318517D01*
X60813064Y-118332359D01*
X60826478Y-118334393D01*
X60833184Y-118333534D01*
X60843262Y-118331392D01*
X61047255Y-118270191D01*
X61056842Y-118266433D01*
X61248095Y-118172739D01*
X61256945Y-118167464D01*
X61430328Y-118043792D01*
X61438200Y-118037139D01*
X61589052Y-117886812D01*
X61595730Y-117878965D01*
X61720003Y-117706020D01*
X61725313Y-117697183D01*
X61819670Y-117506267D01*
X61823469Y-117496672D01*
X61885377Y-117292910D01*
X61887555Y-117282837D01*
X61888986Y-117271962D01*
X61886775Y-117257778D01*
X61873617Y-117254000D01*
X60827115Y-117254000D01*
X60811876Y-117258475D01*
X60810671Y-117259865D01*
X60809000Y-117267548D01*
X60809000Y-118318517D01*
X60301000Y-118318517D01*
X60301000Y-116727885D01*
X60809000Y-116727885D01*
X60813475Y-116743124D01*
X60814865Y-116744329D01*
X60822548Y-116746000D01*
X61873344Y-116746000D01*
X61886875Y-116742027D01*
X61888180Y-116732947D01*
X61846214Y-116565875D01*
X61842894Y-116556124D01*
X61757972Y-116360814D01*
X61753105Y-116351739D01*
X61637426Y-116172926D01*
X61631136Y-116164757D01*
X61487806Y-116007240D01*
X61480273Y-116000215D01*
X61313139Y-115868222D01*
X61304552Y-115862517D01*
X61118117Y-115759599D01*
X61108705Y-115755369D01*
X60907959Y-115684280D01*
X60897988Y-115681646D01*
X60826837Y-115668972D01*
X60813540Y-115670432D01*
X60809000Y-115684989D01*
X60809000Y-116727885D01*
X60301000Y-116727885D01*
X60301000Y-115683102D01*
X60297082Y-115669758D01*
X60282806Y-115667771D01*
X60244324Y-115673660D01*
X60234288Y-115676051D01*
X60031868Y-115742212D01*
X60022359Y-115746209D01*
X59833463Y-115844542D01*
X59824738Y-115850036D01*
X59654433Y-115977905D01*
X59646726Y-115984748D01*
X59499590Y-116138717D01*
X59493109Y-116146722D01*
X59388498Y-116300074D01*
X59333587Y-116345076D01*
X59263062Y-116353247D01*
X59199315Y-116321993D01*
X59178618Y-116297509D01*
X59097822Y-116172617D01*
X59097820Y-116172614D01*
X59095014Y-116168277D01*
X58944670Y-116003051D01*
X58940617Y-115999850D01*
X58940615Y-115999848D01*
X58773414Y-115867800D01*
X58773410Y-115867798D01*
X58769359Y-115864598D01*
X58764666Y-115862007D01*
X58704618Y-115828859D01*
X58573789Y-115756638D01*
X58568920Y-115754914D01*
X58568916Y-115754912D01*
X58368087Y-115683795D01*
X58368083Y-115683794D01*
X58363212Y-115682069D01*
X58358119Y-115681162D01*
X58358116Y-115681161D01*
X58148373Y-115643800D01*
X58148367Y-115643799D01*
X58143284Y-115642894D01*
X58069452Y-115641992D01*
X57925081Y-115640228D01*
X57925079Y-115640228D01*
X57919911Y-115640165D01*
X57699091Y-115673955D01*
X57486756Y-115743357D01*
X57445150Y-115765016D01*
X57298487Y-115841364D01*
X57288607Y-115846507D01*
X57284474Y-115849610D01*
X57284471Y-115849612D01*
X57131761Y-115964270D01*
X57109965Y-115980635D01*
X57031252Y-116063004D01*
X57029283Y-116065064D01*
X56967759Y-116100494D01*
X56896846Y-116097037D01*
X56839060Y-116055791D01*
X56820207Y-116022243D01*
X56778767Y-115911703D01*
X56775615Y-115903295D01*
X56688261Y-115786739D01*
X56571705Y-115699385D01*
X56435316Y-115648255D01*
X56373134Y-115641500D01*
X54576866Y-115641500D01*
X54514684Y-115648255D01*
X54378295Y-115699385D01*
X54261739Y-115786739D01*
X54174385Y-115903295D01*
X54123255Y-116039684D01*
X54116500Y-116101866D01*
X54116500Y-117898134D01*
X54123255Y-117960316D01*
X54174385Y-118096705D01*
X54261739Y-118213261D01*
X54378295Y-118300615D01*
X54514684Y-118351745D01*
X54576866Y-118358500D01*
X55567208Y-118358500D01*
X55635329Y-118378502D01*
X55656303Y-118395405D01*
X57386937Y-120126039D01*
X57420963Y-120188351D01*
X57415898Y-120259166D01*
X57373351Y-120316002D01*
X57306831Y-120340813D01*
X57297063Y-120341130D01*
X41608426Y-120241346D01*
X36804879Y-120210794D01*
X36736886Y-120190360D01*
X36690736Y-120136409D01*
X36679680Y-120085120D01*
X36668198Y-115607655D01*
X39739858Y-115607655D01*
X39775104Y-115866638D01*
X39776412Y-115871124D01*
X39776412Y-115871126D01*
X39789602Y-115916379D01*
X39848243Y-116117567D01*
X39850203Y-116121820D01*
X39850204Y-116121821D01*
X39859254Y-116141451D01*
X39957668Y-116354928D01*
X39960231Y-116358837D01*
X40098410Y-116569596D01*
X40098414Y-116569601D01*
X40100976Y-116573509D01*
X40275018Y-116768506D01*
X40475970Y-116935637D01*
X40479973Y-116938066D01*
X40695422Y-117068804D01*
X40695426Y-117068806D01*
X40699419Y-117071229D01*
X40940455Y-117172303D01*
X41193783Y-117236641D01*
X41198434Y-117237109D01*
X41198438Y-117237110D01*
X41366177Y-117254000D01*
X41410867Y-117258500D01*
X41566354Y-117258500D01*
X41568679Y-117258327D01*
X41568685Y-117258327D01*
X41756000Y-117244407D01*
X41756004Y-117244406D01*
X41760652Y-117244061D01*
X41765200Y-117243032D01*
X41765206Y-117243031D01*
X41972515Y-117196121D01*
X42015577Y-117186377D01*
X42020283Y-117184547D01*
X42254824Y-117093340D01*
X42254827Y-117093339D01*
X42259177Y-117091647D01*
X42486098Y-116961951D01*
X42691357Y-116800138D01*
X42870443Y-116609763D01*
X43019424Y-116395009D01*
X43026901Y-116379847D01*
X43132960Y-116164781D01*
X43132961Y-116164778D01*
X43135025Y-116160593D01*
X43140200Y-116144428D01*
X43213280Y-115916123D01*
X43214707Y-115911665D01*
X43256721Y-115653693D01*
X43258800Y-115494839D01*
X43260081Y-115397022D01*
X43260081Y-115397019D01*
X43260142Y-115392345D01*
X43224896Y-115133362D01*
X43210473Y-115083877D01*
X43186749Y-115002485D01*
X43151757Y-114882433D01*
X43146545Y-114871126D01*
X43082002Y-114731123D01*
X43042332Y-114645072D01*
X42917525Y-114454709D01*
X42901590Y-114430404D01*
X42901586Y-114430399D01*
X42899024Y-114426491D01*
X42724982Y-114231494D01*
X42524030Y-114064363D01*
X42476844Y-114035730D01*
X42304578Y-113931196D01*
X42304574Y-113931194D01*
X42300581Y-113928771D01*
X42059545Y-113827697D01*
X41806217Y-113763359D01*
X41801566Y-113762891D01*
X41801562Y-113762890D01*
X41592271Y-113741816D01*
X41589133Y-113741500D01*
X41433646Y-113741500D01*
X41431321Y-113741673D01*
X41431315Y-113741673D01*
X41244000Y-113755593D01*
X41243996Y-113755594D01*
X41239348Y-113755939D01*
X41234800Y-113756968D01*
X41234794Y-113756969D01*
X41048399Y-113799147D01*
X40984423Y-113813623D01*
X40980071Y-113815315D01*
X40980069Y-113815316D01*
X40745176Y-113906660D01*
X40745173Y-113906661D01*
X40740823Y-113908353D01*
X40513902Y-114038049D01*
X40308643Y-114199862D01*
X40129557Y-114390237D01*
X39980576Y-114604991D01*
X39978510Y-114609181D01*
X39978508Y-114609184D01*
X39918375Y-114731123D01*
X39864975Y-114839407D01*
X39863553Y-114843850D01*
X39863552Y-114843852D01*
X39809468Y-115012812D01*
X39785293Y-115088335D01*
X39743279Y-115346307D01*
X39742381Y-115414895D01*
X39740088Y-115590107D01*
X39739858Y-115607655D01*
X36668198Y-115607655D01*
X36649080Y-108152526D01*
X45187050Y-108152526D01*
X45199947Y-108421019D01*
X45252388Y-108684656D01*
X45343220Y-108937646D01*
X45345432Y-108941762D01*
X45345433Y-108941765D01*
X45378151Y-109002656D01*
X45470450Y-109174431D01*
X45473241Y-109178168D01*
X45473245Y-109178175D01*
X45503556Y-109218766D01*
X45631281Y-109389810D01*
X45634590Y-109393090D01*
X45634595Y-109393096D01*
X45818863Y-109575762D01*
X45822180Y-109579050D01*
X45825942Y-109581808D01*
X45825945Y-109581811D01*
X45938299Y-109664192D01*
X46038954Y-109737995D01*
X46043089Y-109740171D01*
X46043093Y-109740173D01*
X46272698Y-109860975D01*
X46276840Y-109863154D01*
X46530613Y-109951775D01*
X46535206Y-109952647D01*
X46790109Y-110001042D01*
X46790112Y-110001042D01*
X46794698Y-110001913D01*
X46922370Y-110006929D01*
X47058625Y-110012283D01*
X47058630Y-110012283D01*
X47063293Y-110012466D01*
X47167607Y-110001042D01*
X47325844Y-109983713D01*
X47325850Y-109983712D01*
X47330497Y-109983203D01*
X47335021Y-109982012D01*
X47585918Y-109915956D01*
X47585920Y-109915955D01*
X47590441Y-109914765D01*
X47594738Y-109912919D01*
X47833120Y-109810502D01*
X47833122Y-109810501D01*
X47837414Y-109808657D01*
X47956071Y-109735230D01*
X48062017Y-109669669D01*
X48062021Y-109669666D01*
X48065990Y-109667210D01*
X48271149Y-109493530D01*
X48448382Y-109291434D01*
X48477897Y-109245549D01*
X48591269Y-109069291D01*
X48593797Y-109065361D01*
X48704199Y-108820278D01*
X48716457Y-108776816D01*
X48775893Y-108566072D01*
X48775894Y-108566069D01*
X48777163Y-108561568D01*
X48795043Y-108421019D01*
X48810688Y-108298045D01*
X48810688Y-108298041D01*
X48811086Y-108294915D01*
X48813571Y-108200000D01*
X48793650Y-107931937D01*
X48748596Y-107732824D01*
X48735361Y-107674331D01*
X48735360Y-107674326D01*
X48734327Y-107669763D01*
X48636902Y-107419238D01*
X48503518Y-107185864D01*
X48497837Y-107178657D01*
X48432079Y-107095244D01*
X48337105Y-106974769D01*
X48141317Y-106790591D01*
X47943057Y-106653052D01*
X47924299Y-106640039D01*
X47924296Y-106640037D01*
X47920457Y-106637374D01*
X47916264Y-106635306D01*
X47683564Y-106520551D01*
X47683561Y-106520550D01*
X47679376Y-106518486D01*
X47651195Y-106509465D01*
X47514575Y-106465733D01*
X47423370Y-106436538D01*
X47418763Y-106435788D01*
X47418760Y-106435787D01*
X47162674Y-106394081D01*
X47162675Y-106394081D01*
X47158063Y-106393330D01*
X47027719Y-106391624D01*
X46893961Y-106389873D01*
X46893958Y-106389873D01*
X46889284Y-106389812D01*
X46622937Y-106426060D01*
X46618451Y-106427368D01*
X46618449Y-106427368D01*
X46561274Y-106444033D01*
X46364874Y-106501278D01*
X46360621Y-106503238D01*
X46360620Y-106503239D01*
X46309630Y-106526746D01*
X46120763Y-106613815D01*
X46116854Y-106616378D01*
X45899881Y-106758631D01*
X45899876Y-106758635D01*
X45895968Y-106761197D01*
X45839929Y-106811214D01*
X45725442Y-106913398D01*
X45695426Y-106940188D01*
X45663615Y-106978437D01*
X45566468Y-107095244D01*
X45523544Y-107146854D01*
X45384096Y-107376656D01*
X45382287Y-107380970D01*
X45382285Y-107380974D01*
X45302605Y-107570990D01*
X45280148Y-107624545D01*
X45213981Y-107885077D01*
X45187050Y-108152526D01*
X36649080Y-108152526D01*
X36640855Y-104944906D01*
X42919839Y-104944906D01*
X42928553Y-104956427D01*
X43035452Y-105034809D01*
X43043351Y-105039745D01*
X43272905Y-105160519D01*
X43281454Y-105164236D01*
X43526327Y-105249749D01*
X43535336Y-105252163D01*
X43790166Y-105300544D01*
X43799423Y-105301598D01*
X44058607Y-105311783D01*
X44067921Y-105311457D01*
X44325753Y-105283220D01*
X44334930Y-105281519D01*
X44585758Y-105215481D01*
X44594574Y-105212445D01*
X44832880Y-105110062D01*
X44841167Y-105105748D01*
X45061718Y-104969266D01*
X45069268Y-104963780D01*
X45074559Y-104959301D01*
X45082997Y-104946497D01*
X45076935Y-104936145D01*
X44012812Y-103872022D01*
X43998868Y-103864408D01*
X43997035Y-103864539D01*
X43990420Y-103868790D01*
X42926497Y-104932713D01*
X42919839Y-104944906D01*
X36640855Y-104944906D01*
X36637040Y-103457211D01*
X42187775Y-103457211D01*
X42200220Y-103716288D01*
X42201356Y-103725543D01*
X42251961Y-103979945D01*
X42254449Y-103988917D01*
X42342095Y-104233033D01*
X42345895Y-104241568D01*
X42468658Y-104470042D01*
X42473666Y-104477904D01*
X42543720Y-104571716D01*
X42554979Y-104580165D01*
X42567397Y-104573393D01*
X43627978Y-103512812D01*
X43634356Y-103501132D01*
X44364408Y-103501132D01*
X44364539Y-103502965D01*
X44368790Y-103509580D01*
X45436094Y-104576884D01*
X45448474Y-104583644D01*
X45456815Y-104577400D01*
X45590832Y-104369048D01*
X45595275Y-104360864D01*
X45701807Y-104124370D01*
X45704997Y-104115605D01*
X45775402Y-103865972D01*
X45777262Y-103856830D01*
X45810187Y-103598019D01*
X45810668Y-103591733D01*
X45812987Y-103503160D01*
X45812836Y-103496851D01*
X45793501Y-103236663D01*
X45792125Y-103227457D01*
X45734878Y-102974467D01*
X45732154Y-102965556D01*
X45638143Y-102723806D01*
X45634132Y-102715397D01*
X45505422Y-102490202D01*
X45500211Y-102482476D01*
X45456996Y-102427658D01*
X45445071Y-102419187D01*
X45433537Y-102425673D01*
X44372022Y-103487188D01*
X44364408Y-103501132D01*
X43634356Y-103501132D01*
X43635592Y-103498868D01*
X43635461Y-103497035D01*
X43631210Y-103490420D01*
X42565816Y-102425026D01*
X42552507Y-102417758D01*
X42542472Y-102424878D01*
X42526937Y-102443556D01*
X42521531Y-102451135D01*
X42386965Y-102672891D01*
X42382736Y-102681192D01*
X42282432Y-102920389D01*
X42279471Y-102929239D01*
X42215628Y-103180625D01*
X42214006Y-103189822D01*
X42188020Y-103447885D01*
X42187775Y-103457211D01*
X36637040Y-103457211D01*
X36633438Y-102052689D01*
X42917102Y-102052689D01*
X42921675Y-102062465D01*
X43987188Y-103127978D01*
X44001132Y-103135592D01*
X44002965Y-103135461D01*
X44009580Y-103131210D01*
X45074349Y-102066441D01*
X45080733Y-102054751D01*
X45071321Y-102042641D01*
X44924045Y-101940471D01*
X44916010Y-101935738D01*
X44683376Y-101821016D01*
X44674743Y-101817528D01*
X44427703Y-101738450D01*
X44418643Y-101736274D01*
X44162630Y-101694580D01*
X44153343Y-101693768D01*
X43893992Y-101690373D01*
X43884681Y-101690943D01*
X43627682Y-101725919D01*
X43618546Y-101727860D01*
X43369543Y-101800439D01*
X43360800Y-101803707D01*
X43125252Y-101912296D01*
X43117097Y-101916816D01*
X42926240Y-102041947D01*
X42917102Y-102052689D01*
X36633438Y-102052689D01*
X36486601Y-44791952D01*
X37936875Y-44791952D01*
X37938180Y-44799429D01*
X37938180Y-44799430D01*
X37947861Y-44854899D01*
X37948823Y-44861421D01*
X37956498Y-44924842D01*
X37959181Y-44931943D01*
X37959822Y-44934552D01*
X37964285Y-44950862D01*
X37965050Y-44953398D01*
X37966357Y-44960884D01*
X37985115Y-45003614D01*
X37992042Y-45019395D01*
X37994533Y-45025499D01*
X38017113Y-45085256D01*
X38021417Y-45091519D01*
X38022654Y-45093885D01*
X38030899Y-45108697D01*
X38032232Y-45110951D01*
X38035285Y-45117905D01*
X38061416Y-45151958D01*
X38074179Y-45168591D01*
X38078059Y-45173932D01*
X38109939Y-45220320D01*
X38109944Y-45220325D01*
X38114243Y-45226581D01*
X38119913Y-45231632D01*
X38119914Y-45231634D01*
X38160770Y-45268035D01*
X38166046Y-45273016D01*
X38627252Y-45734222D01*
X38661278Y-45796534D01*
X38661914Y-45846235D01*
X38660989Y-45849570D01*
X38637251Y-46071695D01*
X38637548Y-46076848D01*
X38637548Y-46076851D01*
X38643011Y-46171590D01*
X38650110Y-46294715D01*
X38651247Y-46299761D01*
X38651248Y-46299767D01*
X38669700Y-46381640D01*
X38699222Y-46512639D01*
X38783266Y-46719616D01*
X38899987Y-46910088D01*
X39046250Y-47078938D01*
X39156076Y-47170117D01*
X39213029Y-47217400D01*
X39218126Y-47221632D01*
X39232503Y-47230033D01*
X39291445Y-47264476D01*
X39340169Y-47316114D01*
X39353240Y-47385897D01*
X39326509Y-47451669D01*
X39286055Y-47485027D01*
X39273607Y-47491507D01*
X39269474Y-47494610D01*
X39269471Y-47494612D01*
X39181606Y-47560583D01*
X39094965Y-47625635D01*
X39050906Y-47671740D01*
X38946088Y-47781426D01*
X38940629Y-47787138D01*
X38814743Y-47971680D01*
X38720688Y-48174305D01*
X38660989Y-48389570D01*
X38637251Y-48611695D01*
X38650110Y-48834715D01*
X38651247Y-48839761D01*
X38651248Y-48839767D01*
X38668956Y-48918342D01*
X38699222Y-49052639D01*
X38783266Y-49259616D01*
X38785966Y-49264022D01*
X38785968Y-49264026D01*
X38870297Y-49401640D01*
X38888835Y-49470173D01*
X38867378Y-49537850D01*
X38851960Y-49556569D01*
X38229865Y-50178665D01*
X38223598Y-50184519D01*
X38185740Y-50217544D01*
X38185737Y-50217547D01*
X38180015Y-50222539D01*
X38148073Y-50267988D01*
X38143272Y-50274819D01*
X38139339Y-50280114D01*
X38099924Y-50330382D01*
X38096801Y-50337298D01*
X38095417Y-50339584D01*
X38087043Y-50354265D01*
X38085778Y-50356625D01*
X38081410Y-50362839D01*
X38078650Y-50369918D01*
X38078649Y-50369920D01*
X38058198Y-50422375D01*
X38055647Y-50428444D01*
X38029355Y-50486673D01*
X38027971Y-50494140D01*
X38027170Y-50496695D01*
X38022541Y-50512948D01*
X38021878Y-50515528D01*
X38019118Y-50522609D01*
X38018127Y-50530140D01*
X38018126Y-50530142D01*
X38010779Y-50585952D01*
X38009748Y-50592459D01*
X37998104Y-50655286D01*
X37998541Y-50662866D01*
X37998541Y-50662867D01*
X38001691Y-50717492D01*
X38001900Y-50724746D01*
X38001900Y-51703188D01*
X38001608Y-51711758D01*
X37997675Y-51769452D01*
X37998980Y-51776929D01*
X37998980Y-51776930D01*
X38008661Y-51832399D01*
X38009623Y-51838921D01*
X38017298Y-51902342D01*
X38019981Y-51909443D01*
X38020622Y-51912052D01*
X38025085Y-51928362D01*
X38025850Y-51930898D01*
X38027157Y-51938384D01*
X38030211Y-51945341D01*
X38052842Y-51996895D01*
X38055333Y-52002999D01*
X38077913Y-52062756D01*
X38082217Y-52069019D01*
X38083454Y-52071385D01*
X38091699Y-52086197D01*
X38093032Y-52088451D01*
X38096085Y-52095405D01*
X38127727Y-52136640D01*
X38134979Y-52146091D01*
X38138859Y-52151432D01*
X38170739Y-52197820D01*
X38170744Y-52197825D01*
X38175043Y-52204081D01*
X38180713Y-52209132D01*
X38180714Y-52209134D01*
X38221570Y-52245535D01*
X38226846Y-52250516D01*
X38827391Y-52851061D01*
X38861417Y-52913373D01*
X38856352Y-52984188D01*
X38842386Y-53011156D01*
X38814743Y-53051680D01*
X38767715Y-53152993D01*
X38738235Y-53216504D01*
X38720688Y-53254305D01*
X38660989Y-53469570D01*
X38637251Y-53691695D01*
X38637548Y-53696848D01*
X38637548Y-53696851D01*
X38647219Y-53864580D01*
X38650110Y-53914715D01*
X38651247Y-53919761D01*
X38651248Y-53919767D01*
X38671119Y-54007939D01*
X38699222Y-54132639D01*
X38783266Y-54339616D01*
X38785965Y-54344020D01*
X38864553Y-54472264D01*
X38899987Y-54530088D01*
X39046250Y-54698938D01*
X39218126Y-54841632D01*
X39288595Y-54882811D01*
X39291445Y-54884476D01*
X39340169Y-54936114D01*
X39353240Y-55005897D01*
X39326509Y-55071669D01*
X39286055Y-55105027D01*
X39273607Y-55111507D01*
X39269474Y-55114610D01*
X39269471Y-55114612D01*
X39099100Y-55242530D01*
X39094965Y-55245635D01*
X38940629Y-55407138D01*
X38937715Y-55411410D01*
X38937714Y-55411411D01*
X38898267Y-55469238D01*
X38814743Y-55591680D01*
X38790147Y-55644668D01*
X38729700Y-55774891D01*
X38720688Y-55794305D01*
X38660989Y-56009570D01*
X38637251Y-56231695D01*
X38637548Y-56236848D01*
X38637548Y-56236851D01*
X38645544Y-56375526D01*
X38650110Y-56454715D01*
X38651247Y-56459761D01*
X38651248Y-56459767D01*
X38659708Y-56497306D01*
X38699222Y-56672639D01*
X38783266Y-56879616D01*
X38785965Y-56884020D01*
X38885936Y-57047158D01*
X38899987Y-57070088D01*
X39046250Y-57238938D01*
X39218126Y-57381632D01*
X39278114Y-57416686D01*
X39291445Y-57424476D01*
X39340169Y-57476114D01*
X39353240Y-57545897D01*
X39326509Y-57611669D01*
X39286055Y-57645027D01*
X39273607Y-57651507D01*
X39269474Y-57654610D01*
X39269471Y-57654612D01*
X39099100Y-57782530D01*
X39094965Y-57785635D01*
X39091393Y-57789373D01*
X39003843Y-57880989D01*
X38940629Y-57947138D01*
X38814743Y-58131680D01*
X38720688Y-58334305D01*
X38660989Y-58549570D01*
X38637251Y-58771695D01*
X38637548Y-58776848D01*
X38637548Y-58776851D01*
X38643973Y-58888281D01*
X38650110Y-58994715D01*
X38651247Y-58999761D01*
X38651248Y-58999767D01*
X38675304Y-59106508D01*
X38699222Y-59212639D01*
X38783266Y-59419616D01*
X38805221Y-59455443D01*
X38896041Y-59603648D01*
X38899987Y-59610088D01*
X39046250Y-59778938D01*
X39218126Y-59921632D01*
X39244162Y-59936846D01*
X39291445Y-59964476D01*
X39340169Y-60016114D01*
X39353240Y-60085897D01*
X39326509Y-60151669D01*
X39286055Y-60185027D01*
X39273607Y-60191507D01*
X39269474Y-60194610D01*
X39269471Y-60194612D01*
X39099100Y-60322530D01*
X39094965Y-60325635D01*
X39091393Y-60329373D01*
X38961592Y-60465202D01*
X38940629Y-60487138D01*
X38814743Y-60671680D01*
X38792220Y-60720202D01*
X38738272Y-60836424D01*
X38720688Y-60874305D01*
X38660989Y-61089570D01*
X38637251Y-61311695D01*
X38650110Y-61534715D01*
X38651247Y-61539761D01*
X38651248Y-61539767D01*
X38669309Y-61619908D01*
X38699222Y-61752639D01*
X38735923Y-61843023D01*
X38766535Y-61918411D01*
X38783266Y-61959616D01*
X38899987Y-62150088D01*
X39046250Y-62318938D01*
X39218126Y-62461632D01*
X39288595Y-62502811D01*
X39291445Y-62504476D01*
X39340169Y-62556114D01*
X39353240Y-62625897D01*
X39326509Y-62691669D01*
X39286055Y-62725027D01*
X39273607Y-62731507D01*
X39269474Y-62734610D01*
X39269471Y-62734612D01*
X39099100Y-62862530D01*
X39094965Y-62865635D01*
X38940629Y-63027138D01*
X38814743Y-63211680D01*
X38720688Y-63414305D01*
X38660989Y-63629570D01*
X38637251Y-63851695D01*
X38650110Y-64074715D01*
X38651247Y-64079761D01*
X38651248Y-64079767D01*
X38669309Y-64159908D01*
X38699222Y-64292639D01*
X38735923Y-64383023D01*
X38766535Y-64458411D01*
X38783266Y-64499616D01*
X38899987Y-64690088D01*
X39046250Y-64858938D01*
X39218126Y-65001632D01*
X39288595Y-65042811D01*
X39291445Y-65044476D01*
X39340169Y-65096114D01*
X39353240Y-65165897D01*
X39326509Y-65231669D01*
X39286055Y-65265027D01*
X39273607Y-65271507D01*
X39269474Y-65274610D01*
X39269471Y-65274612D01*
X39099100Y-65402530D01*
X39094965Y-65405635D01*
X38940629Y-65567138D01*
X38814743Y-65751680D01*
X38720688Y-65954305D01*
X38660989Y-66169570D01*
X38637251Y-66391695D01*
X38650110Y-66614715D01*
X38651247Y-66619761D01*
X38651248Y-66619767D01*
X38669309Y-66699908D01*
X38699222Y-66832639D01*
X38735923Y-66923023D01*
X38764979Y-66994579D01*
X38783266Y-67039616D01*
X38821483Y-67101981D01*
X38888292Y-67211003D01*
X38899987Y-67230088D01*
X39046250Y-67398938D01*
X39218126Y-67541632D01*
X39288595Y-67582811D01*
X39291445Y-67584476D01*
X39340169Y-67636114D01*
X39353240Y-67705897D01*
X39326509Y-67771669D01*
X39286055Y-67805027D01*
X39273607Y-67811507D01*
X39269474Y-67814610D01*
X39269471Y-67814612D01*
X39099100Y-67942530D01*
X39094965Y-67945635D01*
X38940629Y-68107138D01*
X38814743Y-68291680D01*
X38720688Y-68494305D01*
X38660989Y-68709570D01*
X38637251Y-68931695D01*
X38650110Y-69154715D01*
X38651247Y-69159761D01*
X38651248Y-69159767D01*
X38669309Y-69239908D01*
X38699222Y-69372639D01*
X38735923Y-69463023D01*
X38766535Y-69538411D01*
X38783266Y-69579616D01*
X38795863Y-69600173D01*
X38884921Y-69745502D01*
X38899987Y-69770088D01*
X38903367Y-69773990D01*
X38908986Y-69780477D01*
X39046250Y-69938938D01*
X39218126Y-70081632D01*
X39411000Y-70194338D01*
X39619692Y-70274030D01*
X39624760Y-70275061D01*
X39624763Y-70275062D01*
X39732017Y-70296883D01*
X39838597Y-70318567D01*
X39843772Y-70318757D01*
X39843774Y-70318757D01*
X40056673Y-70326564D01*
X40056677Y-70326564D01*
X40061837Y-70326753D01*
X40066957Y-70326097D01*
X40066959Y-70326097D01*
X40278288Y-70299025D01*
X40278289Y-70299025D01*
X40283416Y-70298368D01*
X40305778Y-70291659D01*
X40492429Y-70235661D01*
X40492434Y-70235659D01*
X40497384Y-70234174D01*
X40697994Y-70135896D01*
X40879860Y-70006173D01*
X41038096Y-69848489D01*
X41041112Y-69844292D01*
X41126132Y-69725974D01*
X41182127Y-69682326D01*
X41228455Y-69673500D01*
X79326188Y-69673500D01*
X79334758Y-69673792D01*
X79384876Y-69677209D01*
X79384880Y-69677209D01*
X79392452Y-69677725D01*
X79399929Y-69676420D01*
X79399930Y-69676420D01*
X79426408Y-69671799D01*
X79455403Y-69666738D01*
X79461921Y-69665777D01*
X79525342Y-69658102D01*
X79532443Y-69655419D01*
X79535052Y-69654778D01*
X79551362Y-69650315D01*
X79553898Y-69649550D01*
X79561384Y-69648243D01*
X79619900Y-69622556D01*
X79626004Y-69620065D01*
X79678648Y-69600173D01*
X79678649Y-69600172D01*
X79685756Y-69597487D01*
X79692019Y-69593183D01*
X79694385Y-69591946D01*
X79709197Y-69583701D01*
X79711451Y-69582368D01*
X79718405Y-69579315D01*
X79769102Y-69540413D01*
X79774432Y-69536541D01*
X79820820Y-69504661D01*
X79820825Y-69504656D01*
X79827081Y-69500357D01*
X79868536Y-69453829D01*
X79873516Y-69448554D01*
X91899295Y-57422776D01*
X91949454Y-57392038D01*
X92025205Y-57367425D01*
X92025206Y-57367425D01*
X92030248Y-57365786D01*
X92030251Y-57365786D01*
X92031908Y-57365247D01*
X92032003Y-57365538D01*
X92098472Y-57356153D01*
X92162978Y-57385810D01*
X92188676Y-57416684D01*
X92197147Y-57431007D01*
X92212311Y-57446171D01*
X92225151Y-57461204D01*
X92237759Y-57478557D01*
X92273352Y-57508002D01*
X92282132Y-57515992D01*
X104991045Y-70224905D01*
X104999035Y-70233685D01*
X105003284Y-70240380D01*
X105009062Y-70245806D01*
X105009063Y-70245807D01*
X105054957Y-70288904D01*
X105057799Y-70291659D01*
X105078367Y-70312227D01*
X105081870Y-70314944D01*
X105090895Y-70322652D01*
X105124567Y-70354272D01*
X105131518Y-70358093D01*
X105131519Y-70358094D01*
X105143358Y-70364603D01*
X105159882Y-70375457D01*
X105169971Y-70383282D01*
X105176832Y-70388604D01*
X105184104Y-70391751D01*
X105184106Y-70391752D01*
X105219235Y-70406954D01*
X105229896Y-70412176D01*
X105270363Y-70434424D01*
X105291141Y-70439759D01*
X105309831Y-70446158D01*
X105329524Y-70454680D01*
X105337347Y-70455919D01*
X105337350Y-70455920D01*
X105375157Y-70461908D01*
X105386779Y-70464315D01*
X105423833Y-70473829D01*
X105423837Y-70473830D01*
X105431512Y-70475800D01*
X105452953Y-70475800D01*
X105472662Y-70477351D01*
X105493852Y-70480707D01*
X105501744Y-70479961D01*
X105539848Y-70476359D01*
X105551706Y-70475800D01*
X124768307Y-70475800D01*
X124837300Y-70496368D01*
X124890372Y-70531097D01*
X124909359Y-70543522D01*
X124915963Y-70545978D01*
X124915965Y-70545979D01*
X125072758Y-70604290D01*
X125072760Y-70604290D01*
X125079368Y-70606748D01*
X125163195Y-70617933D01*
X125252180Y-70629807D01*
X125252184Y-70629807D01*
X125259161Y-70630738D01*
X125266172Y-70630100D01*
X125266176Y-70630100D01*
X125408659Y-70617132D01*
X125439800Y-70614298D01*
X125446502Y-70612120D01*
X125446504Y-70612120D01*
X125605609Y-70560424D01*
X125605612Y-70560423D01*
X125612308Y-70558247D01*
X125716111Y-70496368D01*
X125762060Y-70468977D01*
X125762062Y-70468976D01*
X125768112Y-70465369D01*
X125899466Y-70340282D01*
X125999843Y-70189202D01*
X126051396Y-70053489D01*
X126061755Y-70026220D01*
X126061756Y-70026218D01*
X126064255Y-70019638D01*
X126066148Y-70006173D01*
X126072484Y-69961088D01*
X126089499Y-69840017D01*
X126089783Y-69840057D01*
X126114283Y-69775444D01*
X126171349Y-69733207D01*
X126214739Y-69725500D01*
X127266359Y-69725500D01*
X127334480Y-69745502D01*
X127344106Y-69752347D01*
X127374001Y-69775788D01*
X127374006Y-69775791D01*
X127379982Y-69780477D01*
X127386904Y-69783602D01*
X127389152Y-69784964D01*
X127403885Y-69793368D01*
X127406224Y-69794622D01*
X127412439Y-69798990D01*
X127419515Y-69801749D01*
X127419519Y-69801751D01*
X127471969Y-69822200D01*
X127478034Y-69824749D01*
X127536273Y-69851045D01*
X127543738Y-69852429D01*
X127546282Y-69853226D01*
X127562548Y-69857859D01*
X127565128Y-69858521D01*
X127572209Y-69861282D01*
X127579742Y-69862274D01*
X127579743Y-69862274D01*
X127612399Y-69866573D01*
X127635557Y-69869622D01*
X127642055Y-69870650D01*
X127704887Y-69882296D01*
X127712467Y-69881859D01*
X127712468Y-69881859D01*
X127728890Y-69880912D01*
X127763123Y-69878938D01*
X127832281Y-69894985D01*
X127877808Y-69938895D01*
X127899987Y-69975088D01*
X128046250Y-70143938D01*
X128218126Y-70286632D01*
X128411000Y-70399338D01*
X128619692Y-70479030D01*
X128624760Y-70480061D01*
X128624763Y-70480062D01*
X128704910Y-70496368D01*
X128838597Y-70523567D01*
X128843772Y-70523757D01*
X128843774Y-70523757D01*
X129056673Y-70531564D01*
X129056677Y-70531564D01*
X129061837Y-70531753D01*
X129066957Y-70531097D01*
X129066959Y-70531097D01*
X129278288Y-70504025D01*
X129278289Y-70504025D01*
X129283416Y-70503368D01*
X129306748Y-70496368D01*
X129492429Y-70440661D01*
X129492434Y-70440659D01*
X129497384Y-70439174D01*
X129697994Y-70340896D01*
X129879860Y-70211173D01*
X129894905Y-70196181D01*
X130034435Y-70057137D01*
X130038096Y-70053489D01*
X130168453Y-69872077D01*
X130177158Y-69854465D01*
X130265136Y-69676453D01*
X130265137Y-69676451D01*
X130267430Y-69671811D01*
X130299900Y-69564940D01*
X130330865Y-69463023D01*
X130330865Y-69463021D01*
X130332370Y-69458069D01*
X130361529Y-69236590D01*
X130363156Y-69170000D01*
X130344852Y-68947361D01*
X130290431Y-68730702D01*
X130201354Y-68525840D01*
X130161906Y-68464862D01*
X130082822Y-68342617D01*
X130082820Y-68342614D01*
X130080014Y-68338277D01*
X129929670Y-68173051D01*
X129925619Y-68169852D01*
X129925615Y-68169848D01*
X129758414Y-68037800D01*
X129758410Y-68037798D01*
X129754359Y-68034598D01*
X129713053Y-68011796D01*
X129663084Y-67961364D01*
X129648312Y-67891921D01*
X129673428Y-67825516D01*
X129700780Y-67798909D01*
X129760426Y-67756364D01*
X129879860Y-67671173D01*
X130038096Y-67513489D01*
X130168453Y-67332077D01*
X130187892Y-67292746D01*
X130265136Y-67136453D01*
X130265137Y-67136451D01*
X130267430Y-67131811D01*
X130332370Y-66918069D01*
X130361529Y-66696590D01*
X130363156Y-66630000D01*
X130344852Y-66407361D01*
X130290431Y-66190702D01*
X130201354Y-65985840D01*
X130080014Y-65798277D01*
X129929670Y-65633051D01*
X129925619Y-65629852D01*
X129925615Y-65629848D01*
X129758414Y-65497800D01*
X129758410Y-65497798D01*
X129754359Y-65494598D01*
X129713053Y-65471796D01*
X129663084Y-65421364D01*
X129648312Y-65351921D01*
X129673428Y-65285516D01*
X129700780Y-65258909D01*
X129760426Y-65216364D01*
X129879860Y-65131173D01*
X130038096Y-64973489D01*
X130097594Y-64890689D01*
X130165435Y-64796277D01*
X130168453Y-64792077D01*
X130216931Y-64693990D01*
X130265136Y-64596453D01*
X130265137Y-64596451D01*
X130267430Y-64591811D01*
X130299900Y-64484940D01*
X130330865Y-64383023D01*
X130330865Y-64383021D01*
X130332370Y-64378069D01*
X130361529Y-64156590D01*
X130363156Y-64090000D01*
X130344852Y-63867361D01*
X130290431Y-63650702D01*
X130201354Y-63445840D01*
X130080014Y-63258277D01*
X129929670Y-63093051D01*
X129925619Y-63089852D01*
X129925615Y-63089848D01*
X129758414Y-62957800D01*
X129758410Y-62957798D01*
X129754359Y-62954598D01*
X129713053Y-62931796D01*
X129663084Y-62881364D01*
X129648312Y-62811921D01*
X129673428Y-62745516D01*
X129700780Y-62718909D01*
X129760426Y-62676364D01*
X129879860Y-62591173D01*
X130038096Y-62433489D01*
X130097594Y-62350689D01*
X130165435Y-62256277D01*
X130168453Y-62252077D01*
X130216931Y-62153990D01*
X130265136Y-62056453D01*
X130265137Y-62056451D01*
X130267430Y-62051811D01*
X130299900Y-61944940D01*
X130330865Y-61843023D01*
X130330865Y-61843021D01*
X130332370Y-61838069D01*
X130361529Y-61616590D01*
X130363156Y-61550000D01*
X130344852Y-61327361D01*
X130290431Y-61110702D01*
X130201354Y-60905840D01*
X130184183Y-60879297D01*
X130143774Y-60816834D01*
X130123567Y-60748773D01*
X130143363Y-60680593D01*
X130160471Y-60659299D01*
X130785433Y-60034338D01*
X131462328Y-59357443D01*
X131468593Y-59351589D01*
X131506464Y-59318552D01*
X131506465Y-59318551D01*
X131512185Y-59313561D01*
X131548936Y-59261271D01*
X131552828Y-59256029D01*
X131592276Y-59205718D01*
X131595400Y-59198799D01*
X131596788Y-59196507D01*
X131605157Y-59181835D01*
X131606422Y-59179475D01*
X131610790Y-59173261D01*
X131615741Y-59160564D01*
X131634002Y-59113725D01*
X131636559Y-59107642D01*
X131659718Y-59056352D01*
X131662845Y-59049427D01*
X131664230Y-59041954D01*
X131665034Y-59039388D01*
X131669655Y-59023165D01*
X131670320Y-59020573D01*
X131673082Y-59013491D01*
X131681422Y-58950139D01*
X131682454Y-58943623D01*
X131692711Y-58888281D01*
X131694095Y-58880814D01*
X131690509Y-58818620D01*
X131690300Y-58811367D01*
X131690300Y-47538327D01*
X131690592Y-47529758D01*
X131694010Y-47479625D01*
X131694010Y-47479621D01*
X131694526Y-47472048D01*
X131683536Y-47409081D01*
X131682575Y-47402565D01*
X131679136Y-47374144D01*
X131674902Y-47339158D01*
X131672219Y-47332057D01*
X131671578Y-47329448D01*
X131667109Y-47313115D01*
X131666348Y-47310595D01*
X131665043Y-47303117D01*
X131652222Y-47273909D01*
X131639359Y-47244604D01*
X131636868Y-47238499D01*
X131616975Y-47185856D01*
X131616973Y-47185852D01*
X131614287Y-47178744D01*
X131609984Y-47172483D01*
X131608747Y-47170117D01*
X131600520Y-47155337D01*
X131599169Y-47153052D01*
X131596115Y-47146095D01*
X131591495Y-47140075D01*
X131591492Y-47140069D01*
X131567606Y-47108942D01*
X131557213Y-47095398D01*
X131553341Y-47090068D01*
X131521461Y-47043680D01*
X131521456Y-47043675D01*
X131517157Y-47037419D01*
X131470629Y-46995964D01*
X131465354Y-46990984D01*
X129903450Y-45429080D01*
X129897596Y-45422815D01*
X129865800Y-45386367D01*
X129859561Y-45379215D01*
X129807280Y-45342471D01*
X129801986Y-45338539D01*
X129757693Y-45303809D01*
X129751718Y-45299124D01*
X129744802Y-45296001D01*
X129742516Y-45294617D01*
X129727835Y-45286243D01*
X129725475Y-45284978D01*
X129719261Y-45280610D01*
X129712182Y-45277850D01*
X129712180Y-45277849D01*
X129659725Y-45257398D01*
X129653656Y-45254847D01*
X129595427Y-45228555D01*
X129587960Y-45227171D01*
X129585405Y-45226370D01*
X129569152Y-45221741D01*
X129566572Y-45221078D01*
X129559491Y-45218318D01*
X129551960Y-45217327D01*
X129551958Y-45217326D01*
X129522339Y-45213427D01*
X129496139Y-45209978D01*
X129489641Y-45208948D01*
X129426814Y-45197304D01*
X129419234Y-45197741D01*
X129419233Y-45197741D01*
X129364608Y-45200891D01*
X129357354Y-45201100D01*
X126914053Y-45201100D01*
X126845932Y-45181098D01*
X126799439Y-45127442D01*
X126788838Y-45089144D01*
X126788524Y-45086339D01*
X126782097Y-45029045D01*
X126763153Y-44974644D01*
X126724764Y-44864406D01*
X126724762Y-44864403D01*
X126722445Y-44857748D01*
X126718709Y-44851769D01*
X126630059Y-44709898D01*
X126626326Y-44703924D01*
X126608366Y-44685838D01*
X126503478Y-44580215D01*
X126503474Y-44580212D01*
X126498515Y-44575218D01*
X126345366Y-44478027D01*
X126305679Y-44463895D01*
X126181125Y-44419543D01*
X126181120Y-44419542D01*
X126174490Y-44417181D01*
X126167502Y-44416348D01*
X126167499Y-44416347D01*
X126044398Y-44401668D01*
X125994380Y-44395704D01*
X125987377Y-44396440D01*
X125987376Y-44396440D01*
X125820988Y-44413928D01*
X125820986Y-44413929D01*
X125813988Y-44414664D01*
X125726956Y-44444292D01*
X125648949Y-44470847D01*
X125648946Y-44470848D01*
X125642279Y-44473118D01*
X125636276Y-44476811D01*
X125636274Y-44476812D01*
X125627649Y-44482118D01*
X125561628Y-44500800D01*
X115169660Y-44500800D01*
X115101539Y-44480798D01*
X115080565Y-44463895D01*
X112489450Y-41872780D01*
X112483596Y-41866515D01*
X112459655Y-41839071D01*
X112445561Y-41822915D01*
X112393280Y-41786171D01*
X112387986Y-41782239D01*
X112343693Y-41747509D01*
X112337718Y-41742824D01*
X112330802Y-41739701D01*
X112328516Y-41738317D01*
X112313835Y-41729943D01*
X112311475Y-41728678D01*
X112305261Y-41724310D01*
X112298182Y-41721550D01*
X112298180Y-41721549D01*
X112245725Y-41701098D01*
X112239656Y-41698547D01*
X112181427Y-41672255D01*
X112173960Y-41670871D01*
X112171405Y-41670070D01*
X112155152Y-41665441D01*
X112152572Y-41664778D01*
X112145491Y-41662018D01*
X112137960Y-41661027D01*
X112137958Y-41661026D01*
X112108339Y-41657127D01*
X112082139Y-41653678D01*
X112075641Y-41652648D01*
X112012814Y-41641004D01*
X112005234Y-41641441D01*
X112005233Y-41641441D01*
X111950608Y-41644591D01*
X111943354Y-41644800D01*
X105630258Y-41644800D01*
X105570724Y-41627505D01*
X105570048Y-41628890D01*
X105563709Y-41625798D01*
X105557766Y-41622027D01*
X105543980Y-41617118D01*
X105393525Y-41563543D01*
X105393520Y-41563542D01*
X105386890Y-41561181D01*
X105379902Y-41560348D01*
X105379899Y-41560347D01*
X105241482Y-41543842D01*
X105206780Y-41539704D01*
X105199777Y-41540440D01*
X105199776Y-41540440D01*
X105033388Y-41557928D01*
X105033386Y-41557929D01*
X105026388Y-41558664D01*
X104854679Y-41617118D01*
X104810023Y-41644591D01*
X104706195Y-41708466D01*
X104706192Y-41708468D01*
X104700188Y-41712162D01*
X104695153Y-41717093D01*
X104695150Y-41717095D01*
X104575625Y-41834143D01*
X104570593Y-41839071D01*
X104472335Y-41991538D01*
X104469926Y-41998158D01*
X104469924Y-41998161D01*
X104455090Y-42038918D01*
X104410297Y-42161985D01*
X104387563Y-42341940D01*
X104405263Y-42522460D01*
X104462518Y-42694573D01*
X104466165Y-42700595D01*
X104466166Y-42700597D01*
X104549081Y-42837506D01*
X104556480Y-42849724D01*
X104682482Y-42980202D01*
X104734548Y-43014273D01*
X104803852Y-43059624D01*
X104834259Y-43079522D01*
X104840863Y-43081978D01*
X104840865Y-43081979D01*
X104997658Y-43140290D01*
X104997660Y-43140290D01*
X105004268Y-43142748D01*
X105078089Y-43152598D01*
X105177080Y-43165807D01*
X105177084Y-43165807D01*
X105184061Y-43166738D01*
X105191072Y-43166100D01*
X105191076Y-43166100D01*
X105339428Y-43152598D01*
X105364700Y-43150298D01*
X105371402Y-43148120D01*
X105371404Y-43148120D01*
X105530509Y-43096424D01*
X105530512Y-43096423D01*
X105537208Y-43094247D01*
X105561827Y-43079571D01*
X105626345Y-43061800D01*
X111622340Y-43061800D01*
X111690461Y-43081802D01*
X111711435Y-43098705D01*
X112587435Y-43974705D01*
X112621461Y-44037017D01*
X112616396Y-44107832D01*
X112573849Y-44164668D01*
X112507329Y-44189479D01*
X112498340Y-44189800D01*
X104331960Y-44189800D01*
X104263839Y-44169798D01*
X104242865Y-44152895D01*
X102559673Y-42469703D01*
X102529777Y-42422046D01*
X102517065Y-42385543D01*
X102494745Y-42321448D01*
X102484662Y-42305312D01*
X102402359Y-42173598D01*
X102398626Y-42167624D01*
X102389835Y-42158771D01*
X102275778Y-42043915D01*
X102275774Y-42043912D01*
X102270815Y-42038918D01*
X102259697Y-42031862D01*
X102173972Y-41977460D01*
X102117666Y-41941727D01*
X102055855Y-41919717D01*
X101953425Y-41883243D01*
X101953420Y-41883242D01*
X101946790Y-41880881D01*
X101939802Y-41880048D01*
X101939799Y-41880047D01*
X101816698Y-41865368D01*
X101766680Y-41859404D01*
X101759677Y-41860140D01*
X101759676Y-41860140D01*
X101593288Y-41877628D01*
X101593286Y-41877629D01*
X101586288Y-41878364D01*
X101414579Y-41936818D01*
X101408575Y-41940512D01*
X101266095Y-42028166D01*
X101266092Y-42028168D01*
X101260088Y-42031862D01*
X101255053Y-42036793D01*
X101255050Y-42036795D01*
X101176929Y-42113297D01*
X101130493Y-42158771D01*
X101032235Y-42311238D01*
X101029826Y-42317858D01*
X101029824Y-42317861D01*
X100989155Y-42429598D01*
X100970197Y-42481685D01*
X100947463Y-42661640D01*
X100965163Y-42842160D01*
X101022418Y-43014273D01*
X101026065Y-43020295D01*
X101026066Y-43020297D01*
X101109541Y-43158131D01*
X101116380Y-43169424D01*
X101121269Y-43174487D01*
X101121270Y-43174488D01*
X101133101Y-43186739D01*
X101242382Y-43299902D01*
X101394159Y-43399222D01*
X101400763Y-43401678D01*
X101400765Y-43401679D01*
X101513439Y-43443582D01*
X101558614Y-43472584D01*
X102661034Y-44575005D01*
X102695060Y-44637317D01*
X102689995Y-44708133D01*
X102647448Y-44764968D01*
X102580928Y-44789779D01*
X102571939Y-44790100D01*
X100018958Y-44790100D01*
X99959424Y-44772805D01*
X99958748Y-44774190D01*
X99952409Y-44771098D01*
X99946466Y-44767327D01*
X99932680Y-44762418D01*
X99782225Y-44708843D01*
X99782220Y-44708842D01*
X99775590Y-44706481D01*
X99768602Y-44705648D01*
X99768599Y-44705647D01*
X99645498Y-44690968D01*
X99595480Y-44685004D01*
X99588477Y-44685740D01*
X99588476Y-44685740D01*
X99422088Y-44703228D01*
X99422086Y-44703229D01*
X99415088Y-44703964D01*
X99243379Y-44762418D01*
X99183217Y-44799430D01*
X99094895Y-44853766D01*
X99094892Y-44853768D01*
X99088888Y-44857462D01*
X99083853Y-44862393D01*
X99083850Y-44862395D01*
X98971109Y-44972800D01*
X98959293Y-44984371D01*
X98861035Y-45136838D01*
X98858626Y-45143458D01*
X98858624Y-45143461D01*
X98803608Y-45294617D01*
X98798997Y-45307285D01*
X98776263Y-45487240D01*
X98793963Y-45667760D01*
X98851218Y-45839873D01*
X98854865Y-45845895D01*
X98854866Y-45845897D01*
X98857091Y-45849570D01*
X98945180Y-45995024D01*
X98950069Y-46000087D01*
X98950070Y-46000088D01*
X98995989Y-46047638D01*
X99071182Y-46125502D01*
X99174199Y-46192914D01*
X99220246Y-46246950D01*
X99229770Y-46317304D01*
X99199746Y-46381640D01*
X99194300Y-46387440D01*
X94264134Y-51317606D01*
X94202096Y-51351572D01*
X94197295Y-51352628D01*
X94190288Y-51353364D01*
X94018579Y-51411818D01*
X94012575Y-51415512D01*
X93870095Y-51503166D01*
X93870092Y-51503168D01*
X93864088Y-51506862D01*
X93859053Y-51511793D01*
X93859050Y-51511795D01*
X93794970Y-51574547D01*
X93734493Y-51633771D01*
X93636235Y-51786238D01*
X93633826Y-51792858D01*
X93633824Y-51792861D01*
X93576606Y-51950066D01*
X93574197Y-51956685D01*
X93551463Y-52136640D01*
X93569163Y-52317160D01*
X93571387Y-52323845D01*
X93613258Y-52449714D01*
X93615781Y-52520666D01*
X93596412Y-52559081D01*
X93597793Y-52559971D01*
X93499535Y-52712438D01*
X93497126Y-52719058D01*
X93497124Y-52719061D01*
X93449080Y-52851061D01*
X93437497Y-52882885D01*
X93414763Y-53062840D01*
X93432463Y-53243360D01*
X93489718Y-53415473D01*
X93493365Y-53421495D01*
X93493366Y-53421497D01*
X93578882Y-53562701D01*
X93583680Y-53570624D01*
X93588569Y-53575687D01*
X93588570Y-53575688D01*
X93605329Y-53593042D01*
X93709682Y-53701102D01*
X93757969Y-53732700D01*
X93853033Y-53794908D01*
X93861459Y-53800422D01*
X93868063Y-53802878D01*
X93868065Y-53802879D01*
X94024858Y-53861190D01*
X94024860Y-53861190D01*
X94031468Y-53863648D01*
X94115295Y-53874833D01*
X94204280Y-53886707D01*
X94204284Y-53886707D01*
X94211261Y-53887638D01*
X94218272Y-53887000D01*
X94218276Y-53887000D01*
X94360759Y-53874032D01*
X94391900Y-53871198D01*
X94398602Y-53869020D01*
X94398604Y-53869020D01*
X94557709Y-53817324D01*
X94557712Y-53817323D01*
X94564408Y-53815147D01*
X94672903Y-53750471D01*
X94737420Y-53732700D01*
X95144144Y-53732700D01*
X95156000Y-53733259D01*
X95156003Y-53733259D01*
X95163737Y-53734988D01*
X95234569Y-53732762D01*
X95238527Y-53732700D01*
X95267632Y-53732700D01*
X95272032Y-53732144D01*
X95283864Y-53731212D01*
X95330031Y-53729762D01*
X95350621Y-53723780D01*
X95369982Y-53719770D01*
X95380118Y-53718490D01*
X95383404Y-53718075D01*
X95383405Y-53718075D01*
X95391264Y-53717082D01*
X95398629Y-53714166D01*
X95398633Y-53714165D01*
X95434221Y-53700074D01*
X95445431Y-53696235D01*
X95489800Y-53683345D01*
X95508265Y-53672425D01*
X95526005Y-53663734D01*
X95545956Y-53655835D01*
X95583329Y-53628682D01*
X95593248Y-53622167D01*
X95626177Y-53602693D01*
X95626181Y-53602690D01*
X95633007Y-53598653D01*
X95648171Y-53583489D01*
X95663205Y-53570648D01*
X95674143Y-53562701D01*
X95680557Y-53558041D01*
X95710003Y-53522447D01*
X95717992Y-53513668D01*
X101159602Y-48072057D01*
X101221914Y-48038031D01*
X101292729Y-48043096D01*
X101339333Y-48073624D01*
X101383168Y-48119016D01*
X101399282Y-48135702D01*
X101551059Y-48235022D01*
X101557663Y-48237478D01*
X101557665Y-48237479D01*
X101670339Y-48279382D01*
X101715514Y-48308384D01*
X122350834Y-68943705D01*
X122384860Y-69006017D01*
X122379795Y-69076832D01*
X122337248Y-69133668D01*
X122270728Y-69158479D01*
X122261739Y-69158800D01*
X105839650Y-69158800D01*
X105771529Y-69138798D01*
X105750555Y-69121895D01*
X100802489Y-64173829D01*
X100768463Y-64111517D01*
X100773528Y-64040702D01*
X100804691Y-63993489D01*
X100834563Y-63965042D01*
X100834565Y-63965040D01*
X100839666Y-63960182D01*
X100940043Y-63809102D01*
X101004455Y-63639538D01*
X101007299Y-63619305D01*
X101029148Y-63463839D01*
X101029148Y-63463836D01*
X101029699Y-63459917D01*
X101029852Y-63448938D01*
X101029961Y-63441162D01*
X101029961Y-63441157D01*
X101030016Y-63437200D01*
X101009797Y-63256945D01*
X100981783Y-63176500D01*
X100952464Y-63092306D01*
X100952462Y-63092303D01*
X100950145Y-63085648D01*
X100932626Y-63057612D01*
X100894046Y-62995870D01*
X100874900Y-62929101D01*
X100874900Y-56028860D01*
X100875459Y-56017003D01*
X100877189Y-56009263D01*
X100874962Y-55938399D01*
X100874900Y-55934441D01*
X100874900Y-55905368D01*
X100874347Y-55900989D01*
X100873414Y-55889146D01*
X100873311Y-55885847D01*
X100871963Y-55842969D01*
X100865979Y-55822371D01*
X100861971Y-55803018D01*
X100860629Y-55792401D01*
X100859282Y-55781736D01*
X100842275Y-55738782D01*
X100838429Y-55727547D01*
X100827758Y-55690816D01*
X100827757Y-55690813D01*
X100825545Y-55683200D01*
X100814625Y-55664735D01*
X100805934Y-55646995D01*
X100798035Y-55627044D01*
X100770882Y-55589671D01*
X100764367Y-55579752D01*
X100744893Y-55546823D01*
X100744890Y-55546819D01*
X100740853Y-55539993D01*
X100725689Y-55524829D01*
X100712848Y-55509795D01*
X100704901Y-55498857D01*
X100700241Y-55492443D01*
X100664647Y-55462997D01*
X100655868Y-55455008D01*
X99004955Y-53804095D01*
X98970929Y-53741783D01*
X98969769Y-53734726D01*
X98969182Y-53732143D01*
X98968397Y-53725145D01*
X98916351Y-53575688D01*
X98911064Y-53560506D01*
X98911062Y-53560503D01*
X98908745Y-53553848D01*
X98876573Y-53502361D01*
X98816359Y-53405998D01*
X98812626Y-53400024D01*
X98798941Y-53386243D01*
X98689778Y-53276315D01*
X98689774Y-53276312D01*
X98684815Y-53271318D01*
X98673697Y-53264262D01*
X98625538Y-53233700D01*
X98531666Y-53174127D01*
X98502463Y-53163728D01*
X98367425Y-53115643D01*
X98367420Y-53115642D01*
X98360790Y-53113281D01*
X98353802Y-53112448D01*
X98353799Y-53112447D01*
X98230698Y-53097768D01*
X98180680Y-53091804D01*
X98173677Y-53092540D01*
X98173676Y-53092540D01*
X98007288Y-53110028D01*
X98007286Y-53110029D01*
X98000288Y-53110764D01*
X97828579Y-53169218D01*
X97822575Y-53172912D01*
X97680095Y-53260566D01*
X97680092Y-53260568D01*
X97674088Y-53264262D01*
X97669053Y-53269193D01*
X97669050Y-53269195D01*
X97549525Y-53386243D01*
X97544493Y-53391171D01*
X97446235Y-53543638D01*
X97443826Y-53550258D01*
X97443824Y-53550261D01*
X97388922Y-53701102D01*
X97384197Y-53714085D01*
X97361463Y-53894040D01*
X97379163Y-54074560D01*
X97436418Y-54246673D01*
X97440065Y-54252695D01*
X97440066Y-54252697D01*
X97492706Y-54339616D01*
X97530380Y-54401824D01*
X97535269Y-54406887D01*
X97535270Y-54406888D01*
X97580094Y-54453304D01*
X97656382Y-54532302D01*
X97662278Y-54536160D01*
X97769532Y-54606345D01*
X97808159Y-54631622D01*
X97814763Y-54634078D01*
X97814765Y-54634079D01*
X97971558Y-54692390D01*
X97971560Y-54692390D01*
X97978168Y-54694848D01*
X97985153Y-54695780D01*
X97985157Y-54695781D01*
X97997339Y-54697406D01*
X97999385Y-54697679D01*
X98064262Y-54726514D01*
X98071817Y-54733477D01*
X99520995Y-56182655D01*
X99555021Y-56244967D01*
X99557900Y-56271750D01*
X99557900Y-62625050D01*
X99537898Y-62693171D01*
X99484242Y-62739664D01*
X99413968Y-62749768D01*
X99349388Y-62720274D01*
X99342805Y-62714145D01*
X93417005Y-56788345D01*
X93382979Y-56726033D01*
X93380100Y-56699250D01*
X93380100Y-55774891D01*
X93401151Y-55705165D01*
X93445243Y-55638802D01*
X93491202Y-55517815D01*
X93507155Y-55475820D01*
X93507156Y-55475818D01*
X93509655Y-55469238D01*
X93511744Y-55454373D01*
X93534348Y-55293539D01*
X93534348Y-55293536D01*
X93534899Y-55289617D01*
X93535216Y-55266900D01*
X93514997Y-55086645D01*
X93512680Y-55079991D01*
X93457664Y-54922006D01*
X93457662Y-54922003D01*
X93455345Y-54915348D01*
X93436054Y-54884476D01*
X93362959Y-54767498D01*
X93359226Y-54761524D01*
X93326150Y-54728216D01*
X93236378Y-54637815D01*
X93236374Y-54637812D01*
X93231415Y-54632818D01*
X93223452Y-54627764D01*
X93161581Y-54588500D01*
X93078266Y-54535627D01*
X93049063Y-54525228D01*
X92914025Y-54477143D01*
X92914020Y-54477142D01*
X92907390Y-54474781D01*
X92900402Y-54473948D01*
X92900399Y-54473947D01*
X92777298Y-54459268D01*
X92727280Y-54453304D01*
X92720277Y-54454040D01*
X92720276Y-54454040D01*
X92553888Y-54471528D01*
X92553886Y-54471529D01*
X92546888Y-54472264D01*
X92375179Y-54530718D01*
X92361057Y-54539406D01*
X92226695Y-54622066D01*
X92226692Y-54622068D01*
X92220688Y-54625762D01*
X92215653Y-54630693D01*
X92215650Y-54630695D01*
X92110693Y-54733477D01*
X92091093Y-54752671D01*
X91992835Y-54905138D01*
X91990426Y-54911758D01*
X91990424Y-54911761D01*
X91955266Y-55008357D01*
X91930797Y-55075585D01*
X91908063Y-55255540D01*
X91925763Y-55436060D01*
X91983018Y-55608173D01*
X91986665Y-55614195D01*
X92003311Y-55641681D01*
X92021489Y-55710311D01*
X91999678Y-55777874D01*
X91944802Y-55822920D01*
X91880616Y-55832065D01*
X91701480Y-55810704D01*
X91694477Y-55811440D01*
X91694476Y-55811440D01*
X91528088Y-55828928D01*
X91528086Y-55828929D01*
X91521088Y-55829664D01*
X91349379Y-55888118D01*
X91328458Y-55900989D01*
X91200895Y-55979466D01*
X91200892Y-55979468D01*
X91194888Y-55983162D01*
X91189853Y-55988093D01*
X91189850Y-55988095D01*
X91070325Y-56105143D01*
X91065293Y-56110071D01*
X90967035Y-56262538D01*
X90964625Y-56269158D01*
X90964624Y-56269161D01*
X90925910Y-56375526D01*
X90896604Y-56421526D01*
X87499945Y-59818185D01*
X87437633Y-59852211D01*
X87366818Y-59847146D01*
X87309982Y-59804599D01*
X87291859Y-59770528D01*
X87261828Y-59684292D01*
X87233745Y-59603648D01*
X87137626Y-59449824D01*
X87123941Y-59436043D01*
X87014778Y-59326115D01*
X87014774Y-59326112D01*
X87009815Y-59321118D01*
X86999367Y-59314487D01*
X86950538Y-59283500D01*
X86856666Y-59223927D01*
X86805529Y-59205718D01*
X86692425Y-59165443D01*
X86692420Y-59165442D01*
X86685790Y-59163081D01*
X86678802Y-59162248D01*
X86678799Y-59162247D01*
X86555698Y-59147568D01*
X86505680Y-59141604D01*
X86498677Y-59142340D01*
X86498676Y-59142340D01*
X86332288Y-59159828D01*
X86332286Y-59159829D01*
X86325288Y-59160564D01*
X86153579Y-59219018D01*
X86147575Y-59222712D01*
X86005095Y-59310366D01*
X86005092Y-59310368D01*
X85999088Y-59314062D01*
X85994053Y-59318993D01*
X85994050Y-59318995D01*
X85874525Y-59436043D01*
X85869493Y-59440971D01*
X85771235Y-59593438D01*
X85768825Y-59600058D01*
X85768824Y-59600061D01*
X85730110Y-59706426D01*
X85700804Y-59752426D01*
X79773635Y-65679595D01*
X79711323Y-65713621D01*
X79684540Y-65716500D01*
X41228286Y-65716500D01*
X41160165Y-65696498D01*
X41122494Y-65658941D01*
X41080014Y-65593277D01*
X40929670Y-65428051D01*
X40925619Y-65424852D01*
X40925615Y-65424848D01*
X40758414Y-65292800D01*
X40758410Y-65292798D01*
X40754359Y-65289598D01*
X40713053Y-65266796D01*
X40663084Y-65216364D01*
X40648312Y-65146921D01*
X40673428Y-65080516D01*
X40700780Y-65053909D01*
X40744603Y-65022650D01*
X40879860Y-64926173D01*
X41038096Y-64768489D01*
X41080829Y-64709020D01*
X41126132Y-64645974D01*
X41182127Y-64602326D01*
X41228455Y-64593500D01*
X78410588Y-64593500D01*
X78419158Y-64593792D01*
X78469276Y-64597209D01*
X78469280Y-64597209D01*
X78476852Y-64597725D01*
X78484329Y-64596420D01*
X78484330Y-64596420D01*
X78510808Y-64591799D01*
X78539803Y-64586738D01*
X78546321Y-64585777D01*
X78609742Y-64578102D01*
X78616843Y-64575419D01*
X78619452Y-64574778D01*
X78635762Y-64570315D01*
X78638298Y-64569550D01*
X78645784Y-64568243D01*
X78704300Y-64542556D01*
X78710404Y-64540065D01*
X78763048Y-64520173D01*
X78763049Y-64520172D01*
X78770156Y-64517487D01*
X78776419Y-64513183D01*
X78778785Y-64511946D01*
X78793597Y-64503701D01*
X78795851Y-64502368D01*
X78802805Y-64499315D01*
X78853502Y-64460413D01*
X78858832Y-64456541D01*
X78905220Y-64424661D01*
X78905225Y-64424656D01*
X78911481Y-64420357D01*
X78952936Y-64373829D01*
X78957916Y-64368554D01*
X85303195Y-58023276D01*
X85353354Y-57992538D01*
X85429109Y-57967924D01*
X85429112Y-57967923D01*
X85435808Y-57965747D01*
X85591612Y-57872869D01*
X85722966Y-57747782D01*
X85823343Y-57596702D01*
X85881373Y-57443938D01*
X85885255Y-57433720D01*
X85885256Y-57433718D01*
X85887755Y-57427138D01*
X85893784Y-57384242D01*
X85912448Y-57251439D01*
X85912448Y-57251436D01*
X85912999Y-57247517D01*
X85913316Y-57224800D01*
X85893097Y-57044545D01*
X85885255Y-57022026D01*
X85835764Y-56879906D01*
X85835762Y-56879903D01*
X85833445Y-56873248D01*
X85737326Y-56719424D01*
X85723641Y-56705643D01*
X85614478Y-56595715D01*
X85614474Y-56595712D01*
X85609515Y-56590718D01*
X85598397Y-56583662D01*
X85550238Y-56553100D01*
X85456366Y-56493527D01*
X85361557Y-56459767D01*
X85292125Y-56435043D01*
X85292120Y-56435042D01*
X85285490Y-56432681D01*
X85278502Y-56431848D01*
X85278499Y-56431847D01*
X85155398Y-56417168D01*
X85105380Y-56411204D01*
X85098377Y-56411940D01*
X85098376Y-56411940D01*
X84931988Y-56429428D01*
X84931986Y-56429429D01*
X84924988Y-56430164D01*
X84753279Y-56488618D01*
X84747275Y-56492312D01*
X84604795Y-56579966D01*
X84604792Y-56579968D01*
X84598788Y-56583662D01*
X84593753Y-56588593D01*
X84593750Y-56588595D01*
X84474225Y-56705643D01*
X84469193Y-56710571D01*
X84370935Y-56863038D01*
X84368525Y-56869658D01*
X84368524Y-56869661D01*
X84329810Y-56976026D01*
X84300504Y-57022026D01*
X78182935Y-63139595D01*
X78120623Y-63173621D01*
X78093840Y-63176500D01*
X41228286Y-63176500D01*
X41160165Y-63156498D01*
X41122494Y-63118941D01*
X41080014Y-63053277D01*
X40929670Y-62888051D01*
X40925619Y-62884852D01*
X40925615Y-62884848D01*
X40758414Y-62752800D01*
X40758410Y-62752798D01*
X40754359Y-62749598D01*
X40713053Y-62726796D01*
X40663084Y-62676364D01*
X40648312Y-62606921D01*
X40673428Y-62540516D01*
X40700780Y-62513909D01*
X40744603Y-62482650D01*
X40879860Y-62386173D01*
X41038096Y-62228489D01*
X41080829Y-62169020D01*
X41126132Y-62105974D01*
X41182127Y-62062326D01*
X41228455Y-62053500D01*
X77808188Y-62053500D01*
X77816758Y-62053792D01*
X77866876Y-62057209D01*
X77866880Y-62057209D01*
X77874452Y-62057725D01*
X77881929Y-62056420D01*
X77881930Y-62056420D01*
X77908408Y-62051799D01*
X77937403Y-62046738D01*
X77943921Y-62045777D01*
X78007342Y-62038102D01*
X78014443Y-62035419D01*
X78017052Y-62034778D01*
X78033362Y-62030315D01*
X78035898Y-62029550D01*
X78043384Y-62028243D01*
X78101900Y-62002556D01*
X78108004Y-62000065D01*
X78160648Y-61980173D01*
X78160649Y-61980172D01*
X78167756Y-61977487D01*
X78174019Y-61973183D01*
X78176385Y-61971946D01*
X78191197Y-61963701D01*
X78193451Y-61962368D01*
X78200405Y-61959315D01*
X78251102Y-61920413D01*
X78256432Y-61916541D01*
X78302820Y-61884661D01*
X78302825Y-61884656D01*
X78309081Y-61880357D01*
X78350536Y-61833829D01*
X78355516Y-61828554D01*
X91015920Y-49168150D01*
X91022185Y-49162296D01*
X91022638Y-49161901D01*
X91065785Y-49124261D01*
X91102529Y-49071980D01*
X91106461Y-49066686D01*
X91141191Y-49022393D01*
X91145876Y-49016418D01*
X91148999Y-49009502D01*
X91150383Y-49007216D01*
X91158757Y-48992535D01*
X91160022Y-48990175D01*
X91164390Y-48983961D01*
X91187603Y-48924423D01*
X91190159Y-48918342D01*
X91213318Y-48867052D01*
X91216445Y-48860127D01*
X91217830Y-48852654D01*
X91218634Y-48850088D01*
X91223255Y-48833865D01*
X91223920Y-48831273D01*
X91226682Y-48824191D01*
X91235022Y-48760839D01*
X91236054Y-48754323D01*
X91246311Y-48698981D01*
X91247695Y-48691514D01*
X91244109Y-48629320D01*
X91243900Y-48622067D01*
X91243900Y-45334212D01*
X91244192Y-45325642D01*
X91247609Y-45275524D01*
X91247609Y-45275520D01*
X91248125Y-45267948D01*
X91245838Y-45254841D01*
X91240653Y-45225135D01*
X91237139Y-45205003D01*
X91236177Y-45198482D01*
X91236087Y-45197741D01*
X91228502Y-45135058D01*
X91225816Y-45127950D01*
X91225179Y-45125356D01*
X91220718Y-45109050D01*
X91219948Y-45106499D01*
X91218642Y-45099016D01*
X91209314Y-45077765D01*
X91192961Y-45040512D01*
X91190469Y-45034405D01*
X91170573Y-44981752D01*
X91170573Y-44981751D01*
X91167887Y-44974644D01*
X91163584Y-44968383D01*
X91162347Y-44966017D01*
X91154120Y-44951237D01*
X91152769Y-44948952D01*
X91149715Y-44941995D01*
X91145095Y-44935975D01*
X91145092Y-44935969D01*
X91110821Y-44891309D01*
X91106941Y-44885968D01*
X91075061Y-44839580D01*
X91075056Y-44839575D01*
X91070757Y-44833319D01*
X91024229Y-44791864D01*
X91018954Y-44786884D01*
X90316050Y-44083980D01*
X90310196Y-44077715D01*
X90308412Y-44075670D01*
X90272161Y-44034115D01*
X90219880Y-43997371D01*
X90214586Y-43993439D01*
X90170293Y-43958709D01*
X90164318Y-43954024D01*
X90157402Y-43950901D01*
X90155116Y-43949517D01*
X90140435Y-43941143D01*
X90138075Y-43939878D01*
X90131861Y-43935510D01*
X90124782Y-43932750D01*
X90124780Y-43932749D01*
X90072325Y-43912298D01*
X90066256Y-43909747D01*
X90008027Y-43883455D01*
X90000560Y-43882071D01*
X89998005Y-43881270D01*
X89981752Y-43876641D01*
X89979172Y-43875978D01*
X89972091Y-43873218D01*
X89964560Y-43872227D01*
X89964558Y-43872226D01*
X89934939Y-43868327D01*
X89908739Y-43864878D01*
X89902241Y-43863848D01*
X89839414Y-43852204D01*
X89831834Y-43852641D01*
X89831833Y-43852641D01*
X89777208Y-43855791D01*
X89769954Y-43856000D01*
X89229727Y-43856000D01*
X89221158Y-43855708D01*
X89171025Y-43852290D01*
X89171021Y-43852290D01*
X89163448Y-43851774D01*
X89100481Y-43862764D01*
X89093969Y-43863724D01*
X89030558Y-43871398D01*
X89023457Y-43874081D01*
X89020848Y-43874722D01*
X89004515Y-43879191D01*
X89001995Y-43879952D01*
X88994517Y-43881257D01*
X88987565Y-43884309D01*
X88987564Y-43884309D01*
X88936004Y-43906941D01*
X88929899Y-43909432D01*
X88877256Y-43929325D01*
X88877252Y-43929327D01*
X88870144Y-43932013D01*
X88863883Y-43936316D01*
X88861517Y-43937553D01*
X88846737Y-43945780D01*
X88844452Y-43947131D01*
X88837495Y-43950185D01*
X88831475Y-43954805D01*
X88831469Y-43954808D01*
X88800342Y-43978694D01*
X88786798Y-43989087D01*
X88781468Y-43992959D01*
X88735080Y-44024839D01*
X88735075Y-44024844D01*
X88728819Y-44029143D01*
X88723768Y-44034813D01*
X88723766Y-44034814D01*
X88687365Y-44075670D01*
X88682384Y-44080946D01*
X87861180Y-44902150D01*
X87854915Y-44908004D01*
X87811315Y-44946039D01*
X87784375Y-44984371D01*
X87774572Y-44998319D01*
X87770639Y-45003614D01*
X87731224Y-45053882D01*
X87728101Y-45060798D01*
X87726717Y-45063084D01*
X87718343Y-45077765D01*
X87717078Y-45080125D01*
X87712710Y-45086339D01*
X87709950Y-45093418D01*
X87709949Y-45093420D01*
X87689498Y-45145875D01*
X87686947Y-45151944D01*
X87660655Y-45210173D01*
X87659271Y-45217640D01*
X87658470Y-45220195D01*
X87653841Y-45236448D01*
X87653178Y-45239028D01*
X87650418Y-45246109D01*
X87643236Y-45300666D01*
X87642079Y-45309452D01*
X87641048Y-45315959D01*
X87629404Y-45378786D01*
X87629841Y-45386366D01*
X87629841Y-45386367D01*
X87632991Y-45440992D01*
X87633200Y-45448246D01*
X87633200Y-45979110D01*
X87617041Y-46033998D01*
X87619883Y-46035409D01*
X87616753Y-46041713D01*
X87612935Y-46047638D01*
X87610526Y-46054258D01*
X87610524Y-46054261D01*
X87583191Y-46129359D01*
X87550897Y-46218085D01*
X87528163Y-46398040D01*
X87545863Y-46578560D01*
X87603118Y-46750673D01*
X87606765Y-46756695D01*
X87606766Y-46756697D01*
X87639821Y-46811277D01*
X87697080Y-46905824D01*
X87823082Y-47036302D01*
X87828974Y-47040157D01*
X87828978Y-47040161D01*
X87916295Y-47097299D01*
X87962344Y-47151336D01*
X87971867Y-47221691D01*
X87941842Y-47286026D01*
X87913332Y-47310042D01*
X87784888Y-47389062D01*
X87779853Y-47393993D01*
X87779850Y-47393995D01*
X87661801Y-47509598D01*
X87655293Y-47515971D01*
X87557035Y-47668438D01*
X87554625Y-47675058D01*
X87554624Y-47675061D01*
X87515910Y-47781426D01*
X87486604Y-47827426D01*
X84874435Y-50439595D01*
X84812123Y-50473621D01*
X84785340Y-50476500D01*
X81992560Y-50476500D01*
X81924439Y-50456498D01*
X81877946Y-50402842D01*
X81867842Y-50332568D01*
X81897336Y-50267988D01*
X81903465Y-50261405D01*
X88206293Y-43958577D01*
X88256451Y-43927839D01*
X88332211Y-43903223D01*
X88338908Y-43901047D01*
X88494712Y-43808169D01*
X88626066Y-43683082D01*
X88726443Y-43532002D01*
X88776882Y-43399222D01*
X88788355Y-43369020D01*
X88788356Y-43369018D01*
X88790855Y-43362438D01*
X88804224Y-43267315D01*
X88815548Y-43186739D01*
X88815548Y-43186736D01*
X88816099Y-43182817D01*
X88816286Y-43169424D01*
X88816361Y-43164062D01*
X88816361Y-43164057D01*
X88816416Y-43160100D01*
X88796197Y-42979845D01*
X88763690Y-42886498D01*
X88738864Y-42815206D01*
X88738862Y-42815203D01*
X88736545Y-42808548D01*
X88640426Y-42654724D01*
X88585712Y-42599627D01*
X88551905Y-42537197D01*
X88557217Y-42466399D01*
X88586023Y-42421748D01*
X88715295Y-42292476D01*
X88765454Y-42261738D01*
X88841209Y-42237124D01*
X88841212Y-42237123D01*
X88847908Y-42234947D01*
X89003712Y-42142069D01*
X89135066Y-42016982D01*
X89235443Y-41865902D01*
X89280417Y-41747509D01*
X89297355Y-41702920D01*
X89297356Y-41702918D01*
X89299855Y-41696338D01*
X89304265Y-41664962D01*
X89317814Y-41568554D01*
X89347102Y-41503880D01*
X89406706Y-41465307D01*
X89459252Y-41461197D01*
X89522279Y-41469607D01*
X89522284Y-41469607D01*
X89529261Y-41470538D01*
X89536272Y-41469900D01*
X89536276Y-41469900D01*
X89678759Y-41456932D01*
X89709900Y-41454098D01*
X89716602Y-41451920D01*
X89716604Y-41451920D01*
X89875709Y-41400224D01*
X89875712Y-41400223D01*
X89882408Y-41398047D01*
X89987160Y-41335602D01*
X90032160Y-41308777D01*
X90032162Y-41308776D01*
X90038212Y-41305169D01*
X90169566Y-41180082D01*
X90269943Y-41029002D01*
X90334355Y-40859438D01*
X90351318Y-40738739D01*
X90359048Y-40683739D01*
X90359048Y-40683736D01*
X90359599Y-40679817D01*
X90359916Y-40657100D01*
X90339697Y-40476845D01*
X90323696Y-40430896D01*
X90282364Y-40312206D01*
X90282362Y-40312203D01*
X90280045Y-40305548D01*
X90276309Y-40299569D01*
X90187659Y-40157698D01*
X90183926Y-40151724D01*
X90178964Y-40146727D01*
X90061078Y-40028015D01*
X90061074Y-40028012D01*
X90056115Y-40023018D01*
X89902966Y-39925827D01*
X89873763Y-39915428D01*
X89738725Y-39867343D01*
X89738720Y-39867342D01*
X89732090Y-39864981D01*
X89725102Y-39864148D01*
X89725099Y-39864147D01*
X89601998Y-39849468D01*
X89551980Y-39843504D01*
X89544977Y-39844240D01*
X89544976Y-39844240D01*
X89378588Y-39861728D01*
X89378586Y-39861729D01*
X89371588Y-39862464D01*
X89289035Y-39890567D01*
X89206549Y-39918647D01*
X89206546Y-39918648D01*
X89199879Y-39920918D01*
X89193881Y-39924608D01*
X89193879Y-39924609D01*
X89103976Y-39979918D01*
X89037954Y-39998600D01*
X88916763Y-39998600D01*
X88848642Y-39978598D01*
X88802149Y-39924942D01*
X88792045Y-39854668D01*
X88798975Y-39827856D01*
X88801896Y-39820168D01*
X88809422Y-39800354D01*
X88822655Y-39765520D01*
X88822656Y-39765518D01*
X88825155Y-39758938D01*
X88826368Y-39750309D01*
X88849848Y-39583239D01*
X88849848Y-39583236D01*
X88850399Y-39579317D01*
X88850716Y-39556600D01*
X88830497Y-39376345D01*
X88814326Y-39329908D01*
X88773164Y-39211706D01*
X88773162Y-39211703D01*
X88770845Y-39205048D01*
X88674726Y-39051224D01*
X88666085Y-39042522D01*
X88551878Y-38927515D01*
X88551874Y-38927512D01*
X88546915Y-38922518D01*
X88393766Y-38825327D01*
X88364563Y-38814928D01*
X88229525Y-38766843D01*
X88229520Y-38766842D01*
X88222890Y-38764481D01*
X88215902Y-38763648D01*
X88215899Y-38763647D01*
X88092798Y-38748968D01*
X88042780Y-38743004D01*
X88035777Y-38743740D01*
X88035776Y-38743740D01*
X87869388Y-38761228D01*
X87869386Y-38761229D01*
X87862388Y-38761964D01*
X87782074Y-38789305D01*
X87697349Y-38818147D01*
X87697346Y-38818148D01*
X87690679Y-38820418D01*
X87684676Y-38824111D01*
X87684674Y-38824112D01*
X87676049Y-38829418D01*
X87610028Y-38848100D01*
X39049712Y-38848100D01*
X39041142Y-38847808D01*
X38991024Y-38844391D01*
X38991020Y-38844391D01*
X38983448Y-38843875D01*
X38975971Y-38845180D01*
X38975970Y-38845180D01*
X38949492Y-38849801D01*
X38920497Y-38854862D01*
X38913979Y-38855823D01*
X38850558Y-38863498D01*
X38843457Y-38866181D01*
X38840848Y-38866822D01*
X38824538Y-38871285D01*
X38822002Y-38872050D01*
X38814516Y-38873357D01*
X38807559Y-38876411D01*
X38756005Y-38899042D01*
X38749901Y-38901533D01*
X38690144Y-38924113D01*
X38683881Y-38928417D01*
X38681515Y-38929654D01*
X38666703Y-38937899D01*
X38664449Y-38939232D01*
X38657495Y-38942285D01*
X38606798Y-38981187D01*
X38601468Y-38985059D01*
X38555080Y-39016939D01*
X38555075Y-39016944D01*
X38548819Y-39021243D01*
X38543768Y-39026913D01*
X38543766Y-39026914D01*
X38507365Y-39067770D01*
X38502384Y-39073046D01*
X38169080Y-39406350D01*
X38162815Y-39412204D01*
X38119215Y-39450239D01*
X38114848Y-39456453D01*
X38082472Y-39502519D01*
X38078539Y-39507814D01*
X38039124Y-39558082D01*
X38036001Y-39564998D01*
X38034617Y-39567284D01*
X38026243Y-39581965D01*
X38024978Y-39584325D01*
X38020610Y-39590539D01*
X38017850Y-39597618D01*
X38017849Y-39597620D01*
X37997398Y-39650075D01*
X37994847Y-39656144D01*
X37968555Y-39714373D01*
X37967171Y-39721840D01*
X37966370Y-39724395D01*
X37961741Y-39740648D01*
X37961078Y-39743228D01*
X37958318Y-39750309D01*
X37957327Y-39757840D01*
X37957326Y-39757842D01*
X37949979Y-39813652D01*
X37948948Y-39820159D01*
X37937304Y-39882986D01*
X37937741Y-39890566D01*
X37937741Y-39890567D01*
X37940891Y-39945192D01*
X37941100Y-39952446D01*
X37941100Y-44725688D01*
X37940808Y-44734258D01*
X37938086Y-44774190D01*
X37936875Y-44791952D01*
X36486601Y-44791952D01*
X36438610Y-26077655D01*
X38009858Y-26077655D01*
X38045104Y-26336638D01*
X38046412Y-26341124D01*
X38046412Y-26341126D01*
X38066098Y-26408664D01*
X38118243Y-26587567D01*
X38227668Y-26824928D01*
X38230231Y-26828837D01*
X38368410Y-27039596D01*
X38368414Y-27039601D01*
X38370976Y-27043509D01*
X38403334Y-27079763D01*
X38541825Y-27234928D01*
X38545018Y-27238506D01*
X38745970Y-27405637D01*
X38749973Y-27408066D01*
X38965422Y-27538804D01*
X38965426Y-27538806D01*
X38969419Y-27541229D01*
X39210455Y-27642303D01*
X39463783Y-27706641D01*
X39468434Y-27707109D01*
X39468438Y-27707110D01*
X39661308Y-27726531D01*
X39680867Y-27728500D01*
X39836354Y-27728500D01*
X39838679Y-27728327D01*
X39838685Y-27728327D01*
X40026000Y-27714407D01*
X40026004Y-27714406D01*
X40030652Y-27714061D01*
X40035200Y-27713032D01*
X40035206Y-27713031D01*
X40221601Y-27670853D01*
X40285577Y-27656377D01*
X40298134Y-27651494D01*
X40524824Y-27563340D01*
X40524827Y-27563339D01*
X40529177Y-27561647D01*
X40756098Y-27431951D01*
X40961357Y-27270138D01*
X41140443Y-27079763D01*
X41289424Y-26865009D01*
X41405025Y-26630593D01*
X41434566Y-26538308D01*
X41483280Y-26386123D01*
X41484707Y-26381665D01*
X41526721Y-26123693D01*
X41530142Y-25862345D01*
X41494896Y-25603362D01*
X41480473Y-25553877D01*
X41423068Y-25356932D01*
X41421757Y-25352433D01*
X41312332Y-25115072D01*
X41202372Y-24947355D01*
X41171590Y-24900404D01*
X41171586Y-24900399D01*
X41169024Y-24896491D01*
X40994982Y-24701494D01*
X40794030Y-24534363D01*
X40746844Y-24505730D01*
X40574578Y-24401196D01*
X40574574Y-24401194D01*
X40570581Y-24398771D01*
X40329545Y-24297697D01*
X40076217Y-24233359D01*
X40071566Y-24232891D01*
X40071562Y-24232890D01*
X39862271Y-24211816D01*
X39859133Y-24211500D01*
X39703646Y-24211500D01*
X39701321Y-24211673D01*
X39701315Y-24211673D01*
X39514000Y-24225593D01*
X39513996Y-24225594D01*
X39509348Y-24225939D01*
X39504800Y-24226968D01*
X39504794Y-24226969D01*
X39318399Y-24269147D01*
X39254423Y-24283623D01*
X39250071Y-24285315D01*
X39250069Y-24285316D01*
X39015176Y-24376660D01*
X39015173Y-24376661D01*
X39010823Y-24378353D01*
X38783902Y-24508049D01*
X38578643Y-24669862D01*
X38399557Y-24860237D01*
X38250576Y-25074991D01*
X38248510Y-25079181D01*
X38248508Y-25079184D01*
X38230854Y-25114984D01*
X38134975Y-25309407D01*
X38133553Y-25313850D01*
X38133552Y-25313852D01*
X38064581Y-25529318D01*
X38055293Y-25558335D01*
X38013279Y-25816307D01*
X38013218Y-25820980D01*
X38010700Y-26013362D01*
X38009858Y-26077655D01*
X36438610Y-26077655D01*
X36430324Y-22846323D01*
X36450152Y-22778151D01*
X36503688Y-22731521D01*
X36556324Y-22720000D01*
X79974770Y-22720000D01*
X80042891Y-22740002D01*
G37*
%TD.AperFunction*%
%TD*%
M02*
